Sitara_BdSlnt.ufo
<glyph name="percent" format="1">
  <advance width="1855"/>
  <unicode hex="0025"/>
  <outline>
    <contour>
      <point x="807" y="893"/>
      <point x="776" y="779"/>
      <point x="716" y="699" type="curve" smooth="yes"/>
      <point x="655" y="619"/>
      <point x="562" y="573"/>
      <point x="438" y="573" type="curve" smooth="yes"/>
      <point x="309" y="573"/>
      <point x="216" y="619"/>
      <point x="157" y="699" type="curve" smooth="yes"/>
      <point x="97" y="779"/>
      <point x="70" y="893"/>
      <point x="70" y="1030" type="curve" smooth="yes"/>
      <point x="70" y="1167"/>
      <point x="97" y="1280"/>
      <point x="157" y="1360" type="curve" smooth="yes"/>
      <point x="217" y="1439"/>
      <point x="309" y="1483"/>
      <point x="440" y="1483" type="curve" smooth="yes"/>
      <point x="563" y="1483"/>
      <point x="655" y="1439"/>
      <point x="716" y="1360" type="curve" smooth="yes"/>
      <point x="777" y="1280"/>
      <point x="807" y="1167"/>
      <point x="807" y="1030" type="curve" smooth="yes"/>
    </contour>
    <contour>
      <point x="301" y="918"/>
      <point x="311" y="830"/>
      <point x="332" y="770" type="curve" smooth="yes"/>
      <point x="353" y="709"/>
      <point x="389" y="676"/>
      <point x="438" y="676" type="curve" smooth="yes"/>
      <point x="490" y="676"/>
      <point x="523" y="709"/>
      <point x="544" y="770" type="curve" smooth="yes"/>
      <point x="565" y="830"/>
      <point x="573" y="918"/>
      <point x="573" y="1030" type="curve" smooth="yes"/>
      <point x="573" y="1139"/>
      <point x="565" y="1226"/>
      <point x="545" y="1286" type="curve" smooth="yes"/>
      <point x="524" y="1346"/>
      <point x="491" y="1378"/>
      <point x="440" y="1378" type="curve" smooth="yes"/>
      <point x="389" y="1378"/>
      <point x="355" y="1346"/>
      <point x="333" y="1286" type="curve" smooth="yes"/>
      <point x="311" y="1226"/>
      <point x="301" y="1139"/>
      <point x="301" y="1030" type="curve" smooth="yes"/>
    </contour>
    <contour>
      <point x="651" y="0" type="line"/>
      <point x="492" y="0" type="line"/>
      <point x="1198" y="1462" type="line"/>
      <point x="1356" y="1462" type="line"/>
    </contour>
    <contour>
      <point x="1786" y="299"/>
      <point x="1755" y="185"/>
      <point x="1695" y="105" type="curve" smooth="yes"/>
      <point x="1634" y="25"/>
      <point x="1541" y="-20"/>
      <point x="1417" y="-20" type="curve" smooth="yes"/>
      <point x="1288" y="-20"/>
      <point x="1195" y="25"/>
      <point x="1136" y="105" type="curve" smooth="yes"/>
      <point x="1076" y="185"/>
      <point x="1049" y="299"/>
      <point x="1049" y="436" type="curve" smooth="yes"/>
      <point x="1049" y="573"/>
      <point x="1076" y="686"/>
      <point x="1136" y="766" type="curve" smooth="yes"/>
      <point x="1196" y="845"/>
      <point x="1288" y="889"/>
      <point x="1419" y="889" type="curve" smooth="yes"/>
      <point x="1542" y="889"/>
      <point x="1634" y="845"/>
      <point x="1695" y="766" type="curve" smooth="yes"/>
      <point x="1756" y="686"/>
      <point x="1786" y="573"/>
      <point x="1786" y="436" type="curve" smooth="yes"/>
    </contour>
    <contour>
      <point x="1280" y="324"/>
      <point x="1290" y="236"/>
      <point x="1311" y="176" type="curve" smooth="yes"/>
      <point x="1332" y="115"/>
      <point x="1368" y="82"/>
      <point x="1417" y="82" type="curve" smooth="yes"/>
      <point x="1469" y="82"/>
      <point x="1502" y="115"/>
      <point x="1523" y="176" type="curve" smooth="yes"/>
      <point x="1544" y="236"/>
      <point x="1552" y="324"/>
      <point x="1552" y="436" type="curve" smooth="yes"/>
      <point x="1552" y="545"/>
      <point x="1544" y="632"/>
      <point x="1524" y="692" type="curve" smooth="yes"/>
      <point x="1503" y="752"/>
      <point x="1470" y="784"/>
      <point x="1419" y="784" type="curve" smooth="yes"/>
      <point x="1368" y="784"/>
      <point x="1334" y="752"/>
      <point x="1312" y="692" type="curve" smooth="yes"/>
      <point x="1290" y="632"/>
      <point x="1280" y="545"/>
      <point x="1280" y="436" type="curve" smooth="yes"/>
    </contour>
  </outline>
</glyph>
<glyph name="ampersand" format="1">
  <advance width="1640"/>
  <unicode hex="0026"/>
  <outline>
    <contour>
      <point x="1208" y="0" type="line"/>
      <point x="1067" y="150" type="line"/>
      <point x="1016" y="99"/>
      <point x="955" y="58"/>
      <point x="880" y="28" type="curve" smooth="yes"/>
      <point x="805" y="-2"/>
      <point x="719" y="-20"/>
      <point x="616" y="-20" type="curve" smooth="yes"/>
      <point x="448" y="-20"/>
      <point x="318" y="20"/>
      <point x="230" y="95" type="curve" smooth="yes"/>
      <point x="142" y="170"/>
      <point x="96" y="279"/>
      <point x="96" y="416" type="curve" smooth="yes"/>
      <point x="96" y="536"/>
      <point x="137" y="618"/>
      <point x="201" y="680" type="curve" smooth="yes"/>
      <point x="265" y="742"/>
      <point x="353" y="782"/>
      <point x="446" y="819" type="curve"/>
      <point x="393" y="883"/>
      <point x="353" y="940"/>
      <point x="328" y="997" type="curve" smooth="yes"/>
      <point x="303" y="1054"/>
      <point x="291" y="1113"/>
      <point x="291" y="1182" type="curve" smooth="yes"/>
      <point x="291" y="1273"/>
      <point x="326" y="1347"/>
      <point x="395" y="1400" type="curve" smooth="yes"/>
      <point x="463" y="1453"/>
      <point x="566" y="1483"/>
      <point x="702" y="1483" type="curve" smooth="yes"/>
      <point x="834" y="1483"/>
      <point x="932" y="1450"/>
      <point x="997" y="1397" type="curve" smooth="yes"/>
      <point x="1061" y="1344"/>
      <point x="1094" y="1271"/>
      <point x="1094" y="1192" type="curve" smooth="yes"/>
      <point x="1094" y="1109"/>
      <point x="1069" y="1044"/>
      <point x="1018" y="988" type="curve" smooth="yes"/>
      <point x="966" y="931"/>
      <point x="889" y="883"/>
      <point x="782" y="834" type="curve"/>
      <point x="785" y="829"/>
      <point x="790" y="824"/>
      <point x="797" y="819" type="curve"/>
      <point x="1087" y="514" type="line"/>
      <point x="1104" y="609"/>
      <point x="1108" y="705"/>
      <point x="1108" y="782" type="curve" smooth="yes"/>
      <point x="1108" y="872" type="line"/>
      <point x="1556" y="872" type="line"/>
      <point x="1556" y="764" type="line"/>
      <point x="1524" y="764" type="line" smooth="yes"/>
      <point x="1479" y="764"/>
      <point x="1434" y="761"/>
      <point x="1397" y="742" type="curve" smooth="yes"/>
      <point x="1360" y="722"/>
      <point x="1330" y="688"/>
      <point x="1313" y="625" type="curve" smooth="yes"/>
      <point x="1292" y="549"/>
      <point x="1264" y="461"/>
      <point x="1223" y="373" type="curve"/>
      <point x="1427" y="160" type="line" smooth="yes"/>
      <point x="1466" y="119"/>
      <point x="1522" y="109"/>
      <point x="1595" y="109" type="curve" smooth="yes"/>
      <point x="1614" y="109" type="line"/>
      <point x="1614" y="0" type="line"/>
    </contour>
    <contour>
      <point x="397" y="325"/>
      <point x="424" y="253"/>
      <point x="471" y="201" type="curve" smooth="yes"/>
      <point x="518" y="149"/>
      <point x="587" y="117"/>
      <point x="668" y="117" type="curve" smooth="yes"/>
      <point x="813" y="117"/>
      <point x="910" y="168"/>
      <point x="977" y="248" type="curve"/>
      <point x="539" y="715" type="line"/>
      <point x="482" y="674"/>
      <point x="446" y="628"/>
      <point x="425" y="577" type="curve" smooth="yes"/>
      <point x="404" y="525"/>
      <point x="397" y="469"/>
      <point x="397" y="406" type="curve" smooth="yes"/>
    </contour>
    <contour>
      <point x="846" y="1238"/>
      <point x="838" y="1280"/>
      <point x="817" y="1311" type="curve" smooth="yes"/>
      <point x="796" y="1342"/>
      <point x="759" y="1360"/>
      <point x="702" y="1360" type="curve" smooth="yes"/>
      <point x="657" y="1360"/>
      <point x="622" y="1342"/>
      <point x="601" y="1311" type="curve" smooth="yes"/>
      <point x="580" y="1280"/>
      <point x="569" y="1237"/>
      <point x="569" y="1188" type="curve" smooth="yes"/>
      <point x="569" y="1141"/>
      <point x="580" y="1100"/>
      <point x="601" y="1058" type="curve" smooth="yes"/>
      <point x="621" y="1016"/>
      <point x="653" y="974"/>
      <point x="696" y="926" type="curve"/>
      <point x="753" y="958"/>
      <point x="791" y="994"/>
      <point x="814" y="1036" type="curve" smooth="yes"/>
      <point x="837" y="1078"/>
      <point x="846" y="1127"/>
      <point x="846" y="1190" type="curve" smooth="yes"/>
    </contour>
  </outline>
</glyph>
<glyph name="parenleft" format="1">
  <advance width="819"/>
  <unicode hex="0028"/>
  <outline>
    <contour>
      <point x="446" y="488"/>
      <point x="460" y="329"/>
      <point x="505" y="190" type="curve" smooth="yes"/>
      <point x="550" y="50"/>
      <point x="627" y="-70"/>
      <point x="754" y="-154" type="curve"/>
      <point x="754" y="-285" type="line"/>
      <point x="526" y="-193"/>
      <point x="367" y="-70"/>
      <point x="265" y="86" type="curve" smooth="yes"/>
      <point x="163" y="242"/>
      <point x="117" y="430"/>
      <point x="117" y="651" type="curve" smooth="yes"/>
      <point x="117" y="871"/>
      <point x="163" y="1058"/>
      <point x="265" y="1213" type="curve" smooth="yes"/>
      <point x="367" y="1368"/>
      <point x="526" y="1490"/>
      <point x="754" y="1581" type="curve"/>
      <point x="754" y="1452" type="line"/>
      <point x="627" y="1368"/>
      <point x="550" y="1249"/>
      <point x="505" y="1110" type="curve" smooth="yes"/>
      <point x="460" y="971"/>
      <point x="446" y="814"/>
      <point x="446" y="651" type="curve" smooth="yes"/>
    </contour>
  </outline>
</glyph>
<glyph name="four" format="1">
  <advance width="1145"/>
  <unicode hex="0034"/>
  <outline>
    <contour>
      <point x="893" y="381" type="line"/>
      <point x="893" y="256" type="line" smooth="yes"/>
      <point x="893" y="192"/>
      <point x="913" y="155"/>
      <point x="943" y="135" type="curve" smooth="yes"/>
      <point x="973" y="114"/>
      <point x="1016" y="109"/>
      <point x="1061" y="109" type="curve" smooth="yes"/>
      <point x="1087" y="109" type="line"/>
      <point x="1087" y="0" type="line"/>
      <point x="369" y="0" type="line"/>
      <point x="369" y="109" type="line"/>
      <point x="426" y="109" type="line" smooth="yes"/>
      <point x="473" y="109"/>
      <point x="515" y="114"/>
      <point x="545" y="135" type="curve" smooth="yes"/>
      <point x="575" y="155"/>
      <point x="594" y="192"/>
      <point x="594" y="256" type="curve" smooth="yes"/>
      <point x="594" y="381" type="line"/>
      <point x="27" y="381" type="line"/>
      <point x="27" y="506" type="line"/>
      <point x="608" y="1462" type="line"/>
      <point x="893" y="1462" type="line"/>
      <point x="893" y="516" type="line"/>
      <point x="1106" y="516" type="line"/>
      <point x="1106" y="381" type="line"/>
    </contour>
    <contour>
      <point x="594" y="874" type="line" smooth="yes"/>
      <point x="594" y="994"/>
      <point x="597" y="1140"/>
      <point x="608" y="1268" type="curve"/>
      <point x="595" y="1236"/>
      <point x="562" y="1175"/>
      <point x="529" y="1116" type="curve" smooth="yes"/>
      <point x="496" y="1056"/>
      <point x="462" y="998"/>
      <point x="446" y="973" type="curve" smooth="yes"/>
      <point x="170" y="516" type="line"/>
      <point x="594" y="516" type="line"/>
    </contour>
  </outline>
</glyph>
<glyph name="asciitilde" format="1">
  <advance width="1149"/>
  <unicode hex="007E"/>
  <outline>
    <contour>
      <point x="492" y="685"/>
      <point x="456" y="699"/>
      <point x="426" y="708" type="curve" smooth="yes"/>
      <point x="396" y="716"/>
      <point x="369" y="719"/>
      <point x="340" y="719" type="curve" smooth="yes"/>
      <point x="303" y="719"/>
      <point x="262" y="705"/>
      <point x="223" y="684" type="curve" smooth="yes"/>
      <point x="183" y="663"/>
      <point x="145" y="633"/>
      <point x="113" y="598" type="curve"/>
      <point x="113" y="756" type="line"/>
      <point x="179" y="828"/>
      <point x="261" y="864"/>
      <point x="360" y="864" type="curve" smooth="yes"/>
      <point x="399" y="864"/>
      <point x="430" y="861"/>
      <point x="467" y="853" type="curve" smooth="yes"/>
      <point x="503" y="844"/>
      <point x="545" y="828"/>
      <point x="608" y="801" type="curve" smooth="yes"/>
      <point x="657" y="780"/>
      <point x="693" y="765"/>
      <point x="724" y="757" type="curve" smooth="yes"/>
      <point x="755" y="748"/>
      <point x="781" y="745"/>
      <point x="809" y="745" type="curve" smooth="yes"/>
      <point x="848" y="745"/>
      <point x="887" y="759"/>
      <point x="927" y="781" type="curve" smooth="yes"/>
      <point x="966" y="803"/>
      <point x="1004" y="833"/>
      <point x="1036" y="866" type="curve"/>
      <point x="1036" y="709" type="line"/>
      <point x="971" y="636"/>
      <point x="888" y="600"/>
      <point x="788" y="600" type="curve" smooth="yes"/>
      <point x="749" y="600"/>
      <point x="719" y="603"/>
      <point x="683" y="612" type="curve" smooth="yes"/>
      <point x="646" y="621"/>
      <point x="604" y="637"/>
      <point x="541" y="664" type="curve" smooth="yes"/>
    </contour>
  </outline>
</glyph>
<glyph name="cent" format="1">
  <advance width="1145"/>
  <unicode hex="00A2"/>
  <outline>
    <contour>
      <point x="571" y="170" type="line"/>
      <point x="434" y="179"/>
      <point x="321" y="224"/>
      <point x="242" y="313" type="curve" smooth="yes"/>
      <point x="162" y="402"/>
      <point x="117" y="538"/>
      <point x="117" y="733" type="curve" smooth="yes"/>
      <point x="117" y="937"/>
      <point x="165" y="1076"/>
      <point x="246" y="1167" type="curve" smooth="yes"/>
      <point x="326" y="1258"/>
      <point x="440" y="1300"/>
      <point x="571" y="1311" type="curve"/>
      <point x="571" y="1462" type="line"/>
      <point x="698" y="1462" type="line"/>
      <point x="698" y="1311" type="line"/>
      <point x="815" y="1304"/>
      <point x="907" y="1279"/>
      <point x="968" y="1241" type="curve" smooth="yes"/>
      <point x="1029" y="1203"/>
      <point x="1061" y="1153"/>
      <point x="1061" y="1098" type="curve" smooth="yes"/>
      <point x="1061" y="1054"/>
      <point x="1048" y="1010"/>
      <point x="1009" y="978" type="curve" smooth="yes"/>
      <point x="969" y="946"/>
      <point x="904" y="924"/>
      <point x="797" y="924" type="curve"/>
      <point x="797" y="981"/>
      <point x="791" y="1038"/>
      <point x="776" y="1083" type="curve" smooth="yes"/>
      <point x="760" y="1128"/>
      <point x="735" y="1162"/>
      <point x="698" y="1178" type="curve"/>
      <point x="698" y="322" type="line"/>
      <point x="767" y="323"/>
      <point x="829" y="343"/>
      <point x="879" y="372" type="curve" smooth="yes"/>
      <point x="929" y="400"/>
      <point x="967" y="440"/>
      <point x="991" y="487" type="curve"/>
      <point x="1026" y="467"/>
      <point x="1042" y="430"/>
      <point x="1042" y="393" type="curve" smooth="yes"/>
      <point x="1042" y="346"/>
      <point x="1015" y="295"/>
      <point x="959" y="253" type="curve" smooth="yes"/>
      <point x="903" y="211"/>
      <point x="817" y="178"/>
      <point x="698" y="170" type="curve"/>
      <point x="698" y="0" type="line"/>
      <point x="571" y="0" type="line"/>
    </contour>
    <contour>
      <point x="430" y="524"/>
      <point x="472" y="395"/>
      <point x="571" y="346" type="curve"/>
      <point x="571" y="1174" type="line"/>
      <point x="527" y="1154"/>
      <point x="492" y="1114"/>
      <point x="468" y="1044" type="curve" smooth="yes"/>
      <point x="443" y="974"/>
      <point x="430" y="874"/>
      <point x="430" y="735" type="curve" smooth="yes"/>
    </contour>
  </outline>
</glyph>
<glyph name="dCandraBinduInverted" format="1">
  <advance width="0"/>
  <unicode hex="0900"/>
  <outline>
    <contour>
      <point x="603" y="1514"/>
      <point x="648" y="1531"/>
      <point x="648" y="1636" type="curve" smooth="yes"/>
      <point x="648" y="1768"/>
      <point x="555" y="1958"/>
      <point x="326" y="1958" type="curve" smooth="yes"/>
      <point x="86" y="1958"/>
      <point x="-94" y="1769"/>
      <point x="-94" y="1626" type="curve" smooth="yes"/>
      <point x="-94" y="1566"/>
      <point x="-57" y="1529"/>
      <point x="24" y="1508" type="curve"/>
      <point x="104" y="1689"/>
      <point x="213" y="1775"/>
      <point x="344" y="1775" type="curve" smooth="yes"/>
      <point x="475" y="1775"/>
      <point x="538" y="1690"/>
      <point x="556" y="1500" type="curve"/>
    </contour>
    <contour>
      <point x="354" y="1438"/>
      <point x="426" y="1502"/>
      <point x="426" y="1577" type="curve" smooth="yes"/>
      <point x="426" y="1633"/>
      <point x="385" y="1679"/>
      <point x="327" y="1679" type="curve" smooth="yes"/>
      <point x="252" y="1679"/>
      <point x="179" y="1614"/>
      <point x="179" y="1540" type="curve" smooth="yes"/>
      <point x="179" y="1483"/>
      <point x="221" y="1438"/>
      <point x="280" y="1438" type="curve" smooth="yes"/>
    </contour>
    <contour>
      <point x="271.160531247" y="1395.0" type="move" name="_abvm_nasal"/>
    </contour>
  </outline>
</glyph>
<glyph name="dCandraBindu" format="1">
  <advance width="0"/>
  <unicode hex="0901"/>
  <outline>
    <contour>
      <point x="276" y="1958"/>
      <point x="204" y="1894"/>
      <point x="204" y="1820" type="curve" smooth="yes"/>
      <point x="204" y="1763"/>
      <point x="245" y="1717"/>
      <point x="304" y="1717" type="curve" smooth="yes"/>
      <point x="378" y="1717"/>
      <point x="450" y="1782"/>
      <point x="450" y="1857" type="curve" smooth="yes"/>
      <point x="450" y="1913"/>
      <point x="409" y="1958"/>
      <point x="351" y="1958" type="curve" smooth="yes"/>
    </contour>
    <contour>
      <point x="16" y="1882"/>
      <point x="-29" y="1865"/>
      <point x="-29" y="1760" type="curve" smooth="yes"/>
      <point x="-29" y="1628"/>
      <point x="65" y="1438"/>
      <point x="294" y="1438" type="curve" smooth="yes"/>
      <point x="535" y="1438"/>
      <point x="713" y="1627"/>
      <point x="713" y="1771" type="curve" smooth="yes"/>
      <point x="713" y="1830"/>
      <point x="674" y="1868"/>
      <point x="596" y="1888" type="curve"/>
      <point x="515" y="1707"/>
      <point x="407" y="1621"/>
      <point x="276" y="1621" type="curve" smooth="yes"/>
      <point x="145" y="1621"/>
      <point x="81" y="1706"/>
      <point x="63" y="1896" type="curve"/>
    </contour>
    <contour>
      <point x="271.160531247" y="1395.0" type="move" name="_abvm_nasal"/>
    </contour>
  </outline>
</glyph>
<glyph name="dAnusvara" format="1">
  <advance width="0"/>
  <unicode hex="0902"/>
  <outline>
    <contour>
      <point x="251" y="1690"/>
      <point x="176" y="1622"/>
      <point x="176" y="1545" type="curve" smooth="yes"/>
      <point x="176" y="1485"/>
      <point x="219" y="1438"/>
      <point x="281" y="1438" type="curve" smooth="yes"/>
      <point x="358" y="1438"/>
      <point x="432" y="1506"/>
      <point x="432" y="1584" type="curve" smooth="yes"/>
      <point x="432" y="1643"/>
      <point x="390" y="1690"/>
      <point x="330" y="1690" type="curve" smooth="yes"/>
    </contour>
    <contour>
      <point x="271.160531247" y="1395.0" type="move" name="_abvm_nasal"/>
    </contour>
  </outline>
</glyph>
<glyph name="dVisarga" format="1">
  <advance width="653"/>
  <unicode hex="0903"/>
  <outline>
    <contour>
      <point x="411" y="1039"/>
      <point x="326" y="961"/>
      <point x="326" y="871" type="curve" smooth="yes"/>
      <point x="326" y="804"/>
      <point x="374" y="750"/>
      <point x="445" y="750" type="curve" smooth="yes"/>
      <point x="533" y="750"/>
      <point x="620" y="827"/>
      <point x="620" y="916" type="curve" smooth="yes"/>
      <point x="620" y="985"/>
      <point x="571" y="1039"/>
      <point x="501" y="1039" type="curve" smooth="yes"/>
    </contour>
    <contour>
      <point x="285" y="392"/>
      <point x="200" y="316"/>
      <point x="200" y="225" type="curve" smooth="yes"/>
      <point x="200" y="158"/>
      <point x="249" y="104"/>
      <point x="319" y="104" type="curve" smooth="yes"/>
      <point x="407" y="104"/>
      <point x="495" y="181"/>
      <point x="495" y="270" type="curve" smooth="yes"/>
      <point x="495" y="339"/>
      <point x="445" y="392"/>
      <point x="375" y="392" type="curve" smooth="yes"/>
    </contour>
  </outline>
</glyph>
<glyph name="dAshort" format="1">
  <advance width="1609.5188414"/>
  <unicode hex="0904"/>
  <outline>
    <component base="dA"/>
    <component base="dEshortsign" xOffset="1314"/>
    <contour>
      <point x="1416.30677413" y="-19.0" type="move" name="blwm_matra"/>
    </contour>
    <contour>
      <point x="1559.55390961" y="1325.0" type="move" name="abvm_matra"/>
    </contour>
    <contour>
      <point x="1116.00849462" y="1600.0" type="move" name="abvm_latin"/>
    </contour>
    <contour>
      <point x="1573.16053125" y="1395.0" type="move" name="abvm_nasal"/>
    </contour>
    <contour>
      <point x="806.943803091" y="10.0" type="move" name="blwm_rakar"/>
    </contour>
    <contour>
      <point x="803.056196909" y="-10.0" type="move" name="blwm_mid"/>
    </contour>
    <contour>
      <point x="-4.47074711017" y="-23.0" type="move" name="blwm_nukta"/>
    </contour>
    <contour>
      <point x="1561.4977127" y="1335.0" type="move" name="abvm_reph"/>
    </contour>
  </outline>
</glyph>
<glyph name="dIi" format="1">
  <advance width="1096"/>
  <unicode hex="0908"/>
  <outline>
    <contour>
      <point x="1044" y="835" type="line"/>
      <point x="1068" y="855" type="line"/>
      <point x="1123" y="1137" type="line"/>
      <point x="1353" y="1137" type="line"/>
      <point x="1374" y="1160" type="line"/>
      <point x="1355" y="1330" type="line"/>
      <point x="1032" y="1330" type="line"/>
      <point x="1006" y="1366"/>
      <point x="993" y="1411"/>
      <point x="993" y="1454" type="curve" smooth="yes"/>
      <point x="993" y="1561"/>
      <point x="1078" y="1655"/>
      <point x="1204" y="1655" type="curve" smooth="yes"/>
      <point x="1258" y="1655"/>
      <point x="1318" y="1637"/>
      <point x="1366" y="1588" type="curve"/>
      <point x="1371" y="1598"/>
      <point x="1379" y="1608"/>
      <point x="1379" y="1648" type="curve" smooth="yes"/>
      <point x="1379" y="1755"/>
      <point x="1286" y="1854"/>
      <point x="1127" y="1854" type="curve" smooth="yes"/>
      <point x="927" y="1854"/>
      <point x="794" y="1713"/>
      <point x="794" y="1545" type="curve" smooth="yes"/>
      <point x="794" y="1473"/>
      <point x="819" y="1395"/>
      <point x="873" y="1330" type="curve"/>
      <point x="223" y="1330" type="line"/>
      <point x="201" y="1307" type="line"/>
      <point x="221" y="1137" type="line"/>
      <point x="889" y="1137" type="line"/>
      <point x="871" y="1046" type="line" smooth="yes"/>
      <point x="869" y="1033"/>
      <point x="860" y="1026"/>
      <point x="847" y="1026" type="curve" smooth="yes"/>
      <point x="526" y="1026" type="line" smooth="yes"/>
      <point x="354" y="1026"/>
      <point x="271" y="949"/>
      <point x="271" y="846" type="curve" smooth="yes"/>
      <point x="271" y="700"/>
      <point x="422" y="492"/>
      <point x="610" y="492" type="curve" smooth="yes"/>
      <point x="685" y="492"/>
      <point x="791" y="524"/>
      <point x="835" y="524" type="curve" smooth="yes"/>
      <point x="855" y="524"/>
      <point x="870" y="517"/>
      <point x="870" y="493" type="curve" smooth="yes"/>
      <point x="870" y="421"/>
      <point x="755" y="333"/>
      <point x="544" y="330" type="curve"/>
      <point x="507" y="402"/>
      <point x="457" y="447"/>
      <point x="380" y="447" type="curve" smooth="yes"/>
      <point x="288" y="447"/>
      <point x="225" y="386"/>
      <point x="225" y="297" type="curve" smooth="yes"/>
      <point x="225" y="199"/>
      <point x="310" y="107"/>
      <point x="475" y="91" type="curve"/>
      <point x="519" y="-147"/>
      <point x="640" y="-233"/>
      <point x="753" y="-233" type="curve" smooth="yes"/>
      <point x="847" y="-233"/>
      <point x="922" y="-177"/>
      <point x="922" y="-95" type="curve" smooth="yes"/>
      <point x="922" y="-65"/>
      <point x="911" y="-30"/>
      <point x="893" y="3" type="curve"/>
      <point x="855" y="-7"/>
      <point x="818" y="-13"/>
      <point x="777" y="-13" type="curve" smooth="yes"/>
      <point x="699" y="-13"/>
      <point x="656" y="9"/>
      <point x="631" y="91" type="curve"/>
      <point x="925" y="114"/>
      <point x="1042" y="261"/>
      <point x="1042" y="408" type="curve" smooth="yes"/>
      <point x="1042" y="560"/>
      <point x="930" y="735"/>
      <point x="796" y="735" type="curve" smooth="yes"/>
      <point x="729" y="735"/>
      <point x="582" y="694"/>
      <point x="533" y="694" type="curve" smooth="yes"/>
      <point x="498" y="694"/>
      <point x="481" y="716"/>
      <point x="481" y="742" type="curve" smooth="yes"/>
      <point x="481" y="801"/>
      <point x="555" y="835"/>
      <point x="651" y="835" type="curve" smooth="yes"/>
    </contour>
    <contour>
      <point x="896.306774126" y="-19.0" type="move" name="blwm_matra"/>
    </contour>
    <contour>
      <point x="1039.55390961" y="1325.0" type="move" name="abvm_matra"/>
    </contour>
    <contour>
      <point x="859.00849462" y="1600.0" type="move" name="abvm_latin"/>
    </contour>
    <contour>
      <point x="1053.16053125" y="1395.0" type="move" name="abvm_nasal"/>
    </contour>
    <contour>
      <point x="549.943803091" y="10.0" type="move" name="blwm_rakar"/>
    </contour>
    <contour>
      <point x="546.056196909" y="-10.0" type="move" name="blwm_mid"/>
    </contour>
    <contour>
      <point x="-4.47074711017" y="-23.0" type="move" name="blwm_nukta"/>
    </contour>
    <contour>
      <point x="1041.4977127" y="1335.0" type="move" name="abvm_reph"/>
    </contour>
  </outline>
</glyph>
<glyph name="dU" format="1">
  <advance width="1178"/>
  <unicode hex="0909"/>
  <outline>
    <contour>
      <point x="1437" y="1330" type="line"/>
      <point x="223" y="1330" type="line"/>
      <point x="201" y="1307" type="line"/>
      <point x="221" y="1137" type="line"/>
      <point x="795" y="1137" type="line" smooth="yes"/>
      <point x="884" y="1137"/>
      <point x="939" y="1102"/>
      <point x="939" y="1028" type="curve" smooth="yes"/>
      <point x="939" y="906"/>
      <point x="856" y="843"/>
      <point x="552" y="828" type="curve"/>
      <point x="531" y="805" type="line"/>
      <point x="587" y="565" type="line"/>
      <point x="695" y="565"/>
      <point x="791" y="581"/>
      <point x="871" y="609" type="curve"/>
      <point x="900" y="579"/>
      <point x="913" y="540"/>
      <point x="913" y="498" type="curve" smooth="yes"/>
      <point x="913" y="346"/>
      <point x="776" y="247"/>
      <point x="627" y="247" type="curve" smooth="yes"/>
      <point x="431" y="247"/>
      <point x="300" y="428"/>
      <point x="317" y="826" type="curve"/>
      <point x="222" y="818"/>
      <point x="168" y="775"/>
      <point x="168" y="630" type="curve" smooth="yes"/>
      <point x="168" y="416"/>
      <point x="284" y="2"/>
      <point x="656" y="2" type="curve" smooth="yes"/>
      <point x="922" y="2"/>
      <point x="1113" y="187"/>
      <point x="1113" y="415" type="curve" smooth="yes"/>
      <point x="1113" y="517"/>
      <point x="1074" y="615"/>
      <point x="1011" y="681" type="curve"/>
      <point x="1109" y="752"/>
      <point x="1159" y="841"/>
      <point x="1159" y="935" type="curve" smooth="yes"/>
      <point x="1159" y="997"/>
      <point x="1137" y="1070"/>
      <point x="1083" y="1137" type="curve"/>
      <point x="1435" y="1137" type="line"/>
      <point x="1456" y="1160" type="line"/>
    </contour>
    <contour>
      <point x="891.306774126" y="-19.0" type="move" name="blwm_matra"/>
    </contour>
    <contour>
      <point x="1034.55390961" y="1325.0" type="move" name="abvm_matra"/>
    </contour>
    <contour>
      <point x="900.00849462" y="1600.0" type="move" name="abvm_latin"/>
    </contour>
    <contour>
      <point x="1048.16053125" y="1395.0" type="move" name="abvm_nasal"/>
    </contour>
    <contour>
      <point x="590.943803091" y="10.0" type="move" name="blwm_rakar"/>
    </contour>
    <contour>
      <point x="587.056196909" y="-10.0" type="move" name="blwm_mid"/>
    </contour>
    <contour>
      <point x="-4.47074711017" y="-23.0" type="move" name="blwm_nukta"/>
    </contour>
    <contour>
      <point x="1036.4977127" y="1335.0" type="move" name="abvm_reph"/>
    </contour>
  </outline>
</glyph>
<glyph name="dUu" format="1">
  <advance width="1561"/>
  <unicode hex="090A"/>
  <outline>
    <contour>
      <point x="1818" y="1137" type="line"/>
      <point x="1839" y="1160" type="line"/>
      <point x="1820" y="1330" type="line"/>
      <point x="223" y="1330" type="line"/>
      <point x="201" y="1307" type="line"/>
      <point x="221" y="1137" type="line"/>
      <point x="795" y="1137" type="line" smooth="yes"/>
      <point x="884" y="1137"/>
      <point x="939" y="1102"/>
      <point x="939" y="1028" type="curve" smooth="yes"/>
      <point x="939" y="906"/>
      <point x="856" y="843"/>
      <point x="552" y="828" type="curve"/>
      <point x="531" y="805" type="line"/>
      <point x="587" y="565" type="line"/>
      <point x="695" y="565"/>
      <point x="791" y="581"/>
      <point x="871" y="609" type="curve"/>
      <point x="900" y="579"/>
      <point x="913" y="540"/>
      <point x="913" y="498" type="curve" smooth="yes"/>
      <point x="913" y="346"/>
      <point x="776" y="247"/>
      <point x="627" y="247" type="curve" smooth="yes"/>
      <point x="431" y="247"/>
      <point x="300" y="428"/>
      <point x="317" y="826" type="curve"/>
      <point x="222" y="818"/>
      <point x="168" y="775"/>
      <point x="168" y="630" type="curve" smooth="yes"/>
      <point x="168" y="416"/>
      <point x="284" y="2"/>
      <point x="656" y="2" type="curve" smooth="yes"/>
      <point x="890" y="2"/>
      <point x="1067" y="154"/>
      <point x="1106" y="353" type="curve" smooth="yes"/>
      <point x="1111" y="378"/>
      <point x="1113" y="402"/>
      <point x="1113" y="425" type="curve"/>
      <point x="1210" y="540"/>
      <point x="1297" y="605"/>
      <point x="1353" y="605" type="curve" smooth="yes"/>
      <point x="1382" y="605"/>
      <point x="1401" y="584"/>
      <point x="1401" y="537" type="curve" smooth="yes"/>
      <point x="1401" y="408"/>
      <point x="1288" y="272"/>
      <point x="1139" y="213" type="curve"/>
      <point x="1173" y="112"/>
      <point x="1258" y="56"/>
      <point x="1333" y="56" type="curve" smooth="yes"/>
      <point x="1459" y="56"/>
      <point x="1594" y="201"/>
      <point x="1594" y="412" type="curve" smooth="yes"/>
      <point x="1594" y="617"/>
      <point x="1464" y="789"/>
      <point x="1305" y="789" type="curve" smooth="yes"/>
      <point x="1232" y="789"/>
      <point x="1155" y="754"/>
      <point x="1037" y="651" type="curve"/>
      <point x="1029" y="661"/>
      <point x="1021" y="671"/>
      <point x="1011" y="681" type="curve"/>
      <point x="1109" y="752"/>
      <point x="1159" y="841"/>
      <point x="1159" y="935" type="curve" smooth="yes"/>
      <point x="1159" y="997"/>
      <point x="1137" y="1070"/>
      <point x="1083" y="1137" type="curve"/>
    </contour>
    <contour>
      <point x="891.306774126" y="-19.0" type="move" name="blwm_matra"/>
    </contour>
    <contour>
      <point x="1034.55390961" y="1325.0" type="move" name="abvm_matra"/>
    </contour>
    <contour>
      <point x="1091.00849462" y="1600.0" type="move" name="abvm_latin"/>
    </contour>
    <contour>
      <point x="1048.16053125" y="1395.0" type="move" name="abvm_nasal"/>
    </contour>
    <contour>
      <point x="781.943803091" y="10.0" type="move" name="blwm_rakar"/>
    </contour>
    <contour>
      <point x="778.056196909" y="-10.0" type="move" name="blwm_mid"/>
    </contour>
    <contour>
      <point x="-4.47074711017" y="-23.0" type="move" name="blwm_nukta"/>
    </contour>
    <contour>
      <point x="1036.4977127" y="1335.0" type="move" name="abvm_reph"/>
    </contour>
  </outline>
</glyph>
<glyph name="dRvocalic" format="1">
  <advance width="1771"/>
  <unicode hex="090B"/>
  <outline>
    <contour>
      <point x="2030" y="1330" type="line"/>
      <point x="223" y="1330" type="line"/>
      <point x="201" y="1307" type="line"/>
      <point x="221" y="1137" type="line"/>
      <point x="1015" y="1137" type="line"/>
      <point x="944" y="770" type="line"/>
      <point x="714" y="971"/>
      <point x="634" y="1019"/>
      <point x="522" y="1019" type="curve" smooth="yes"/>
      <point x="360" y="1019"/>
      <point x="258" y="922"/>
      <point x="258" y="836" type="curve" smooth="yes"/>
      <point x="258" y="777"/>
      <point x="305" y="723"/>
      <point x="391" y="674" type="curve"/>
      <point x="457" y="743"/>
      <point x="542" y="788"/>
      <point x="619" y="788" type="curve" smooth="yes"/>
      <point x="664" y="788"/>
      <point x="713" y="773"/>
      <point x="842" y="668" type="curve"/>
      <point x="641" y="551"/>
      <point x="459" y="425"/>
      <point x="289" y="296" type="curve"/>
      <point x="283" y="268" type="line"/>
      <point x="447" y="98" type="line"/>
      <point x="593" y="212"/>
      <point x="701" y="292"/>
      <point x="872" y="403" type="curve"/>
      <point x="790" y="-21" type="line"/>
      <point x="1001" y="-57" type="line"/>
      <point x="1026" y="-39" type="line"/>
      <point x="1133" y="507" type="line"/>
      <point x="1266" y="512"/>
      <point x="1396" y="549"/>
      <point x="1499" y="603" type="curve"/>
      <point x="1534" y="534"/>
      <point x="1544" y="485"/>
      <point x="1544" y="453" type="curve" smooth="yes"/>
      <point x="1544" y="348"/>
      <point x="1459" y="286"/>
      <point x="1292" y="270" type="curve"/>
      <point x="1285" y="148"/>
      <point x="1350" y="72"/>
      <point x="1459" y="72" type="curve" smooth="yes"/>
      <point x="1598" y="72"/>
      <point x="1731" y="188"/>
      <point x="1731" y="344" type="curve" smooth="yes"/>
      <point x="1731" y="433"/>
      <point x="1692" y="542"/>
      <point x="1611" y="675" type="curve"/>
      <point x="1687" y="738"/>
      <point x="1723" y="797"/>
      <point x="1723" y="863" type="curve" smooth="yes"/>
      <point x="1723" y="961"/>
      <point x="1648" y="1055"/>
      <point x="1537" y="1055" type="curve" smooth="yes"/>
      <point x="1421" y="1055"/>
      <point x="1369" y="963"/>
      <point x="1369" y="897" type="curve" smooth="yes"/>
      <point x="1369" y="874"/>
      <point x="1375" y="841"/>
      <point x="1391" y="807" type="curve"/>
      <point x="1323" y="766"/>
      <point x="1253" y="739"/>
      <point x="1175" y="724" type="curve"/>
      <point x="1255" y="1137" type="line"/>
      <point x="2028" y="1137" type="line"/>
      <point x="2049" y="1160" type="line"/>
    </contour>
  </outline>
</glyph>
<glyph name="dLvocalic" format="1">
  <advance width="1491"/>
  <unicode hex="090C"/>
  <outline>
    <contour>
      <point x="1750" y="1330" type="line"/>
      <point x="223" y="1330" type="line"/>
      <point x="201" y="1307" type="line"/>
      <point x="221" y="1137" type="line"/>
      <point x="1145" y="1137" type="line"/>
      <point x="1099" y="900" type="line"/>
      <point x="1023" y="883"/>
      <point x="941" y="840"/>
      <point x="863" y="770" type="curve"/>
      <point x="767" y="881"/>
      <point x="671" y="924"/>
      <point x="566" y="924" type="curve" smooth="yes"/>
      <point x="355" y="924"/>
      <point x="214" y="764"/>
      <point x="214" y="540" type="curve" smooth="yes"/>
      <point x="214" y="265"/>
      <point x="408" y="-48"/>
      <point x="552" y="-48" type="curve" smooth="yes"/>
      <point x="603" y="-48"/>
      <point x="641" y="-12"/>
      <point x="658" y="34" type="curve"/>
      <point x="508" y="154"/>
      <point x="432" y="330"/>
      <point x="432" y="463" type="curve" smooth="yes"/>
      <point x="432" y="601"/>
      <point x="525" y="708"/>
      <point x="643" y="708" type="curve" smooth="yes"/>
      <point x="683" y="708"/>
      <point x="726" y="695"/>
      <point x="765" y="666" type="curve"/>
      <point x="732" y="624"/>
      <point x="700" y="576"/>
      <point x="669" y="522" type="curve"/>
      <point x="845" y="385" type="line"/>
      <point x="874" y="394" type="line"/>
      <point x="1006" y="607"/>
      <point x="1150" y="691"/>
      <point x="1247" y="691" type="curve" smooth="yes"/>
      <point x="1290" y="691"/>
      <point x="1319" y="673"/>
      <point x="1319" y="628" type="curve" smooth="yes"/>
      <point x="1319" y="548"/>
      <point x="1238" y="460"/>
      <point x="1103" y="333" type="curve" smooth="yes"/>
      <point x="1018" y="253"/>
      <point x="883" y="141"/>
      <point x="883" y="26" type="curve" smooth="yes"/>
      <point x="883" y="-106"/>
      <point x="1029" y="-250"/>
      <point x="1206" y="-250" type="curve" smooth="yes"/>
      <point x="1355" y="-250"/>
      <point x="1481" y="-157"/>
      <point x="1481" y="-70" type="curve" smooth="yes"/>
      <point x="1481" y="-10"/>
      <point x="1432" y="62"/>
      <point x="1348" y="87" type="curve"/>
      <point x="1273" y="-11"/>
      <point x="1160" y="-54"/>
      <point x="1109" y="-54" type="curve" smooth="yes"/>
      <point x="1083" y="-54"/>
      <point x="1071" y="-42"/>
      <point x="1071" y="-24" type="curve" smooth="yes"/>
      <point x="1071" y="32"/>
      <point x="1150" y="63"/>
      <point x="1320" y="230" type="curve" smooth="yes"/>
      <point x="1438" y="346"/>
      <point x="1501" y="411"/>
      <point x="1501" y="560" type="curve" smooth="yes"/>
      <point x="1501" y="701"/>
      <point x="1428" y="821"/>
      <point x="1324" y="874" type="curve"/>
      <point x="1375" y="1137" type="line"/>
      <point x="1748" y="1137" type="line"/>
      <point x="1769" y="1160" type="line"/>
    </contour>
  </outline>
</glyph>
<glyph name="dEcandra" format="1">
  <advance width="1206"/>
  <unicode hex="090D"/>
  <outline>
    <contour>
      <point x="609" y="1890"/>
      <point x="564" y="1873"/>
      <point x="564" y="1768" type="curve" smooth="yes"/>
      <point x="564" y="1636"/>
      <point x="658" y="1446"/>
      <point x="887" y="1446" type="curve" smooth="yes"/>
      <point x="1128" y="1446"/>
      <point x="1306" y="1635"/>
      <point x="1306" y="1779" type="curve" smooth="yes"/>
      <point x="1306" y="1838"/>
      <point x="1267" y="1876"/>
      <point x="1189" y="1896" type="curve"/>
      <point x="1108" y="1715"/>
      <point x="1000" y="1629"/>
      <point x="869" y="1629" type="curve" smooth="yes"/>
      <point x="738" y="1629"/>
      <point x="674" y="1714"/>
      <point x="656" y="1904" type="curve"/>
    </contour>
    <contour>
      <point x="1465" y="1330" type="line"/>
      <point x="223" y="1330" type="line"/>
      <point x="201" y="1307" type="line"/>
      <point x="221" y="1137" type="line"/>
      <point x="344" y="1137" type="line"/>
      <point x="272" y="767" type="line" smooth="yes"/>
      <point x="221" y="507"/>
      <point x="356" y="437"/>
      <point x="734" y="245" type="curve" smooth="yes"/>
      <point x="884" y="168"/>
      <point x="917" y="136"/>
      <point x="917" y="96" type="curve" smooth="yes"/>
      <point x="917" y="39"/>
      <point x="889" y="-16"/>
      <point x="744" y="-79" type="curve"/>
      <point x="770" y="-175"/>
      <point x="834" y="-238"/>
      <point x="914" y="-238" type="curve" smooth="yes"/>
      <point x="1023" y="-238"/>
      <point x="1134" y="-128"/>
      <point x="1134" y="2" type="curve" smooth="yes"/>
      <point x="1134" y="147"/>
      <point x="995" y="255"/>
      <point x="793" y="377" type="curve" smooth="yes"/>
      <point x="518" y="543"/>
      <point x="468" y="540"/>
      <point x="490" y="651" type="curve" smooth="yes"/>
      <point x="585" y="1137" type="line"/>
      <point x="969" y="1137" type="line"/>
      <point x="900" y="781" type="line" smooth="yes"/>
      <point x="886" y="711"/>
      <point x="835" y="649"/>
      <point x="751" y="621" type="curve"/>
      <point x="798" y="540"/>
      <point x="857" y="484"/>
      <point x="939" y="484" type="curve" smooth="yes"/>
      <point x="1026" y="484"/>
      <point x="1095" y="547"/>
      <point x="1114" y="647" type="curve" smooth="yes"/>
      <point x="1209" y="1137" type="line"/>
      <point x="1463" y="1137" type="line"/>
      <point x="1484" y="1160" type="line"/>
    </contour>
    <contour>
      <point x="982.306774126" y="-19.0" type="move" name="blwm_matra"/>
    </contour>
    <contour>
      <point x="1125.55390961" y="1325.0" type="move" name="abvm_matra"/>
    </contour>
    <contour>
      <point x="914.00849462" y="1600.0" type="move" name="abvm_latin"/>
    </contour>
    <contour>
      <point x="1139.16053125" y="1395.0" type="move" name="abvm_nasal"/>
    </contour>
    <contour>
      <point x="604.943803091" y="10.0" type="move" name="blwm_rakar"/>
    </contour>
    <contour>
      <point x="601.056196909" y="-10.0" type="move" name="blwm_mid"/>
    </contour>
    <contour>
      <point x="-4.47074711017" y="-23.0" type="move" name="blwm_nukta"/>
    </contour>
    <contour>
      <point x="1127.4977127" y="1335.0" type="move" name="abvm_reph"/>
    </contour>
  </outline>
</glyph>
<glyph name="dOshort" format="1">
  <advance width="2153"/>
  <unicode hex="0912"/>
  <outline>
    <contour>
      <point x="2412" y="1330" type="line"/>
      <point x="2191" y="1330" type="line"/>
      <point x="2152" y="1559"/>
      <point x="2014" y="1695"/>
      <point x="1737" y="1740" type="curve" smooth="yes"/>
      <point x="1429" y="1790"/>
      <point x="1340" y="1834"/>
      <point x="1283" y="1956" type="curve"/>
      <point x="1249" y="1922"/>
      <point x="1221" y="1896"/>
      <point x="1221" y="1817" type="curve" smooth="yes"/>
      <point x="1221" y="1666"/>
      <point x="1379" y="1519"/>
      <point x="1790" y="1494" type="curve" smooth="yes"/>
      <point x="1957" y="1484"/>
      <point x="2007" y="1464"/>
      <point x="2007" y="1416" type="curve" smooth="yes"/>
      <point x="2007" y="1396"/>
      <point x="1997" y="1366"/>
      <point x="1977" y="1330" type="curve"/>
      <point x="1242" y="1330" type="line"/>
      <point x="1220" y="1307" type="line"/>
      <point x="1240" y="1137" type="line"/>
      <point x="1403" y="1137" type="line"/>
      <point x="1360" y="917" type="line" smooth="yes"/>
      <point x="1333" y="780"/>
      <point x="1222" y="706"/>
      <point x="1091" y="706" type="curve" smooth="yes"/>
      <point x="1070" y="706"/>
      <point x="1045" y="708"/>
      <point x="1018" y="713" type="curve"/>
      <point x="1076" y="775"/>
      <point x="1127" y="831"/>
      <point x="1127" y="980" type="curve" smooth="yes"/>
      <point x="1127" y="1184"/>
      <point x="987" y="1335"/>
      <point x="747" y="1335" type="curve" smooth="yes"/>
      <point x="509" y="1335"/>
      <point x="369" y="1202"/>
      <point x="369" y="1084" type="curve" smooth="yes"/>
      <point x="369" y="1002"/>
      <point x="442" y="947"/>
      <point x="567" y="947" type="curve"/>
      <point x="593" y="1082"/>
      <point x="694" y="1184"/>
      <point x="806" y="1184" type="curve" smooth="yes"/>
      <point x="881" y="1184"/>
      <point x="930" y="1135"/>
      <point x="930" y="1058" type="curve" smooth="yes"/>
      <point x="930" y="926"/>
      <point x="809" y="816"/>
      <point x="559" y="800" type="curve"/>
      <point x="539" y="775" type="line"/>
      <point x="602" y="562" type="line"/>
      <point x="694" y="573"/>
      <point x="773" y="589"/>
      <point x="840" y="612" type="curve"/>
      <point x="875" y="578"/>
      <point x="893" y="522"/>
      <point x="893" y="471" type="curve" smooth="yes"/>
      <point x="893" y="344"/>
      <point x="782" y="252"/>
      <point x="632" y="252" type="curve" smooth="yes"/>
      <point x="436" y="252"/>
      <point x="333" y="419"/>
      <point x="345" y="776" type="curve"/>
      <point x="207" y="765"/>
      <point x="200" y="688"/>
      <point x="200" y="593" type="curve" smooth="yes"/>
      <point x="200" y="393"/>
      <point x="315" y="2"/>
      <point x="663" y="2" type="curve" smooth="yes"/>
      <point x="904" y="2"/>
      <point x="1082" y="167"/>
      <point x="1082" y="384" type="curve" smooth="yes"/>
      <point x="1082" y="434"/>
      <point x="1073" y="493"/>
      <point x="1056" y="537" type="curve"/>
      <point x="1116" y="515"/>
      <point x="1156" y="507"/>
      <point x="1209" y="507" type="curve" smooth="yes"/>
      <point x="1235" y="507"/>
      <point x="1252" y="509"/>
      <point x="1282" y="514" type="curve"/>
      <point x="1178" y="-21" type="line"/>
      <point x="1389" y="-57" type="line"/>
      <point x="1414" y="-39" type="line"/>
      <point x="1643" y="1137" type="line"/>
      <point x="1927" y="1137" type="line"/>
      <point x="1702" y="-21" type="line"/>
      <point x="1913" y="-57" type="line"/>
      <point x="1938" y="-39" type="line"/>
      <point x="2167" y="1137" type="line"/>
      <point x="2410" y="1137" type="line"/>
      <point x="2431" y="1160" type="line"/>
    </contour>
    <contour>
      <point x="1940.30677413" y="-19.0" type="move" name="blwm_matra"/>
    </contour>
    <contour>
      <point x="2083.55390961" y="1325.0" type="move" name="abvm_matra"/>
    </contour>
    <contour>
      <point x="1387.00849462" y="1600.0" type="move" name="abvm_latin"/>
    </contour>
    <contour>
      <point x="2097.16053125" y="1395.0" type="move" name="abvm_nasal"/>
    </contour>
    <contour>
      <point x="1077.94380309" y="10.0" type="move" name="blwm_rakar"/>
    </contour>
    <contour>
      <point x="1074.05619691" y="-10.0" type="move" name="blwm_mid"/>
    </contour>
    <contour>
      <point x="-4.47074711017" y="-23.0" type="move" name="blwm_nukta"/>
    </contour>
    <contour>
      <point x="2085.4977127" y="1335.0" type="move" name="abvm_reph"/>
    </contour>
  </outline>
</glyph>
<glyph name="dKa" format="1">
  <advance width="1622"/>
  <unicode hex="0915"/>
  <outline>
    <contour>
      <point x="1881" y="1330" type="line"/>
      <point x="223" y="1330" type="line"/>
      <point x="201" y="1307" type="line"/>
      <point x="221" y="1137" type="line"/>
      <point x="954" y="1137" type="line"/>
      <point x="899" y="853" type="line"/>
      <point x="815" y="951"/>
      <point x="715" y="987"/>
      <point x="618" y="987" type="curve" smooth="yes"/>
      <point x="405" y="987"/>
      <point x="220" y="820"/>
      <point x="220" y="600" type="curve" smooth="yes"/>
      <point x="220" y="371"/>
      <point x="419" y="179"/>
      <point x="635" y="179" type="curve" smooth="yes"/>
      <point x="671" y="179"/>
      <point x="719" y="184"/>
      <point x="771" y="198" type="curve"/>
      <point x="729" y="-21" type="line"/>
      <point x="940" y="-57" type="line"/>
      <point x="965" y="-39" type="line"/>
      <point x="1054" y="418" type="line" smooth="yes"/>
      <point x="1093" y="619"/>
      <point x="1238" y="735"/>
      <point x="1361" y="735" type="curve" smooth="yes"/>
      <point x="1416" y="735"/>
      <point x="1455" y="710"/>
      <point x="1455" y="647" type="curve" smooth="yes"/>
      <point x="1455" y="530"/>
      <point x="1322" y="347"/>
      <point x="1160" y="273" type="curve"/>
      <point x="1204" y="181"/>
      <point x="1279" y="140"/>
      <point x="1345" y="140" type="curve" smooth="yes"/>
      <point x="1475" y="140"/>
      <point x="1635" y="284"/>
      <point x="1635" y="542" type="curve" smooth="yes"/>
      <point x="1635" y="774"/>
      <point x="1484" y="926"/>
      <point x="1305" y="926" type="curve" smooth="yes"/>
      <point x="1247" y="926"/>
      <point x="1201" y="911"/>
      <point x="1143" y="875" type="curve"/>
      <point x="1194" y="1137" type="line"/>
      <point x="1879" y="1137" type="line"/>
      <point x="1900" y="1160" type="line"/>
    </contour>
    <contour>
      <point x="799" y="773"/>
      <point x="867" y="684"/>
      <point x="846" y="582" type="curve" smooth="yes"/>
      <point x="843" y="568" type="line" smooth="yes"/>
      <point x="818" y="450"/>
      <point x="700" y="368"/>
      <point x="590" y="368" type="curve" smooth="yes"/>
      <point x="496" y="368"/>
      <point x="429" y="432"/>
      <point x="429" y="529" type="curve" smooth="yes"/>
      <point x="429" y="661"/>
      <point x="545" y="773"/>
      <point x="681" y="773" type="curve" smooth="yes"/>
    </contour>
    <contour>
      <point x="967.306774126" y="-19.0" type="move" name="blwm_matra"/>
    </contour>
    <contour>
      <point x="1110.55390961" y="1325.0" type="move" name="abvm_matra"/>
    </contour>
    <contour>
      <point x="1122.00849462" y="1600.0" type="move" name="abvm_latin"/>
    </contour>
    <contour>
      <point x="1124.16053125" y="1395.0" type="move" name="abvm_nasal"/>
    </contour>
    <contour>
      <point x="796.943803091" y="10.0" type="move" name="blwm_rakar"/>
    </contour>
    <contour>
      <point x="809.056196909" y="-10.0" type="move" name="blwm_mid"/>
    </contour>
    <contour>
      <point x="420.52925289" y="-23.0" type="move" name="blwm_nukta"/>
    </contour>
    <contour>
      <point x="1112.4977127" y="1335.0" type="move" name="abvm_reph"/>
    </contour>
  </outline>
</glyph>
<glyph name="dGha" format="1">
  <advance width="1321"/>
  <unicode hex="0918"/>
  <outline>
    <contour>
      <point x="1580" y="1330" type="line"/>
      <point x="223" y="1330" type="line"/>
      <point x="201" y="1307" type="line"/>
      <point x="221" y="1137" type="line"/>
      <point x="331" y="1137" type="line"/>
      <point x="306" y="1093"/>
      <point x="294" y="1054"/>
      <point x="294" y="1009" type="curve" smooth="yes"/>
      <point x="294" y="915"/>
      <point x="342" y="808"/>
      <point x="445" y="726" type="curve"/>
      <point x="392" y="658"/>
      <point x="363" y="589"/>
      <point x="363" y="516" type="curve" smooth="yes"/>
      <point x="363" y="344"/>
      <point x="505" y="171"/>
      <point x="740" y="171" type="curve" smooth="yes"/>
      <point x="798" y="171"/>
      <point x="859" y="181"/>
      <point x="934" y="206" type="curve"/>
      <point x="890" y="-21" type="line"/>
      <point x="1101" y="-57" type="line"/>
      <point x="1126" y="-39" type="line"/>
      <point x="1355" y="1137" type="line"/>
      <point x="1578" y="1137" type="line"/>
      <point x="1599" y="1160" type="line"/>
    </contour>
    <contour>
      <point x="1115" y="1137" type="line"/>
      <point x="1014" y="630" type="line" smooth="yes"/>
      <point x="978" y="448"/>
      <point x="806" y="361"/>
      <point x="678" y="361" type="curve" smooth="yes"/>
      <point x="603" y="361"/>
      <point x="550" y="393"/>
      <point x="550" y="454" type="curve" smooth="yes"/>
      <point x="550" y="545"/>
      <point x="664" y="654"/>
      <point x="896" y="713" type="curve"/>
      <point x="909" y="740" type="line"/>
      <point x="764" y="918" type="line"/>
      <point x="684" y="900"/>
      <point x="612" y="867"/>
      <point x="550" y="824" type="curve"/>
      <point x="525" y="854"/>
      <point x="514" y="890"/>
      <point x="514" y="925" type="curve" smooth="yes"/>
      <point x="514" y="1030"/>
      <point x="619" y="1137"/>
      <point x="765" y="1137" type="curve" smooth="yes"/>
    </contour>
    <contour>
      <point x="1128.30677413" y="-19.0" type="move" name="blwm_matra"/>
    </contour>
    <contour>
      <point x="1271.55390961" y="1325.0" type="move" name="abvm_matra"/>
    </contour>
    <contour>
      <point x="971.00849462" y="1600.0" type="move" name="abvm_latin"/>
    </contour>
    <contour>
      <point x="1285.16053125" y="1395.0" type="move" name="abvm_nasal"/>
    </contour>
    <contour>
      <point x="975.943803091" y="10.0" type="move" name="blwm_rakar"/>
    </contour>
    <contour>
      <point x="537.056196909" y="-10.0" type="move" name="blwm_mid"/>
    </contour>
    <contour>
      <point x="583.52925289" y="-23.0" type="move" name="blwm_nukta"/>
    </contour>
    <contour>
      <point x="1273.4977127" y="1335.0" type="move" name="abvm_reph"/>
    </contour>
  </outline>
</glyph>
<glyph name="dNga" format="1">
  <advance width="1272"/>
  <unicode hex="0919"/>
  <outline>
    <contour>
      <point x="1531" y="1330" type="line"/>
      <point x="223" y="1330" type="line"/>
      <point x="201" y="1307" type="line"/>
      <point x="221" y="1137" type="line"/>
      <point x="909" y="1137" type="line"/>
      <point x="891" y="1046" type="line" smooth="yes"/>
      <point x="889" y="1033"/>
      <point x="880" y="1026"/>
      <point x="867" y="1026" type="curve" smooth="yes"/>
      <point x="556" y="1026" type="line" smooth="yes"/>
      <point x="397" y="1026"/>
      <point x="321" y="954"/>
      <point x="321" y="846" type="curve" smooth="yes"/>
      <point x="321" y="687"/>
      <point x="486" y="482"/>
      <point x="674" y="482" type="curve" smooth="yes"/>
      <point x="729" y="482"/>
      <point x="836" y="499"/>
      <point x="870" y="499" type="curve" smooth="yes"/>
      <point x="909" y="499"/>
      <point x="922" y="474"/>
      <point x="922" y="447" type="curve" smooth="yes"/>
      <point x="922" y="348"/>
      <point x="807" y="270"/>
      <point x="667" y="270" type="curve" smooth="yes"/>
      <point x="496" y="270"/>
      <point x="344" y="393"/>
      <point x="267" y="636" type="curve"/>
      <point x="215" y="617"/>
      <point x="174" y="584"/>
      <point x="174" y="519" type="curve" smooth="yes"/>
      <point x="174" y="375"/>
      <point x="348" y="39"/>
      <point x="702" y="39" type="curve" smooth="yes"/>
      <point x="921" y="39"/>
      <point x="1089" y="159"/>
      <point x="1089" y="381" type="curve" smooth="yes"/>
      <point x="1089" y="553"/>
      <point x="980" y="716"/>
      <point x="830" y="716" type="curve" smooth="yes"/>
      <point x="786" y="716"/>
      <point x="666" y="703"/>
      <point x="615" y="703" type="curve" smooth="yes"/>
      <point x="548" y="703"/>
      <point x="524" y="726"/>
      <point x="524" y="757" type="curve" smooth="yes"/>
      <point x="524" y="822"/>
      <point x="599" y="855"/>
      <point x="685" y="855" type="curve" smooth="yes"/>
      <point x="1068" y="855" type="line"/>
      <point x="1092" y="875" type="line"/>
      <point x="1143" y="1137" type="line"/>
      <point x="1529" y="1137" type="line"/>
      <point x="1550" y="1160" type="line"/>
    </contour>
    <contour>
      <point x="1160" y="853"/>
      <point x="1084" y="785"/>
      <point x="1084" y="708" type="curve" smooth="yes"/>
      <point x="1084" y="648"/>
      <point x="1127" y="601"/>
      <point x="1189" y="601" type="curve" smooth="yes"/>
      <point x="1266" y="601"/>
      <point x="1341" y="669"/>
      <point x="1341" y="747" type="curve" smooth="yes"/>
      <point x="1341" y="806"/>
      <point x="1299" y="853"/>
      <point x="1238" y="853" type="curve" smooth="yes"/>
    </contour>
    <contour>
      <point x="838.421476815" y="-75.0" type="move" name="blwm_matra"/>
    </contour>
    <contour>
      <point x="1059.55390961" y="1325.0" type="move" name="abvm_matra"/>
    </contour>
    <contour>
      <point x="947.00849462" y="1600.0" type="move" name="abvm_latin"/>
    </contour>
    <contour>
      <point x="1073.16053125" y="1395.0" type="move" name="abvm_nasal"/>
    </contour>
    <contour>
      <point x="682.559660215" y="-64.0" type="move" name="blwm_rakar"/>
    </contour>
    <contour>
      <point x="635.243650605" y="99.0" type="move" name="blwm_mid"/>
    </contour>
    <contour>
      <point x="629.8452625" y="-186.0" type="move" name="blwm_nukta"/>
    </contour>
    <contour>
      <point x="1061.4977127" y="1335.0" type="move" name="abvm_reph"/>
    </contour>
  </outline>
</glyph>
<glyph name="dCa" format="1">
  <advance width="1381"/>
  <unicode hex="091A"/>
  <outline>
    <contour>
      <point x="1640" y="1330" type="line"/>
      <point x="223" y="1330" type="line"/>
      <point x="201" y="1307" type="line"/>
      <point x="221" y="1137" type="line"/>
      <point x="1175" y="1137" type="line"/>
      <point x="1082" y="660" type="line" smooth="yes"/>
      <point x="1053" y="513"/>
      <point x="881" y="383"/>
      <point x="726" y="383" type="curve" smooth="yes"/>
      <point x="637" y="383"/>
      <point x="590" y="429"/>
      <point x="590" y="498" type="curve" smooth="yes"/>
      <point x="590" y="628"/>
      <point x="742" y="760"/>
      <point x="949" y="760" type="curve" smooth="yes"/>
      <point x="980" y="760" type="line"/>
      <point x="1001" y="783" type="line"/>
      <point x="981" y="953" type="line"/>
      <point x="267" y="953" type="line"/>
      <point x="246" y="930" type="line"/>
      <point x="266" y="760" type="line"/>
      <point x="464" y="760" type="line"/>
      <point x="409" y="679"/>
      <point x="392" y="633"/>
      <point x="392" y="563" type="curve" smooth="yes"/>
      <point x="392" y="379"/>
      <point x="543" y="201"/>
      <point x="787" y="201" type="curve" smooth="yes"/>
      <point x="849" y="201"/>
      <point x="920" y="212"/>
      <point x="1000" y="237" type="curve"/>
      <point x="950" y="-21" type="line"/>
      <point x="1161" y="-57" type="line"/>
      <point x="1186" y="-39" type="line"/>
      <point x="1415" y="1137" type="line"/>
      <point x="1638" y="1137" type="line"/>
      <point x="1659" y="1160" type="line"/>
    </contour>
    <contour>
      <point x="1188.30677413" y="-19.0" type="move" name="blwm_matra"/>
    </contour>
    <contour>
      <point x="1331.55390961" y="1325.0" type="move" name="abvm_matra"/>
    </contour>
    <contour>
      <point x="1001.00849462" y="1600.0" type="move" name="abvm_latin"/>
    </contour>
    <contour>
      <point x="1345.16053125" y="1395.0" type="move" name="abvm_nasal"/>
    </contour>
    <contour>
      <point x="1022.94380309" y="10.0" type="move" name="blwm_rakar"/>
    </contour>
    <contour>
      <point x="610.056196909" y="-10.0" type="move" name="blwm_mid"/>
    </contour>
    <contour>
      <point x="649.52925289" y="-23.0" type="move" name="blwm_nukta"/>
    </contour>
    <contour>
      <point x="1333.4977127" y="1335.0" type="move" name="abvm_reph"/>
    </contour>
  </outline>
</glyph>
<glyph name="dCha" format="1">
  <advance width="1431"/>
  <unicode hex="091B"/>
  <outline>
    <contour>
      <point x="1363" y="1137" type="line"/>
      <point x="1688" y="1137" type="line"/>
      <point x="1709" y="1160" type="line"/>
      <point x="1690" y="1330" type="line"/>
      <point x="223" y="1330" type="line"/>
      <point x="201" y="1307" type="line"/>
      <point x="221" y="1137" type="line"/>
      <point x="1143" y="1137" type="line"/>
      <point x="1125" y="1045" type="line"/>
      <point x="1018" y="1021"/>
      <point x="933" y="936"/>
      <point x="933" y="792" type="curve" smooth="yes"/>
      <point x="933" y="686"/>
      <point x="987" y="568"/>
      <point x="1109" y="452" type="curve"/>
      <point x="984" y="307"/>
      <point x="811" y="198"/>
      <point x="666" y="198" type="curve" smooth="yes"/>
      <point x="579" y="198"/>
      <point x="540" y="243"/>
      <point x="540" y="296" type="curve" smooth="yes"/>
      <point x="540" y="386"/>
      <point x="642" y="476"/>
      <point x="843" y="506" type="curve"/>
      <point x="857" y="532" type="line"/>
      <point x="724" y="708" type="line"/>
      <point x="644" y="701"/>
      <point x="571" y="675"/>
      <point x="513" y="638" type="curve"/>
      <point x="484" y="658"/>
      <point x="471" y="683"/>
      <point x="471" y="709" type="curve" smooth="yes"/>
      <point x="471" y="789"/>
      <point x="572" y="857"/>
      <point x="771" y="857" type="curve"/>
      <point x="745" y="1020"/>
      <point x="681" y="1057"/>
      <point x="585" y="1057" type="curve" smooth="yes"/>
      <point x="424" y="1057"/>
      <point x="274" y="957"/>
      <point x="274" y="794" type="curve" smooth="yes"/>
      <point x="274" y="699"/>
      <point x="326" y="604"/>
      <point x="413" y="551" type="curve"/>
      <point x="366" y="496"/>
      <point x="346" y="442"/>
      <point x="346" y="375" type="curve" smooth="yes"/>
      <point x="346" y="182"/>
      <point x="524" y="11"/>
      <point x="753" y="11" type="curve" smooth="yes"/>
      <point x="1102" y="11"/>
      <point x="1446" y="374"/>
      <point x="1446" y="707" type="curve" smooth="yes"/>
      <point x="1446" y="835"/>
      <point x="1397" y="935"/>
      <point x="1334" y="990" type="curve"/>
    </contour>
    <contour>
      <point x="1136" y="615"/>
      <point x="1116" y="670"/>
      <point x="1116" y="716" type="curve" smooth="yes"/>
      <point x="1116" y="799"/>
      <point x="1176" y="872"/>
      <point x="1239" y="872" type="curve" smooth="yes"/>
      <point x="1274" y="872"/>
      <point x="1285" y="844"/>
      <point x="1285" y="809" type="curve" smooth="yes"/>
      <point x="1285" y="740"/>
      <point x="1247" y="652"/>
      <point x="1189" y="560" type="curve"/>
    </contour>
    <contour>
      <point x="888.78444785" y="-104.0" type="move" name="blwm_matra"/>
    </contour>
    <contour>
      <point x="1279.55390961" y="1325.0" type="move" name="abvm_matra"/>
    </contour>
    <contour>
      <point x="1026.00849462" y="1600.0" type="move" name="abvm_latin"/>
    </contour>
    <contour>
      <point x="1293.16053125" y="1395.0" type="move" name="abvm_nasal"/>
    </contour>
    <contour>
      <point x="733.700152487" y="-89.0" type="move" name="blwm_rakar"/>
    </contour>
    <contour>
      <point x="782.494227822" y="90.0" type="move" name="blwm_mid"/>
    </contour>
    <contour>
      <point x="709.208233535" y="-215.0" type="move" name="blwm_nukta"/>
    </contour>
    <contour>
      <point x="1281.4977127" y="1335.0" type="move" name="abvm_reph"/>
    </contour>
  </outline>
</glyph>
<glyph name="dJha" format="1">
  <advance width="1560"/>
  <unicode hex="091D"/>
  <outline>
    <contour>
      <point x="1838" y="1160" type="line"/>
      <point x="1819" y="1330" type="line"/>
      <point x="223" y="1330" type="line"/>
      <point x="201" y="1307" type="line"/>
      <point x="221" y="1137" type="line"/>
      <point x="839" y="1137" type="line"/>
      <point x="821" y="1046" type="line" smooth="yes"/>
      <point x="819" y="1033"/>
      <point x="810" y="1026"/>
      <point x="797" y="1026" type="curve" smooth="yes"/>
      <point x="526" y="1026" type="line" smooth="yes"/>
      <point x="354" y="1026"/>
      <point x="271" y="949"/>
      <point x="271" y="846" type="curve" smooth="yes"/>
      <point x="271" y="700"/>
      <point x="422" y="492"/>
      <point x="610" y="492" type="curve" smooth="yes"/>
      <point x="679" y="492"/>
      <point x="775" y="524"/>
      <point x="815" y="524" type="curve" smooth="yes"/>
      <point x="835" y="524"/>
      <point x="850" y="517"/>
      <point x="850" y="493" type="curve" smooth="yes"/>
      <point x="850" y="421"/>
      <point x="735" y="332"/>
      <point x="524" y="330" type="curve"/>
      <point x="487" y="402"/>
      <point x="437" y="447"/>
      <point x="360" y="447" type="curve" smooth="yes"/>
      <point x="268" y="447"/>
      <point x="205" y="386"/>
      <point x="205" y="297" type="curve" smooth="yes"/>
      <point x="205" y="199"/>
      <point x="290" y="107"/>
      <point x="455" y="91" type="curve"/>
      <point x="499" y="-147"/>
      <point x="620" y="-233"/>
      <point x="733" y="-233" type="curve" smooth="yes"/>
      <point x="827" y="-233"/>
      <point x="902" y="-177"/>
      <point x="902" y="-95" type="curve" smooth="yes"/>
      <point x="902" y="-65"/>
      <point x="891" y="-30"/>
      <point x="873" y="3" type="curve"/>
      <point x="835" y="-7"/>
      <point x="798" y="-13"/>
      <point x="757" y="-13" type="curve" smooth="yes"/>
      <point x="678" y="-13"/>
      <point x="637" y="9"/>
      <point x="611" y="91" type="curve"/>
      <point x="905" y="114"/>
      <point x="1022" y="262"/>
      <point x="1022" y="409" type="curve" smooth="yes"/>
      <point x="1022" y="438"/>
      <point x="1018" y="477"/>
      <point x="1010" y="505" type="curve"/>
      <point x="1062" y="484"/>
      <point x="1116" y="473"/>
      <point x="1168" y="473" type="curve" smooth="yes"/>
      <point x="1188" y="473"/>
      <point x="1208" y="475"/>
      <point x="1225" y="478" type="curve"/>
      <point x="1128" y="-21" type="line"/>
      <point x="1339" y="-57" type="line"/>
      <point x="1364" y="-39" type="line"/>
      <point x="1593" y="1137" type="line"/>
      <point x="1817" y="1137" type="line"/>
    </contour>
    <contour>
      <point x="1353" y="1137" type="line"/>
      <point x="1301" y="867" type="line" smooth="yes"/>
      <point x="1274" y="730"/>
      <point x="1162" y="656"/>
      <point x="1035" y="656" type="curve" smooth="yes"/>
      <point x="996" y="656"/>
      <point x="952" y="663"/>
      <point x="906" y="681" type="curve"/>
      <point x="869" y="714"/>
      <point x="824" y="735"/>
      <point x="776" y="735" type="curve" smooth="yes"/>
      <point x="715" y="735"/>
      <point x="578" y="694"/>
      <point x="533" y="694" type="curve" smooth="yes"/>
      <point x="498" y="694"/>
      <point x="481" y="716"/>
      <point x="481" y="742" type="curve" smooth="yes"/>
      <point x="481" y="801"/>
      <point x="555" y="835"/>
      <point x="651" y="835" type="curve" smooth="yes"/>
      <point x="994" y="835" type="line"/>
      <point x="1018" y="855" type="line"/>
      <point x="1073" y="1137" type="line"/>
    </contour>
    <contour>
      <point x="1366.30677413" y="-19.0" type="move" name="blwm_matra"/>
    </contour>
    <contour>
      <point x="1509.55390961" y="1325.0" type="move" name="abvm_matra"/>
    </contour>
    <contour>
      <point x="1091.00849462" y="1600.0" type="move" name="abvm_latin"/>
    </contour>
    <contour>
      <point x="1523.16053125" y="1395.0" type="move" name="abvm_nasal"/>
    </contour>
    <contour>
      <point x="1283.94380309" y="10.0" type="move" name="blwm_rakar"/>
    </contour>
    <contour>
      <point x="778.056196909" y="-10.0" type="move" name="blwm_mid"/>
    </contour>
    <contour>
      <point x="256.866434342" y="-83.0" type="move" name="blwm_nukta"/>
    </contour>
    <contour>
      <point x="1511.4977127" y="1335.0" type="move" name="abvm_reph"/>
    </contour>
  </outline>
</glyph>
<glyph name="dNya" format="1">
  <advance width="1601"/>
  <unicode hex="091E"/>
  <outline>
    <contour>
      <point x="1860" y="1330" type="line"/>
      <point x="223" y="1330" type="line"/>
      <point x="201" y="1307" type="line"/>
      <point x="221" y="1137" type="line"/>
      <point x="1395" y="1137" type="line"/>
      <point x="1327" y="787" type="line" smooth="yes"/>
      <point x="1306" y="677"/>
      <point x="1222" y="646"/>
      <point x="1154" y="646" type="curve" smooth="yes"/>
      <point x="1137" y="646"/>
      <point x="1118" y="648"/>
      <point x="1100" y="655" type="curve"/>
      <point x="1066" y="848"/>
      <point x="909" y="994"/>
      <point x="729" y="994" type="curve" smooth="yes"/>
      <point x="584" y="994"/>
      <point x="491" y="903"/>
      <point x="491" y="816" type="curve" smooth="yes"/>
      <point x="491" y="754"/>
      <point x="534" y="683"/>
      <point x="641" y="663" type="curve"/>
      <point x="693" y="729"/>
      <point x="754" y="767"/>
      <point x="825" y="767" type="curve" smooth="yes"/>
      <point x="885" y="767"/>
      <point x="922" y="737"/>
      <point x="922" y="665" type="curve" smooth="yes"/>
      <point x="922" y="525"/>
      <point x="805" y="367"/>
      <point x="620" y="367" type="curve" smooth="yes"/>
      <point x="441" y="367"/>
      <point x="342" y="523"/>
      <point x="350" y="860" type="curve"/>
      <point x="261" y="860"/>
      <point x="207" y="817"/>
      <point x="207" y="668" type="curve" smooth="yes"/>
      <point x="207" y="457"/>
      <point x="337" y="145"/>
      <point x="668" y="145" type="curve" smooth="yes"/>
      <point x="908" y="145"/>
      <point x="1052" y="297"/>
      <point x="1096" y="486" type="curve"/>
      <point x="1142" y="447"/>
      <point x="1192" y="423"/>
      <point x="1253" y="423" type="curve" smooth="yes"/>
      <point x="1256" y="423" type="line"/>
      <point x="1170" y="-21" type="line"/>
      <point x="1381" y="-57" type="line"/>
      <point x="1406" y="-39" type="line"/>
      <point x="1635" y="1137" type="line"/>
      <point x="1858" y="1137" type="line"/>
      <point x="1879" y="1160" type="line"/>
    </contour>
    <contour>
      <point x="1408.30677413" y="-19.0" type="move" name="blwm_matra"/>
    </contour>
    <contour>
      <point x="1551.55390961" y="1325.0" type="move" name="abvm_matra"/>
    </contour>
    <contour>
      <point x="1111.00849462" y="1600.0" type="move" name="abvm_latin"/>
    </contour>
    <contour>
      <point x="1565.16053125" y="1395.0" type="move" name="abvm_nasal"/>
    </contour>
    <contour>
      <point x="1242.94380309" y="10.0" type="move" name="blwm_rakar"/>
    </contour>
    <contour>
      <point x="798.056196909" y="-10.0" type="move" name="blwm_mid"/>
    </contour>
    <contour>
      <point x="524.810237433" y="-73.0" type="move" name="blwm_nukta"/>
    </contour>
    <contour>
      <point x="1553.4977127" y="1335.0" type="move" name="abvm_reph"/>
    </contour>
  </outline>
</glyph>
<glyph name="dTta" format="1">
  <advance width="1068"/>
  <unicode hex="091F"/>
  <outline>
    <contour>
      <point x="1327" y="1330" type="line"/>
      <point x="223" y="1330" type="line"/>
      <point x="201" y="1307" type="line"/>
      <point x="221" y="1137" type="line"/>
      <point x="859" y="1137" type="line"/>
      <point x="830" y="987" type="line" smooth="yes"/>
      <point x="827" y="974"/>
      <point x="819" y="967"/>
      <point x="806" y="967" type="curve" smooth="yes"/>
      <point x="695" y="967" type="line" smooth="yes"/>
      <point x="364" y="967"/>
      <point x="157" y="769"/>
      <point x="157" y="518" type="curve" smooth="yes"/>
      <point x="157" y="260"/>
      <point x="380" y="31"/>
      <point x="661" y="31" type="curve" smooth="yes"/>
      <point x="876" y="31"/>
      <point x="1059" y="154"/>
      <point x="1059" y="284" type="curve" smooth="yes"/>
      <point x="1059" y="357"/>
      <point x="1003" y="418"/>
      <point x="936" y="435" type="curve"/>
      <point x="863" y="316"/>
      <point x="707" y="232"/>
      <point x="568" y="232" type="curve" smooth="yes"/>
      <point x="447" y="232"/>
      <point x="363" y="299"/>
      <point x="363" y="419" type="curve" smooth="yes"/>
      <point x="363" y="603"/>
      <point x="535" y="759"/>
      <point x="791" y="759" type="curve" smooth="yes"/>
      <point x="1000" y="759" type="line"/>
      <point x="1023" y="779" type="line"/>
      <point x="1093" y="1137" type="line"/>
      <point x="1325" y="1137" type="line"/>
      <point x="1346" y="1160" type="line"/>
    </contour>
    <contour>
      <point x="797.672054032" y="-84.0" type="move" name="blwm_matra"/>
    </contour>
    <contour>
      <point x="1009.55390961" y="1325.0" type="move" name="abvm_matra"/>
    </contour>
    <contour>
      <point x="845.00849462" y="1600.0" type="move" name="abvm_latin"/>
    </contour>
    <contour>
      <point x="1023.16053125" y="1395.0" type="move" name="abvm_nasal"/>
    </contour>
    <contour>
      <point x="640.39337836" y="-70.0" type="move" name="blwm_rakar"/>
    </contour>
    <contour>
      <point x="618.60662164" y="70.0" type="move" name="blwm_mid"/>
    </contour>
    <contour>
      <point x="571.262121573" y="-189.0" type="move" name="blwm_nukta"/>
    </contour>
    <contour>
      <point x="1011.4977127" y="1335.0" type="move" name="abvm_reph"/>
    </contour>
  </outline>
</glyph>
<glyph name="dTtha" format="1">
  <advance width="1198"/>
  <unicode hex="0920"/>
  <outline>
    <contour>
      <point x="1457" y="1330" type="line"/>
      <point x="223" y="1330" type="line"/>
      <point x="201" y="1307" type="line"/>
      <point x="221" y="1137" type="line"/>
      <point x="839" y="1137" type="line"/>
      <point x="810" y="986" type="line" smooth="yes"/>
      <point x="807" y="973"/>
      <point x="799" y="966"/>
      <point x="786" y="966" type="curve" smooth="yes"/>
      <point x="681" y="966" type="line" smooth="yes"/>
      <point x="378" y="966"/>
      <point x="171" y="762"/>
      <point x="171" y="504" type="curve" smooth="yes"/>
      <point x="171" y="240"/>
      <point x="394" y="21"/>
      <point x="674" y="21" type="curve" smooth="yes"/>
      <point x="958" y="21"/>
      <point x="1184" y="222"/>
      <point x="1184" y="485" type="curve" smooth="yes"/>
      <point x="1184" y="626"/>
      <point x="1118" y="759"/>
      <point x="1016" y="846" type="curve"/>
      <point x="1073" y="1137" type="line"/>
      <point x="1455" y="1137" type="line"/>
      <point x="1476" y="1160" type="line"/>
    </contour>
    <contour>
      <point x="886" y="757"/>
      <point x="980" y="695"/>
      <point x="980" y="569" type="curve" smooth="yes"/>
      <point x="980" y="376"/>
      <point x="779" y="212"/>
      <point x="587" y="212" type="curve" smooth="yes"/>
      <point x="467" y="212"/>
      <point x="372" y="284"/>
      <point x="372" y="413" type="curve" smooth="yes"/>
      <point x="372" y="601"/>
      <point x="560" y="765"/>
      <point x="769" y="760" type="curve" smooth="yes"/>
    </contour>
    <contour>
      <point x="809.92263125" y="-93.0" type="move" name="blwm_matra"/>
    </contour>
    <contour>
      <point x="989.553909607" y="1325.0" type="move" name="abvm_matra"/>
    </contour>
    <contour>
      <point x="910.00849462" y="1600.0" type="move" name="abvm_latin"/>
    </contour>
    <contour>
      <point x="1003.16053125" y="1395.0" type="move" name="abvm_nasal"/>
    </contour>
    <contour>
      <point x="654.449575269" y="-80.0" type="move" name="blwm_rakar"/>
    </contour>
    <contour>
      <point x="634.550424731" y="80.0" type="move" name="blwm_mid"/>
    </contour>
    <contour>
      <point x="559.568895699" y="-208.0" type="move" name="blwm_nukta"/>
    </contour>
    <contour>
      <point x="991.497712699" y="1335.0" type="move" name="abvm_reph"/>
    </contour>
  </outline>
</glyph>
<glyph name="dDda" format="1">
  <advance width="1112"/>
  <unicode hex="0921"/>
  <outline>
    <contour>
      <point x="1371" y="1330" type="line"/>
      <point x="223" y="1330" type="line"/>
      <point x="201" y="1307" type="line"/>
      <point x="221" y="1137" type="line"/>
      <point x="929" y="1137" type="line"/>
      <point x="911" y="1046" type="line" smooth="yes"/>
      <point x="909" y="1033"/>
      <point x="900" y="1026"/>
      <point x="887" y="1026" type="curve" smooth="yes"/>
      <point x="556" y="1026" type="line" smooth="yes"/>
      <point x="397" y="1026"/>
      <point x="321" y="954"/>
      <point x="321" y="846" type="curve" smooth="yes"/>
      <point x="321" y="687"/>
      <point x="486" y="482"/>
      <point x="674" y="482" type="curve" smooth="yes"/>
      <point x="729" y="482"/>
      <point x="836" y="499"/>
      <point x="870" y="499" type="curve" smooth="yes"/>
      <point x="909" y="499"/>
      <point x="922" y="474"/>
      <point x="922" y="447" type="curve" smooth="yes"/>
      <point x="922" y="348"/>
      <point x="807" y="270"/>
      <point x="667" y="270" type="curve" smooth="yes"/>
      <point x="496" y="270"/>
      <point x="344" y="393"/>
      <point x="267" y="636" type="curve"/>
      <point x="215" y="617"/>
      <point x="174" y="584"/>
      <point x="174" y="519" type="curve" smooth="yes"/>
      <point x="174" y="375"/>
      <point x="348" y="39"/>
      <point x="702" y="39" type="curve" smooth="yes"/>
      <point x="921" y="39"/>
      <point x="1089" y="159"/>
      <point x="1089" y="381" type="curve" smooth="yes"/>
      <point x="1089" y="553"/>
      <point x="980" y="716"/>
      <point x="830" y="716" type="curve" smooth="yes"/>
      <point x="786" y="716"/>
      <point x="666" y="703"/>
      <point x="615" y="703" type="curve" smooth="yes"/>
      <point x="548" y="703"/>
      <point x="524" y="726"/>
      <point x="524" y="757" type="curve" smooth="yes"/>
      <point x="524" y="822"/>
      <point x="599" y="855"/>
      <point x="685" y="855" type="curve" smooth="yes"/>
      <point x="1088" y="855" type="line"/>
      <point x="1112" y="875" type="line"/>
      <point x="1163" y="1137" type="line"/>
      <point x="1369" y="1137" type="line"/>
      <point x="1390" y="1160" type="line"/>
    </contour>
    <contour>
      <point x="838.615857124" y="-74.0" type="move" name="blwm_matra"/>
    </contour>
    <contour>
      <point x="1079.55390961" y="1325.0" type="move" name="abvm_matra"/>
    </contour>
    <contour>
      <point x="867.00849462" y="1600.0" type="move" name="abvm_latin"/>
    </contour>
    <contour>
      <point x="1093.16053125" y="1395.0" type="move" name="abvm_nasal"/>
    </contour>
    <contour>
      <point x="682.531561761" y="-59.0" type="move" name="blwm_rakar"/>
    </contour>
    <contour>
      <point x="653.494227822" y="90.0" type="move" name="blwm_mid"/>
    </contour>
    <contour>
      <point x="607.428403428" y="-183.0" type="move" name="blwm_nukta"/>
    </contour>
    <contour>
      <point x="1081.4977127" y="1335.0" type="move" name="abvm_reph"/>
    </contour>
  </outline>
</glyph>
<glyph name="dDdha" format="1">
  <advance width="1088"/>
  <unicode hex="0922"/>
  <outline>
    <contour>
      <point x="1347" y="1330" type="line"/>
      <point x="223" y="1330" type="line"/>
      <point x="201" y="1307" type="line"/>
      <point x="221" y="1137" type="line"/>
      <point x="859" y="1137" type="line"/>
      <point x="832" y="996" type="line" smooth="yes"/>
      <point x="829" y="983"/>
      <point x="821" y="976"/>
      <point x="808" y="976" type="curve" smooth="yes"/>
      <point x="702" y="976" type="line" smooth="yes"/>
      <point x="370" y="976"/>
      <point x="162" y="773"/>
      <point x="162" y="511" type="curve" smooth="yes"/>
      <point x="162" y="236"/>
      <point x="396" y="1"/>
      <point x="664" y="1" type="curve" smooth="yes"/>
      <point x="896" y="1"/>
      <point x="1086" y="161"/>
      <point x="1086" y="347" type="curve" smooth="yes"/>
      <point x="1086" y="490"/>
      <point x="975" y="645"/>
      <point x="823" y="645" type="curve" smooth="yes"/>
      <point x="700" y="645"/>
      <point x="592" y="555"/>
      <point x="592" y="411" type="curve" smooth="yes"/>
      <point x="592" y="335"/>
      <point x="624" y="262"/>
      <point x="672" y="204" type="curve"/>
      <point x="641" y="196"/>
      <point x="610" y="192"/>
      <point x="579" y="192" type="curve" smooth="yes"/>
      <point x="451" y="192"/>
      <point x="363" y="272"/>
      <point x="363" y="410" type="curve" smooth="yes"/>
      <point x="363" y="606"/>
      <point x="535" y="769"/>
      <point x="792" y="769" type="curve" smooth="yes"/>
      <point x="1001" y="769" type="line"/>
      <point x="1025" y="789" type="line"/>
      <point x="1093" y="1137" type="line"/>
      <point x="1345" y="1137" type="line"/>
      <point x="1366" y="1160" type="line"/>
    </contour>
    <contour>
      <point x="919" y="481"/>
      <point x="935" y="464"/>
      <point x="935" y="437" type="curve" smooth="yes"/>
      <point x="935" y="373"/>
      <point x="872" y="300"/>
      <point x="785" y="250" type="curve"/>
      <point x="776" y="274"/>
      <point x="772" y="302"/>
      <point x="772" y="325" type="curve" smooth="yes"/>
      <point x="772" y="412"/>
      <point x="836" y="481"/>
      <point x="894" y="481" type="curve" smooth="yes"/>
    </contour>
    <contour>
      <point x="800.423785686" y="-111.0" type="move" name="blwm_matra"/>
    </contour>
    <contour>
      <point x="1009.55390961" y="1325.0" type="move" name="abvm_matra"/>
    </contour>
    <contour>
      <point x="855.00849462" y="1600.0" type="move" name="abvm_latin"/>
    </contour>
    <contour>
      <point x="1023.16053125" y="1395.0" type="move" name="abvm_nasal"/>
    </contour>
    <contour>
      <point x="643.756349395" y="-99.0" type="move" name="blwm_rakar"/>
    </contour>
    <contour>
      <point x="615.662818548" y="60.0" type="move" name="blwm_mid"/>
    </contour>
    <contour>
      <point x="588.653191062" y="-223.0" type="move" name="blwm_nukta"/>
    </contour>
    <contour>
      <point x="1011.4977127" y="1335.0" type="move" name="abvm_reph"/>
    </contour>
  </outline>
</glyph>
<glyph name="dNna" format="1">
  <advance width="1471"/>
  <unicode hex="0923"/>
  <outline>
    <contour>
      <point x="1730" y="1330" type="line"/>
      <point x="223" y="1330" type="line"/>
      <point x="201" y="1307" type="line"/>
      <point x="221" y="1137" type="line"/>
      <point x="350" y="1137" type="line"/>
      <point x="276" y="755" type="line" smooth="yes"/>
      <point x="230" y="516"/>
      <point x="405" y="311"/>
      <point x="627" y="311" type="curve" smooth="yes"/>
      <point x="796" y="311"/>
      <point x="952" y="428"/>
      <point x="984" y="591" type="curve" smooth="yes"/>
      <point x="1090" y="1137" type="line"/>
      <point x="1275" y="1137" type="line"/>
      <point x="1050" y="-21" type="line"/>
      <point x="1251" y="-57" type="line"/>
      <point x="1276" y="-39" type="line"/>
      <point x="1505" y="1137" type="line"/>
      <point x="1728" y="1137" type="line"/>
      <point x="1749" y="1160" type="line"/>
    </contour>
    <contour>
      <point x="875" y="1137" type="line"/>
      <point x="790" y="700" type="line" smooth="yes"/>
      <point x="764" y="567"/>
      <point x="678" y="493"/>
      <point x="582" y="493" type="curve" smooth="yes"/>
      <point x="505" y="493"/>
      <point x="454" y="542"/>
      <point x="471" y="630" type="curve" smooth="yes"/>
      <point x="570" y="1137" type="line"/>
    </contour>
    <contour>
      <point x="1278.30677413" y="-19.0" type="move" name="blwm_matra"/>
    </contour>
    <contour>
      <point x="1421.55390961" y="1325.0" type="move" name="abvm_matra"/>
    </contour>
    <contour>
      <point x="1046.00849462" y="1600.0" type="move" name="abvm_latin"/>
    </contour>
    <contour>
      <point x="1435.16053125" y="1395.0" type="move" name="abvm_nasal"/>
    </contour>
    <contour>
      <point x="1114.94380309" y="10.0" type="move" name="blwm_rakar"/>
    </contour>
    <contour>
      <point x="664.056196909" y="-10.0" type="move" name="blwm_mid"/>
    </contour>
    <contour>
      <point x="523.967283804" y="77.0" type="move" name="blwm_nukta"/>
    </contour>
    <contour>
      <point x="1423.4977127" y="1335.0" type="move" name="abvm_reph"/>
    </contour>
  </outline>
</glyph>
<glyph name="dTa" format="1">
  <advance width="1271"/>
  <unicode hex="0924"/>
  <outline>
    <contour>
      <point x="1528" y="1137" type="line"/>
      <point x="1549" y="1160" type="line"/>
      <point x="1530" y="1330" type="line"/>
      <point x="223" y="1330" type="line"/>
      <point x="201" y="1307" type="line"/>
      <point x="221" y="1137" type="line"/>
      <point x="1065" y="1137" type="line"/>
      <point x="1023" y="923" type="line"/>
      <point x="565" y="923" type="line" smooth="yes"/>
      <point x="340" y="923"/>
      <point x="217" y="767"/>
      <point x="217" y="532" type="curve" smooth="yes"/>
      <point x="217" y="245"/>
      <point x="401" y="-68"/>
      <point x="543" y="-68" type="curve" smooth="yes"/>
      <point x="580" y="-68"/>
      <point x="614" y="-47"/>
      <point x="631" y="-10" type="curve"/>
      <point x="499" y="118"/>
      <point x="426" y="294"/>
      <point x="426" y="441" type="curve" smooth="yes"/>
      <point x="426" y="583"/>
      <point x="493" y="718"/>
      <point x="678" y="718" type="curve" smooth="yes"/>
      <point x="984" y="718" type="line"/>
      <point x="840" y="-21" type="line"/>
      <point x="1051" y="-57" type="line"/>
      <point x="1076" y="-39" type="line"/>
      <point x="1305" y="1137" type="line"/>
    </contour>
    <contour>
      <point x="1078.30677413" y="-19.0" type="move" name="blwm_matra"/>
    </contour>
    <contour>
      <point x="1221.55390961" y="1325.0" type="move" name="abvm_matra"/>
    </contour>
    <contour>
      <point x="946.00849462" y="1600.0" type="move" name="abvm_latin"/>
    </contour>
    <contour>
      <point x="1235.16053125" y="1395.0" type="move" name="abvm_nasal"/>
    </contour>
    <contour>
      <point x="968.943803091" y="10.0" type="move" name="blwm_rakar"/>
    </contour>
    <contour>
      <point x="509.056196909" y="-10.0" type="move" name="blwm_mid"/>
    </contour>
    <contour>
      <point x="109.0" y="0.0" type="move" name="blwm_nukta"/>
    </contour>
    <contour>
      <point x="1223.4977127" y="1335.0" type="move" name="abvm_reph"/>
    </contour>
  </outline>
</glyph>
<glyph name="dTha" format="1">
  <advance width="1401"/>
  <unicode hex="0925"/>
  <outline>
    <contour>
      <point x="434" y="1387"/>
      <point x="303" y="1300"/>
      <point x="303" y="1142" type="curve" smooth="yes"/>
      <point x="303" y="996"/>
      <point x="428" y="886"/>
      <point x="531" y="886" type="curve" smooth="yes"/>
      <point x="584" y="886"/>
      <point x="620" y="913"/>
      <point x="640" y="932" type="curve"/>
      <point x="552" y="964"/>
      <point x="517" y="1015"/>
      <point x="517" y="1067" type="curve" smooth="yes"/>
      <point x="517" y="1145"/>
      <point x="587" y="1200"/>
      <point x="668" y="1200" type="curve" smooth="yes"/>
      <point x="730" y="1200"/>
      <point x="757" y="1161"/>
      <point x="757" y="1101" type="curve" smooth="yes"/>
      <point x="757" y="935"/>
      <point x="621" y="802"/>
      <point x="302" y="714" type="curve"/>
      <point x="285" y="688" type="line"/>
      <point x="395" y="343"/>
      <point x="630" y="181"/>
      <point x="863" y="181" type="curve" smooth="yes"/>
      <point x="911" y="181"/>
      <point x="954" y="188"/>
      <point x="1015" y="210" type="curve"/>
      <point x="970" y="-21" type="line"/>
      <point x="1180" y="-57" type="line"/>
      <point x="1205" y="-39" type="line"/>
      <point x="1435" y="1137" type="line"/>
      <point x="1658" y="1137" type="line"/>
      <point x="1679" y="1160" type="line"/>
      <point x="1660" y="1330" type="line"/>
      <point x="1023" y="1330" type="line"/>
      <point x="1001" y="1307" type="line"/>
      <point x="1021" y="1137" type="line"/>
      <point x="1195" y="1137" type="line"/>
      <point x="1106" y="680" type="line" smooth="yes"/>
      <point x="1073" y="512"/>
      <point x="916" y="401"/>
      <point x="752" y="401" type="curve" smooth="yes"/>
      <point x="650" y="401"/>
      <point x="569" y="444"/>
      <point x="517" y="529" type="curve"/>
      <point x="812" y="627"/>
      <point x="952" y="785"/>
      <point x="952" y="987" type="curve" smooth="yes"/>
      <point x="952" y="1200"/>
      <point x="787" y="1387"/>
      <point x="583" y="1387" type="curve" smooth="yes"/>
    </contour>
    <contour>
      <point x="1207.30677413" y="-19.0" type="move" name="blwm_matra"/>
    </contour>
    <contour>
      <point x="1350.55390961" y="1325.0" type="move" name="abvm_matra"/>
    </contour>
    <contour>
      <point x="1011.00849462" y="1600.0" type="move" name="abvm_latin"/>
    </contour>
    <contour>
      <point x="1364.16053125" y="1395.0" type="move" name="abvm_nasal"/>
    </contour>
    <contour>
      <point x="1040.94380309" y="10.0" type="move" name="blwm_rakar"/>
    </contour>
    <contour>
      <point x="640.056196909" y="-10.0" type="move" name="blwm_mid"/>
    </contour>
    <contour>
      <point x="427.967283804" y="77.0" type="move" name="blwm_nukta"/>
    </contour>
    <contour>
      <point x="1352.4977127" y="1335.0" type="move" name="abvm_reph"/>
    </contour>
  </outline>
</glyph>
<glyph name="dDa" format="1">
  <advance width="1088"/>
  <unicode hex="0926"/>
  <outline>
    <contour>
      <point x="1000" y="759" type="line"/>
      <point x="1023" y="779" type="line"/>
      <point x="1093" y="1137" type="line"/>
      <point x="1345" y="1137" type="line"/>
      <point x="1366" y="1160" type="line"/>
      <point x="1347" y="1330" type="line"/>
      <point x="223" y="1330" type="line"/>
      <point x="201" y="1307" type="line"/>
      <point x="221" y="1137" type="line"/>
      <point x="859" y="1137" type="line"/>
      <point x="830" y="986" type="line" smooth="yes"/>
      <point x="827" y="973"/>
      <point x="819" y="966"/>
      <point x="806" y="966" type="curve" smooth="yes"/>
      <point x="700" y="966" type="line" smooth="yes"/>
      <point x="332" y="966"/>
      <point x="161" y="746"/>
      <point x="161" y="508" type="curve" smooth="yes"/>
      <point x="161" y="248"/>
      <point x="374" y="31"/>
      <point x="651" y="31" type="curve" smooth="yes"/>
      <point x="729" y="31"/>
      <point x="793" y="47"/>
      <point x="846" y="69" type="curve"/>
      <point x="859" y="45"/>
      <point x="864" y="23"/>
      <point x="864" y="4" type="curve" smooth="yes"/>
      <point x="864" y="-67"/>
      <point x="821" y="-101"/>
      <point x="710" y="-128" type="curve"/>
      <point x="712" y="-227"/>
      <point x="760" y="-292"/>
      <point x="846" y="-292" type="curve" smooth="yes"/>
      <point x="946" y="-292"/>
      <point x="1034" y="-208"/>
      <point x="1034" y="-109" type="curve" smooth="yes"/>
      <point x="1034" y="-55"/>
      <point x="1012" y="28"/>
      <point x="950" y="133" type="curve"/>
      <point x="1001" y="178"/>
      <point x="1043" y="239"/>
      <point x="1043" y="312" type="curve" smooth="yes"/>
      <point x="1043" y="408"/>
      <point x="977" y="499"/>
      <point x="871" y="499" type="curve" smooth="yes"/>
      <point x="770" y="499"/>
      <point x="697" y="425"/>
      <point x="697" y="342" type="curve" smooth="yes"/>
      <point x="697" y="313"/>
      <point x="706" y="282"/>
      <point x="725" y="253" type="curve"/>
      <point x="674" y="232"/>
      <point x="612" y="219"/>
      <point x="561" y="219" type="curve" smooth="yes"/>
      <point x="446" y="219"/>
      <point x="362" y="289"/>
      <point x="362" y="412" type="curve" smooth="yes"/>
      <point x="362" y="603"/>
      <point x="532" y="759"/>
      <point x="791" y="759" type="curve" smooth="yes"/>
    </contour>
    <contour>
      <point x="989.426094557" y="-147.0" type="move" name="blwm_matra"/>
    </contour>
    <contour>
      <point x="1009.55390961" y="1325.0" type="move" name="abvm_matra"/>
    </contour>
    <contour>
      <point x="855.00849462" y="1600.0" type="move" name="abvm_latin"/>
    </contour>
    <contour>
      <point x="1023.16053125" y="1395.0" type="move" name="abvm_nasal"/>
    </contour>
    <contour>
      <point x="845.536179503" y="-131.0" type="move" name="blwm_rakar"/>
    </contour>
    <contour>
      <point x="573.37451539" y="-209.0" type="move" name="blwm_mid"/>
    </contour>
    <contour>
      <point x="472.428403428" y="-183.0" type="move" name="blwm_nukta"/>
    </contour>
    <contour>
      <point x="1011.4977127" y="1335.0" type="move" name="abvm_reph"/>
    </contour>
  </outline>
</glyph>
<glyph name="dDha" format="1">
  <advance width="1325"/>
  <unicode hex="0927"/>
  <outline>
    <contour>
      <point x="1603" y="1160" type="line"/>
      <point x="1584" y="1330" type="line"/>
      <point x="947" y="1330" type="line"/>
      <point x="925" y="1307" type="line"/>
      <point x="945" y="1137" type="line"/>
      <point x="1119" y="1137" type="line"/>
      <point x="1017" y="610" type="line" smooth="yes"/>
      <point x="988" y="461"/>
      <point x="824" y="351"/>
      <point x="675" y="351" type="curve" smooth="yes"/>
      <point x="591" y="351"/>
      <point x="544" y="389"/>
      <point x="544" y="449" type="curve" smooth="yes"/>
      <point x="544" y="550"/>
      <point x="675" y="677"/>
      <point x="897" y="715" type="curve"/>
      <point x="912" y="741" type="line"/>
      <point x="768" y="918" type="line"/>
      <point x="694" y="910"/>
      <point x="624" y="887"/>
      <point x="565" y="852" type="curve"/>
      <point x="510" y="905"/>
      <point x="487" y="965"/>
      <point x="487" y="1020" type="curve" smooth="yes"/>
      <point x="487" y="1115"/>
      <point x="554" y="1189"/>
      <point x="626" y="1189" type="curve" smooth="yes"/>
      <point x="687" y="1189"/>
      <point x="713" y="1131"/>
      <point x="695" y="1037" type="curve"/>
      <point x="743" y="1037"/>
      <point x="807" y="1070"/>
      <point x="807" y="1174" type="curve" smooth="yes"/>
      <point x="807" y="1282"/>
      <point x="723" y="1387"/>
      <point x="572" y="1387" type="curve" smooth="yes"/>
      <point x="392" y="1387"/>
      <point x="267" y="1257"/>
      <point x="267" y="1099" type="curve" smooth="yes"/>
      <point x="267" y="978"/>
      <point x="338" y="852"/>
      <point x="451" y="765" type="curve"/>
      <point x="387" y="692"/>
      <point x="349" y="613"/>
      <point x="349" y="523" type="curve" smooth="yes"/>
      <point x="349" y="323"/>
      <point x="530" y="161"/>
      <point x="770" y="161" type="curve" smooth="yes"/>
      <point x="825" y="161"/>
      <point x="882" y="169"/>
      <point x="935" y="188" type="curve"/>
      <point x="894" y="-21" type="line"/>
      <point x="1105" y="-57" type="line"/>
      <point x="1130" y="-39" type="line"/>
      <point x="1359" y="1137" type="line"/>
      <point x="1582" y="1137" type="line"/>
    </contour>
    <contour>
      <point x="1132.30677413" y="-19.0" type="move" name="blwm_matra"/>
    </contour>
    <contour>
      <point x="1275.55390961" y="1325.0" type="move" name="abvm_matra"/>
    </contour>
    <contour>
      <point x="973.00849462" y="1600.0" type="move" name="abvm_latin"/>
    </contour>
    <contour>
      <point x="1289.16053125" y="1395.0" type="move" name="abvm_nasal"/>
    </contour>
    <contour>
      <point x="964.943803091" y="10.0" type="move" name="blwm_rakar"/>
    </contour>
    <contour>
      <point x="549.056196909" y="-10.0" type="move" name="blwm_mid"/>
    </contour>
    <contour>
      <point x="599.52925289" y="-23.0" type="move" name="blwm_nukta"/>
    </contour>
    <contour>
      <point x="1277.4977127" y="1335.0" type="move" name="abvm_reph"/>
    </contour>
  </outline>
</glyph>
<glyph name="dNa" format="1">
  <advance width="1181"/>
  <unicode hex="0928"/>
  <outline>
    <contour>
      <point x="1440" y="1330" type="line"/>
      <point x="223" y="1330" type="line"/>
      <point x="201" y="1307" type="line"/>
      <point x="221" y="1137" type="line"/>
      <point x="975" y="1137" type="line"/>
      <point x="922" y="863" type="line"/>
      <point x="404" y="863" type="line" smooth="yes"/>
      <point x="294" y="863"/>
      <point x="191" y="846"/>
      <point x="191" y="744" type="curve" smooth="yes"/>
      <point x="191" y="615"/>
      <point x="355" y="424"/>
      <point x="446" y="424" type="curve" smooth="yes"/>
      <point x="479" y="424"/>
      <point x="515" y="447"/>
      <point x="526" y="503" type="curve" smooth="yes"/>
      <point x="556" y="658" type="line"/>
      <point x="882" y="658" type="line"/>
      <point x="750" y="-21" type="line"/>
      <point x="961" y="-57" type="line"/>
      <point x="986" y="-39" type="line"/>
      <point x="1215" y="1137" type="line"/>
      <point x="1438" y="1137" type="line"/>
      <point x="1459" y="1160" type="line"/>
    </contour>
    <contour>
      <point x="988.306774126" y="-19.0" type="move" name="blwm_matra"/>
    </contour>
    <contour>
      <point x="1131.55390961" y="1325.0" type="move" name="abvm_matra"/>
    </contour>
    <contour>
      <point x="901.00849462" y="1600.0" type="move" name="abvm_latin"/>
    </contour>
    <contour>
      <point x="1145.16053125" y="1395.0" type="move" name="abvm_nasal"/>
    </contour>
    <contour>
      <point x="827.943803091" y="10.0" type="move" name="blwm_rakar"/>
    </contour>
    <contour>
      <point x="424.056196909" y="-10.0" type="move" name="blwm_mid"/>
    </contour>
    <contour>
      <point x="443.967283804" y="77.0" type="move" name="blwm_nukta"/>
    </contour>
    <contour>
      <point x="1133.4977127" y="1335.0" type="move" name="abvm_reph"/>
    </contour>
  </outline>
</glyph>
<glyph name="dNnna" format="1">
  <advance width="1181"/>
  <unicode hex="0929"/>
  <outline>
    <contour>
      <point x="1440" y="1330" type="line"/>
      <point x="223" y="1330" type="line"/>
      <point x="201" y="1307" type="line"/>
      <point x="221" y="1137" type="line"/>
      <point x="975" y="1137" type="line"/>
      <point x="922" y="863" type="line"/>
      <point x="404" y="863" type="line" smooth="yes"/>
      <point x="294" y="863"/>
      <point x="191" y="846"/>
      <point x="191" y="744" type="curve" smooth="yes"/>
      <point x="191" y="615"/>
      <point x="355" y="424"/>
      <point x="446" y="424" type="curve" smooth="yes"/>
      <point x="479" y="424"/>
      <point x="515" y="447"/>
      <point x="526" y="503" type="curve" smooth="yes"/>
      <point x="556" y="658" type="line"/>
      <point x="882" y="658" type="line"/>
      <point x="750" y="-21" type="line"/>
      <point x="961" y="-57" type="line"/>
      <point x="986" y="-39" type="line"/>
      <point x="1215" y="1137" type="line"/>
      <point x="1438" y="1137" type="line"/>
      <point x="1459" y="1160" type="line"/>
    </contour>
    <contour>
      <point x="378" y="176"/>
      <point x="302" y="108"/>
      <point x="302" y="31" type="curve" smooth="yes"/>
      <point x="302" y="-29"/>
      <point x="345" y="-76"/>
      <point x="407" y="-76" type="curve" smooth="yes"/>
      <point x="484" y="-76"/>
      <point x="559" y="-8"/>
      <point x="559" y="70" type="curve" smooth="yes"/>
      <point x="559" y="129"/>
      <point x="517" y="176"/>
      <point x="456" y="176" type="curve" smooth="yes"/>
    </contour>
    <contour>
      <point x="988.306774126" y="-19.0" type="move" name="blwm_matra"/>
    </contour>
    <contour>
      <point x="1131.55390961" y="1325.0" type="move" name="abvm_matra"/>
    </contour>
    <contour>
      <point x="901.00849462" y="1600.0" type="move" name="abvm_latin"/>
    </contour>
    <contour>
      <point x="1145.16053125" y="1395.0" type="move" name="abvm_nasal"/>
    </contour>
    <contour>
      <point x="421.056196909" y="-10.0" type="move" name="blwm_mid"/>
    </contour>
    <contour>
      <point x="849.943803091" y="10.0" type="move" name="blwm_rakar"/>
    </contour>
    <contour>
      <point x="1133.4977127" y="1335.0" type="move" name="abvm_reph"/>
    </contour>
  </outline>
</glyph>
<glyph name="dPa" format="1">
  <advance width="1171"/>
  <unicode hex="092A"/>
  <outline>
    <contour>
      <point x="1430" y="1330" type="line"/>
      <point x="223" y="1330" type="line"/>
      <point x="201" y="1307" type="line"/>
      <point x="221" y="1137" type="line"/>
      <point x="350" y="1137" type="line"/>
      <point x="276" y="755" type="line" smooth="yes"/>
      <point x="228" y="507"/>
      <point x="402" y="291"/>
      <point x="625" y="291" type="curve" smooth="yes"/>
      <point x="678" y="291"/>
      <point x="740" y="303"/>
      <point x="808" y="330" type="curve"/>
      <point x="740" y="-21" type="line"/>
      <point x="951" y="-57" type="line"/>
      <point x="976" y="-39" type="line"/>
      <point x="1205" y="1137" type="line"/>
      <point x="1428" y="1137" type="line"/>
      <point x="1449" y="1160" type="line"/>
    </contour>
    <contour>
      <point x="965" y="1137" type="line"/>
      <point x="890" y="750" type="line" smooth="yes"/>
      <point x="860" y="594"/>
      <point x="704" y="473"/>
      <point x="581" y="473" type="curve" smooth="yes"/>
      <point x="495" y="473"/>
      <point x="462" y="531"/>
      <point x="483" y="640" type="curve" smooth="yes"/>
      <point x="580" y="1137" type="line"/>
    </contour>
    <contour>
      <point x="978.306774126" y="-19.0" type="move" name="blwm_matra"/>
    </contour>
    <contour>
      <point x="1121.55390961" y="1325.0" type="move" name="abvm_matra"/>
    </contour>
    <contour>
      <point x="896.00849462" y="1600.0" type="move" name="abvm_latin"/>
    </contour>
    <contour>
      <point x="1135.16053125" y="1395.0" type="move" name="abvm_nasal"/>
    </contour>
    <contour>
      <point x="821.943803091" y="10.0" type="move" name="blwm_rakar"/>
    </contour>
    <contour>
      <point x="358.056196909" y="-10.0" type="move" name="blwm_mid"/>
    </contour>
    <contour>
      <point x="481.967283804" y="77.0" type="move" name="blwm_nukta"/>
    </contour>
    <contour>
      <point x="1123.4977127" y="1335.0" type="move" name="abvm_reph"/>
    </contour>
  </outline>
</glyph>
<glyph name="dPha" format="1">
  <advance width="1560"/>
  <unicode hex="092B"/>
  <outline>
    <contour>
      <point x="1819" y="1330" type="line"/>
      <point x="223" y="1330" type="line"/>
      <point x="201" y="1307" type="line"/>
      <point x="221" y="1137" type="line"/>
      <point x="350" y="1137" type="line"/>
      <point x="274" y="745" type="line" smooth="yes"/>
      <point x="228" y="506"/>
      <point x="400" y="301"/>
      <point x="621" y="301" type="curve" smooth="yes"/>
      <point x="659" y="301"/>
      <point x="693" y="307"/>
      <point x="747" y="325" type="curve"/>
      <point x="680" y="-21" type="line"/>
      <point x="881" y="-57" type="line"/>
      <point x="907" y="-39" type="line"/>
      <point x="1015" y="518" type="line" smooth="yes"/>
      <point x="1042" y="659"/>
      <point x="1189" y="755"/>
      <point x="1300" y="755" type="curve" smooth="yes"/>
      <point x="1362" y="755"/>
      <point x="1388" y="720"/>
      <point x="1388" y="666" type="curve" smooth="yes"/>
      <point x="1388" y="543"/>
      <point x="1265" y="370"/>
      <point x="1104" y="293" type="curve"/>
      <point x="1147" y="206"/>
      <point x="1214" y="170"/>
      <point x="1276" y="170" type="curve" smooth="yes"/>
      <point x="1403" y="170"/>
      <point x="1573" y="313"/>
      <point x="1573" y="583" type="curve" smooth="yes"/>
      <point x="1573" y="805"/>
      <point x="1433" y="942"/>
      <point x="1256" y="942" type="curve" smooth="yes"/>
      <point x="1202" y="942"/>
      <point x="1152" y="930"/>
      <point x="1089" y="899" type="curve"/>
      <point x="1135" y="1137" type="line"/>
      <point x="1817" y="1137" type="line"/>
      <point x="1838" y="1160" type="line"/>
    </contour>
    <contour>
      <point x="905" y="1137" type="line"/>
      <point x="828" y="740" type="line" smooth="yes"/>
      <point x="801" y="601"/>
      <point x="661" y="488"/>
      <point x="554" y="488" type="curve" smooth="yes"/>
      <point x="486" y="488"/>
      <point x="463" y="533"/>
      <point x="480" y="620" type="curve" smooth="yes"/>
      <point x="580" y="1137" type="line"/>
    </contour>
    <contour>
      <point x="908.306774126" y="-19.0" type="move" name="blwm_matra"/>
    </contour>
    <contour>
      <point x="1051.55390961" y="1325.0" type="move" name="abvm_matra"/>
    </contour>
    <contour>
      <point x="1091.00849462" y="1600.0" type="move" name="abvm_latin"/>
    </contour>
    <contour>
      <point x="1065.16053125" y="1395.0" type="move" name="abvm_nasal"/>
    </contour>
    <contour>
      <point x="781.943803091" y="10.0" type="move" name="blwm_rakar"/>
    </contour>
    <contour>
      <point x="778.056196909" y="-10.0" type="move" name="blwm_mid"/>
    </contour>
    <contour>
      <point x="440.967283804" y="77.0" type="move" name="blwm_nukta"/>
    </contour>
    <contour>
      <point x="1053.4977127" y="1335.0" type="move" name="abvm_reph"/>
    </contour>
  </outline>
</glyph>
<glyph name="dBa" format="1">
  <advance width="1230"/>
  <unicode hex="092C"/>
  <outline>
    <contour>
      <point x="1489" y="1330" type="line"/>
      <point x="223" y="1330" type="line"/>
      <point x="201" y="1307" type="line"/>
      <point x="221" y="1137" type="line"/>
      <point x="1034" y="1137" type="line"/>
      <point x="982" y="869" type="line"/>
      <point x="894" y="960"/>
      <point x="783" y="997"/>
      <point x="669" y="997" type="curve" smooth="yes"/>
      <point x="421" y="997"/>
      <point x="210" y="832"/>
      <point x="210" y="599" type="curve" smooth="yes"/>
      <point x="210" y="372"/>
      <point x="414" y="179"/>
      <point x="641" y="179" type="curve" smooth="yes"/>
      <point x="701" y="179"/>
      <point x="775" y="192"/>
      <point x="857" y="224" type="curve"/>
      <point x="809" y="-21" type="line"/>
      <point x="1010" y="-57" type="line"/>
      <point x="1035" y="-39" type="line"/>
      <point x="1264" y="1137" type="line"/>
      <point x="1487" y="1137" type="line"/>
      <point x="1508" y="1160" type="line"/>
    </contour>
    <contour>
      <point x="931" y="608" type="line" smooth="yes"/>
      <point x="920" y="555"/>
      <point x="889" y="505"/>
      <point x="845" y="466" type="curve"/>
      <point x="648" y="773" type="line"/>
      <point x="675" y="780"/>
      <point x="703" y="783"/>
      <point x="732" y="783" type="curve" smooth="yes"/>
      <point x="872" y="783"/>
      <point x="951" y="705"/>
      <point x="936" y="632" type="curve" smooth="yes"/>
    </contour>
    <contour>
      <point x="481" y="368"/>
      <point x="413" y="438"/>
      <point x="413" y="530" type="curve" smooth="yes"/>
      <point x="413" y="593"/>
      <point x="444" y="648"/>
      <point x="495" y="694" type="curve"/>
      <point x="698" y="384" type="line"/>
      <point x="665" y="374"/>
      <point x="631" y="368"/>
      <point x="598" y="368" type="curve" smooth="yes"/>
    </contour>
    <contour>
      <point x="1037.30677413" y="-19.0" type="move" name="blwm_matra"/>
    </contour>
    <contour>
      <point x="1180.55390961" y="1325.0" type="move" name="abvm_matra"/>
    </contour>
    <contour>
      <point x="926.00849462" y="1600.0" type="move" name="abvm_latin"/>
    </contour>
    <contour>
      <point x="1194.16053125" y="1395.0" type="move" name="abvm_nasal"/>
    </contour>
    <contour>
      <point x="895.943803091" y="10.0" type="move" name="blwm_rakar"/>
    </contour>
    <contour>
      <point x="475.056196909" y="-10.0" type="move" name="blwm_mid"/>
    </contour>
    <contour>
      <point x="516.52925289" y="-23.0" type="move" name="blwm_nukta"/>
    </contour>
    <contour>
      <point x="1182.4977127" y="1335.0" type="move" name="abvm_reph"/>
    </contour>
  </outline>
</glyph>
<glyph name="dBha" format="1">
  <advance width="1453"/>
  <unicode hex="092D"/>
  <outline>
    <contour>
      <point x="370" y="1387"/>
      <point x="285" y="1281"/>
      <point x="285" y="1149" type="curve" smooth="yes"/>
      <point x="285" y="1000"/>
      <point x="404" y="896"/>
      <point x="504" y="896" type="curve" smooth="yes"/>
      <point x="547" y="896"/>
      <point x="579" y="914"/>
      <point x="600" y="932" type="curve"/>
      <point x="520" y="980"/>
      <point x="489" y="1026"/>
      <point x="489" y="1078" type="curve" smooth="yes"/>
      <point x="489" y="1148"/>
      <point x="532" y="1200"/>
      <point x="601" y="1200" type="curve" smooth="yes"/>
      <point x="673" y="1200"/>
      <point x="679" y="1140"/>
      <point x="665" y="1069" type="curve" smooth="yes"/>
      <point x="588" y="672" type="line"/>
      <point x="490" y="669"/>
      <point x="421" y="646"/>
      <point x="421" y="552" type="curve" smooth="yes"/>
      <point x="421" y="412"/>
      <point x="598" y="244"/>
      <point x="684" y="244" type="curve" smooth="yes"/>
      <point x="717" y="244"/>
      <point x="747" y="268"/>
      <point x="758" y="323" type="curve" smooth="yes"/>
      <point x="786" y="468" type="line"/>
      <point x="1117" y="468" type="line"/>
      <point x="1022" y="-21" type="line"/>
      <point x="1233" y="-57" type="line"/>
      <point x="1258" y="-39" type="line"/>
      <point x="1487" y="1137" type="line"/>
      <point x="1710" y="1137" type="line"/>
      <point x="1731" y="1160" type="line"/>
      <point x="1712" y="1330" type="line"/>
      <point x="987" y="1330" type="line"/>
      <point x="965" y="1307" type="line"/>
      <point x="985" y="1137" type="line"/>
      <point x="1247" y="1137" type="line"/>
      <point x="1157" y="673" type="line"/>
      <point x="825" y="673" type="line"/>
      <point x="872" y="913" type="line" smooth="yes"/>
      <point x="919" y="1156"/>
      <point x="753" y="1387"/>
      <point x="528" y="1387" type="curve" smooth="yes"/>
    </contour>
    <contour>
      <point x="1260.30677413" y="-19.0" type="move" name="blwm_matra"/>
    </contour>
    <contour>
      <point x="1403.55390961" y="1325.0" type="move" name="abvm_matra"/>
    </contour>
    <contour>
      <point x="1037.00849462" y="1600.0" type="move" name="abvm_latin"/>
    </contour>
    <contour>
      <point x="1417.16053125" y="1395.0" type="move" name="abvm_nasal"/>
    </contour>
    <contour>
      <point x="1088.94380309" y="10.0" type="move" name="blwm_rakar"/>
    </contour>
    <contour>
      <point x="692.056196909" y="-10.0" type="move" name="blwm_mid"/>
    </contour>
    <contour>
      <point x="738.0" y="0.0" type="move" name="blwm_nukta"/>
    </contour>
    <contour>
      <point x="1405.4977127" y="1335.0" type="move" name="abvm_reph"/>
    </contour>
  </outline>
</glyph>
<glyph name="dMa" format="1">
  <advance width="1246"/>
  <unicode hex="092E"/>
  <outline>
    <contour>
      <point x="1505" y="1330" type="line"/>
      <point x="223" y="1330" type="line"/>
      <point x="201" y="1307" type="line"/>
      <point x="221" y="1137" type="line"/>
      <point x="421" y="1137" type="line"/>
      <point x="327" y="652" type="line"/>
      <point x="182" y="647"/>
      <point x="160" y="594"/>
      <point x="160" y="533" type="curve" smooth="yes"/>
      <point x="160" y="393"/>
      <point x="337" y="224"/>
      <point x="424" y="224" type="curve" smooth="yes"/>
      <point x="457" y="224"/>
      <point x="486" y="247"/>
      <point x="497" y="303" type="curve" smooth="yes"/>
      <point x="525" y="448" type="line"/>
      <point x="906" y="448" type="line"/>
      <point x="815" y="-21" type="line"/>
      <point x="1026" y="-57" type="line"/>
      <point x="1051" y="-39" type="line"/>
      <point x="1280" y="1137" type="line"/>
      <point x="1503" y="1137" type="line"/>
      <point x="1524" y="1160" type="line"/>
    </contour>
    <contour>
      <point x="1040" y="1137" type="line"/>
      <point x="946" y="653" type="line"/>
      <point x="565" y="653" type="line"/>
      <point x="659" y="1137" type="line"/>
    </contour>
    <contour>
      <point x="1053.30677413" y="-19.0" type="move" name="blwm_matra"/>
    </contour>
    <contour>
      <point x="1196.55390961" y="1325.0" type="move" name="abvm_matra"/>
    </contour>
    <contour>
      <point x="934.00849462" y="1600.0" type="move" name="abvm_latin"/>
    </contour>
    <contour>
      <point x="1210.16053125" y="1395.0" type="move" name="abvm_nasal"/>
    </contour>
    <contour>
      <point x="885.943803091" y="10.0" type="move" name="blwm_rakar"/>
    </contour>
    <contour>
      <point x="476.056196909" y="-10.0" type="move" name="blwm_mid"/>
    </contour>
    <contour>
      <point x="489.0" y="0.0" type="move" name="blwm_nukta"/>
    </contour>
    <contour>
      <point x="1198.4977127" y="1335.0" type="move" name="abvm_reph"/>
    </contour>
  </outline>
</glyph>
<glyph name="dYa" format="1">
  <advance width="1308"/>
  <unicode hex="092F"/>
  <outline>
    <contour>
      <point x="1567" y="1330" type="line"/>
      <point x="223" y="1330" type="line"/>
      <point x="201" y="1307" type="line"/>
      <point x="221" y="1137" type="line"/>
      <point x="579" y="1137" type="line"/>
      <point x="583" y="1118"/>
      <point x="585" y="1088"/>
      <point x="585" y="1064" type="curve" smooth="yes"/>
      <point x="585" y="922"/>
      <point x="525" y="830"/>
      <point x="246" y="754" type="curve"/>
      <point x="229" y="728" type="line"/>
      <point x="327" y="350"/>
      <point x="551" y="201"/>
      <point x="770" y="201" type="curve" smooth="yes"/>
      <point x="828" y="201"/>
      <point x="867" y="209"/>
      <point x="926" y="229" type="curve"/>
      <point x="877" y="-21" type="line"/>
      <point x="1088" y="-57" type="line"/>
      <point x="1113" y="-39" type="line"/>
      <point x="1342" y="1137" type="line"/>
      <point x="1565" y="1137" type="line"/>
      <point x="1586" y="1160" type="line"/>
    </contour>
    <contour>
      <point x="1102" y="1137" type="line"/>
      <point x="1015" y="690" type="line" smooth="yes"/>
      <point x="984" y="528"/>
      <point x="819" y="421"/>
      <point x="681" y="421" type="curve" smooth="yes"/>
      <point x="588" y="421"/>
      <point x="503" y="469"/>
      <point x="457" y="568" type="curve"/>
      <point x="664" y="639"/>
      <point x="775" y="750"/>
      <point x="775" y="916" type="curve" smooth="yes"/>
      <point x="775" y="983"/>
      <point x="760" y="1066"/>
      <point x="731" y="1137" type="curve"/>
    </contour>
    <contour>
      <point x="1115.30677413" y="-19.0" type="move" name="blwm_matra"/>
    </contour>
    <contour>
      <point x="1258.55390961" y="1325.0" type="move" name="abvm_matra"/>
    </contour>
    <contour>
      <point x="965.00849462" y="1600.0" type="move" name="abvm_latin"/>
    </contour>
    <contour>
      <point x="1272.16053125" y="1395.0" type="move" name="abvm_nasal"/>
    </contour>
    <contour>
      <point x="948.943803091" y="10.0" type="move" name="blwm_rakar"/>
    </contour>
    <contour>
      <point x="507.056196909" y="-10.0" type="move" name="blwm_mid"/>
    </contour>
    <contour>
      <point x="354.967283804" y="77.0" type="move" name="blwm_nukta"/>
    </contour>
    <contour>
      <point x="1260.4977127" y="1335.0" type="move" name="abvm_reph"/>
    </contour>
  </outline>
</glyph>
<glyph name="dRra" format="1">
  <advance width="946"/>
  <unicode hex="0931"/>
  <outline>
    <contour>
      <point x="1205" y="1330" type="line"/>
      <point x="223" y="1330" type="line"/>
      <point x="201" y="1307" type="line"/>
      <point x="221" y="1137" type="line"/>
      <point x="702" y="1137" type="line"/>
      <point x="710" y="1099"/>
      <point x="713" y="1046"/>
      <point x="713" y="1010" type="curve" smooth="yes"/>
      <point x="713" y="876"/>
      <point x="674" y="783"/>
      <point x="540" y="721" type="curve"/>
      <point x="478" y="762"/>
      <point x="413" y="779"/>
      <point x="364" y="779" type="curve" smooth="yes"/>
      <point x="261" y="779"/>
      <point x="200" y="710"/>
      <point x="200" y="610" type="curve" smooth="yes"/>
      <point x="200" y="382"/>
      <point x="469" y="-52"/>
      <point x="690" y="-52" type="curve" smooth="yes"/>
      <point x="764" y="-52"/>
      <point x="824" y="-6"/>
      <point x="856" y="66" type="curve"/>
      <point x="667" y="160"/>
      <point x="535" y="264"/>
      <point x="437" y="427" type="curve"/>
      <point x="782" y="491"/>
      <point x="901" y="670"/>
      <point x="901" y="879" type="curve" smooth="yes"/>
      <point x="901" y="959"/>
      <point x="885" y="1057"/>
      <point x="861" y="1137" type="curve"/>
      <point x="1203" y="1137" type="line"/>
      <point x="1224" y="1160" type="line"/>
    </contour>
    <contour>
      <point x="68" y="176"/>
      <point x="-8" y="108"/>
      <point x="-8" y="31" type="curve" smooth="yes"/>
      <point x="-8" y="-29"/>
      <point x="35" y="-76"/>
      <point x="97" y="-76" type="curve" smooth="yes"/>
      <point x="174" y="-76"/>
      <point x="249" y="-8"/>
      <point x="249" y="70" type="curve" smooth="yes"/>
      <point x="249" y="129"/>
      <point x="207" y="176"/>
      <point x="146" y="176" type="curve" smooth="yes"/>
    </contour>
    <contour>
      <point x="652.306774126" y="-19.0" type="move" name="blwm_matra"/>
    </contour>
    <contour>
      <point x="795.553909607" y="1325.0" type="move" name="abvm_matra"/>
    </contour>
    <contour>
      <point x="784.00849462" y="1600.0" type="move" name="abvm_latin"/>
    </contour>
    <contour>
      <point x="809.160531247" y="1395.0" type="move" name="abvm_nasal"/>
    </contour>
    <contour>
      <point x="471.056196909" y="-10.0" type="move" name="blwm_mid"/>
    </contour>
    <contour>
      <point x="474.943803091" y="10.0" type="move" name="blwm_rakar"/>
    </contour>
    <contour>
      <point x="797.497712699" y="1335.0" type="move" name="abvm_reph"/>
    </contour>
  </outline>
</glyph>
<glyph name="dLa" format="1">
  <advance width="1441"/>
  <unicode hex="0932"/>
  <outline>
    <contour>
      <point x="1700" y="1330" type="line"/>
      <point x="223" y="1330" type="line"/>
      <point x="201" y="1307" type="line"/>
      <point x="221" y="1137" type="line"/>
      <point x="1235" y="1137" type="line"/>
      <point x="1194" y="928" type="line"/>
      <point x="1060" y="917"/>
      <point x="939" y="868"/>
      <point x="838" y="788" type="curve"/>
      <point x="760" y="887"/>
      <point x="658" y="946"/>
      <point x="536" y="946" type="curve" smooth="yes"/>
      <point x="334" y="946"/>
      <point x="197" y="797"/>
      <point x="197" y="562" type="curve" smooth="yes"/>
      <point x="197" y="256"/>
      <point x="425" y="-78"/>
      <point x="570" y="-78" type="curve" smooth="yes"/>
      <point x="613" y="-78"/>
      <point x="656" y="-50"/>
      <point x="680" y="-6" type="curve"/>
      <point x="505" y="131"/>
      <point x="416" y="331"/>
      <point x="416" y="480" type="curve" smooth="yes"/>
      <point x="416" y="629"/>
      <point x="519" y="738"/>
      <point x="632" y="738" type="curve" smooth="yes"/>
      <point x="674" y="738"/>
      <point x="706" y="722"/>
      <point x="737" y="689" type="curve"/>
      <point x="698" y="642"/>
      <point x="665" y="590"/>
      <point x="636" y="532" type="curve"/>
      <point x="810" y="396" type="line"/>
      <point x="838" y="406" type="line"/>
      <point x="914" y="562"/>
      <point x="1007" y="662"/>
      <point x="1154" y="720" type="curve"/>
      <point x="1010" y="-21" type="line"/>
      <point x="1221" y="-57" type="line"/>
      <point x="1246" y="-39" type="line"/>
      <point x="1475" y="1137" type="line"/>
      <point x="1698" y="1137" type="line"/>
      <point x="1719" y="1160" type="line"/>
    </contour>
    <contour>
      <point x="1248.30677413" y="-19.0" type="move" name="blwm_matra"/>
    </contour>
    <contour>
      <point x="1391.55390961" y="1325.0" type="move" name="abvm_matra"/>
    </contour>
    <contour>
      <point x="1031.00849462" y="1600.0" type="move" name="abvm_latin"/>
    </contour>
    <contour>
      <point x="1405.16053125" y="1395.0" type="move" name="abvm_nasal"/>
    </contour>
    <contour>
      <point x="1073.94380309" y="10.0" type="move" name="blwm_rakar"/>
    </contour>
    <contour>
      <point x="682.056196909" y="-10.0" type="move" name="blwm_mid"/>
    </contour>
    <contour>
      <point x="83.0" y="0.0" type="move" name="blwm_nukta"/>
    </contour>
    <contour>
      <point x="1393.4977127" y="1335.0" type="move" name="abvm_reph"/>
    </contour>
  </outline>
</glyph>
<glyph name="dLlla" format="1">
  <advance width="1511"/>
  <unicode hex="0934"/>
  <outline>
    <contour>
      <point x="1770" y="1330" type="line"/>
      <point x="223" y="1330" type="line"/>
      <point x="201" y="1307" type="line"/>
      <point x="221" y="1137" type="line"/>
      <point x="1145" y="1137" type="line"/>
      <point x="1098" y="894" type="line"/>
      <point x="1019" y="877"/>
      <point x="960" y="826"/>
      <point x="887" y="736" type="curve"/>
      <point x="778" y="854"/>
      <point x="670" y="910"/>
      <point x="551" y="910" type="curve" smooth="yes"/>
      <point x="337" y="910"/>
      <point x="162" y="738"/>
      <point x="162" y="523" type="curve" smooth="yes"/>
      <point x="162" y="300"/>
      <point x="343" y="102"/>
      <point x="551" y="102" type="curve" smooth="yes"/>
      <point x="678" y="102"/>
      <point x="758" y="172"/>
      <point x="839" y="274" type="curve"/>
      <point x="941" y="159"/>
      <point x="1050" y="92"/>
      <point x="1176" y="92" type="curve" smooth="yes"/>
      <point x="1383" y="92"/>
      <point x="1553" y="262"/>
      <point x="1553" y="478" type="curve" smooth="yes"/>
      <point x="1553" y="642"/>
      <point x="1457" y="798"/>
      <point x="1322" y="863" type="curve"/>
      <point x="1375" y="1137" type="line"/>
      <point x="1768" y="1137" type="line"/>
      <point x="1789" y="1160" type="line"/>
    </contour>
    <contour>
      <point x="696" y="699"/>
      <point x="753" y="676"/>
      <point x="805" y="630" type="curve"/>
      <point x="774" y="587" type="line" smooth="yes"/>
      <point x="643" y="406"/>
      <point x="569" y="308"/>
      <point x="465" y="308" type="curve" smooth="yes"/>
      <point x="398" y="308"/>
      <point x="364" y="353"/>
      <point x="364" y="421" type="curve" smooth="yes"/>
      <point x="364" y="558"/>
      <point x="482" y="699"/>
      <point x="636" y="699" type="curve" smooth="yes"/>
    </contour>
    <contour>
      <point x="1322" y="689"/>
      <point x="1351" y="644"/>
      <point x="1351" y="580" type="curve" smooth="yes"/>
      <point x="1351" y="433"/>
      <point x="1232" y="297"/>
      <point x="1084" y="297" type="curve" smooth="yes"/>
      <point x="1023" y="297"/>
      <point x="966" y="322"/>
      <point x="915" y="377" type="curve"/>
      <point x="942" y="414" type="line" smooth="yes"/>
      <point x="1083" y="607"/>
      <point x="1161" y="689"/>
      <point x="1256" y="689" type="curve" smooth="yes"/>
    </contour>
    <contour>
      <point x="746" y="63"/>
      <point x="670" y="-5"/>
      <point x="670" y="-82" type="curve" smooth="yes"/>
      <point x="670" y="-142"/>
      <point x="713" y="-189"/>
      <point x="775" y="-189" type="curve" smooth="yes"/>
      <point x="852" y="-189"/>
      <point x="927" y="-121"/>
      <point x="927" y="-43" type="curve" smooth="yes"/>
      <point x="927" y="16"/>
      <point x="885" y="63"/>
      <point x="824" y="63" type="curve" smooth="yes"/>
    </contour>
    <contour>
      <point x="1148.30677413" y="-19.0" type="move" name="blwm_matra"/>
    </contour>
    <contour>
      <point x="1291.55390961" y="1325.0" type="move" name="abvm_matra"/>
    </contour>
    <contour>
      <point x="1066.00849462" y="1600.0" type="move" name="abvm_latin"/>
    </contour>
    <contour>
      <point x="1305.16053125" y="1395.0" type="move" name="abvm_nasal"/>
    </contour>
    <contour>
      <point x="753.056196909" y="-10.0" type="move" name="blwm_mid"/>
    </contour>
    <contour>
      <point x="756.943803091" y="10.0" type="move" name="blwm_rakar"/>
    </contour>
    <contour>
      <point x="1293.4977127" y="1335.0" type="move" name="abvm_reph"/>
    </contour>
  </outline>
</glyph>
<glyph name="dSa" format="1">
  <advance width="1420"/>
  <unicode hex="0938"/>
  <outline>
    <contour>
      <point x="1679" y="1330" type="line"/>
      <point x="223" y="1330" type="line"/>
      <point x="201" y="1307" type="line"/>
      <point x="221" y="1137" type="line"/>
      <point x="642" y="1137" type="line"/>
      <point x="650" y="1100"/>
      <point x="653" y="1047"/>
      <point x="653" y="1010" type="curve" smooth="yes"/>
      <point x="653" y="891"/>
      <point x="621" y="799"/>
      <point x="523" y="736" type="curve"/>
      <point x="470" y="764"/>
      <point x="412" y="779"/>
      <point x="364" y="779" type="curve" smooth="yes"/>
      <point x="261" y="779"/>
      <point x="200" y="712"/>
      <point x="200" y="612" type="curve" smooth="yes"/>
      <point x="200" y="384"/>
      <point x="469" y="-42"/>
      <point x="668" y="-42" type="curve" smooth="yes"/>
      <point x="733" y="-42"/>
      <point x="807" y="2"/>
      <point x="838" y="76" type="curve"/>
      <point x="652" y="167"/>
      <point x="524" y="269"/>
      <point x="429" y="428" type="curve"/>
      <point x="530" y="449"/>
      <point x="609" y="486"/>
      <point x="670" y="532" type="curve"/>
      <point x="766" y="477"/>
      <point x="858" y="453"/>
      <point x="974" y="453" type="curve" smooth="yes"/>
      <point x="998" y="453"/>
      <point x="1022" y="454"/>
      <point x="1082" y="464" type="curve"/>
      <point x="988" y="-21" type="line"/>
      <point x="1199" y="-57" type="line"/>
      <point x="1224" y="-39" type="line"/>
      <point x="1453" y="1137" type="line"/>
      <point x="1677" y="1137" type="line"/>
      <point x="1698" y="1160" type="line"/>
    </contour>
    <contour>
      <point x="1213" y="1137" type="line"/>
      <point x="1157" y="847" type="line" smooth="yes"/>
      <point x="1130" y="710"/>
      <point x="1012" y="636"/>
      <point x="867" y="636" type="curve" smooth="yes"/>
      <point x="838" y="636"/>
      <point x="806" y="639"/>
      <point x="775" y="646" type="curve"/>
      <point x="826" y="731"/>
      <point x="843" y="808"/>
      <point x="843" y="886" type="curve" smooth="yes"/>
      <point x="843" y="961"/>
      <point x="827" y="1053"/>
      <point x="797" y="1137" type="curve"/>
    </contour>
    <contour>
      <point x="1226.30677413" y="-19.0" type="move" name="blwm_matra"/>
    </contour>
    <contour>
      <point x="1369.55390961" y="1325.0" type="move" name="abvm_matra"/>
    </contour>
    <contour>
      <point x="1021.00849462" y="1600.0" type="move" name="abvm_latin"/>
    </contour>
    <contour>
      <point x="1383.16053125" y="1395.0" type="move" name="abvm_nasal"/>
    </contour>
    <contour>
      <point x="1085.94380309" y="10.0" type="move" name="blwm_rakar"/>
    </contour>
    <contour>
      <point x="648.056196909" y="-10.0" type="move" name="blwm_mid"/>
    </contour>
    <contour>
      <point x="207.0" y="0.0" type="move" name="blwm_nukta"/>
    </contour>
    <contour>
      <point x="1371.4977127" y="1335.0" type="move" name="abvm_reph"/>
    </contour>
  </outline>
</glyph>
<glyph name="dHa" format="1">
  <advance width="1066"/>
  <unicode hex="0939"/>
  <outline>
    <contour>
      <point x="1325" y="1330" type="line"/>
      <point x="223" y="1330" type="line"/>
      <point x="201" y="1307" type="line"/>
      <point x="221" y="1137" type="line"/>
      <point x="869" y="1137" type="line"/>
      <point x="847" y="1026" type="line" smooth="yes"/>
      <point x="845" y="1013"/>
      <point x="837" y="1006"/>
      <point x="824" y="1006" type="curve" smooth="yes"/>
      <point x="493" y="1006" type="line" smooth="yes"/>
      <point x="332" y="1006"/>
      <point x="250" y="908"/>
      <point x="250" y="789" type="curve" smooth="yes"/>
      <point x="250" y="709"/>
      <point x="288" y="632"/>
      <point x="342" y="578" type="curve"/>
      <point x="252" y="500"/>
      <point x="204" y="407"/>
      <point x="204" y="292" type="curve" smooth="yes"/>
      <point x="204" y="33"/>
      <point x="457" y="-167"/>
      <point x="723" y="-167" type="curve" smooth="yes"/>
      <point x="856" y="-167"/>
      <point x="905" y="-118"/>
      <point x="920" y="-42" type="curve"/>
      <point x="595" y="-42"/>
      <point x="419" y="73"/>
      <point x="419" y="226" type="curve" smooth="yes"/>
      <point x="419" y="388"/>
      <point x="593" y="506"/>
      <point x="755" y="506" type="curve" smooth="yes"/>
      <point x="834" y="506"/>
      <point x="862" y="476"/>
      <point x="862" y="437" type="curve" smooth="yes"/>
      <point x="862" y="374"/>
      <point x="804" y="317"/>
      <point x="670" y="268" type="curve"/>
      <point x="681" y="188"/>
      <point x="750" y="135"/>
      <point x="832" y="135" type="curve" smooth="yes"/>
      <point x="939" y="135"/>
      <point x="1035" y="219"/>
      <point x="1035" y="362" type="curve" smooth="yes"/>
      <point x="1035" y="528"/>
      <point x="893" y="687"/>
      <point x="660" y="687" type="curve" smooth="yes"/>
      <point x="586" y="687"/>
      <point x="517" y="672"/>
      <point x="460" y="649" type="curve"/>
      <point x="457" y="660"/>
      <point x="455" y="676"/>
      <point x="455" y="690" type="curve" smooth="yes"/>
      <point x="455" y="753"/>
      <point x="502" y="825"/>
      <point x="619" y="825" type="curve" smooth="yes"/>
      <point x="1022" y="825" type="line"/>
      <point x="1046" y="845" type="line"/>
      <point x="1103" y="1137" type="line"/>
      <point x="1323" y="1137" type="line"/>
      <point x="1344" y="1160" type="line"/>
    </contour>
    <contour>
      <point x="768.896841667" y="-124.0" type="move" name="blwm_matra"/>
    </contour>
    <contour>
      <point x="1019.55390961" y="1325.0" type="move" name="abvm_matra"/>
    </contour>
    <contour>
      <point x="844.00849462" y="1600.0" type="move" name="abvm_latin"/>
    </contour>
    <contour>
      <point x="1033.16053125" y="1395.0" type="move" name="abvm_nasal"/>
    </contour>
    <contour>
      <point x="592" y="-66" type="move" name="blwm_rakar"/>
    </contour>
    <contour>
      <point x="612.170899597" y="-66.0" type="move" name="blwm_mid"/>
    </contour>
    <contour>
      <point x="136.620474866" y="-146.0" type="move" name="blwm_nukta"/>
    </contour>
    <contour>
      <point x="1021.4977127" y="1335.0" type="move" name="abvm_reph"/>
    </contour>
  </outline>
</glyph>
<glyph name="dOesign" format="1">
  <advance width="0"/>
  <unicode hex="093A"/>
  <outline>
    <contour>
      <point x="199" y="1602" type="line"/>
      <point x="131" y="1249" type="line"/>
      <point x="325" y="1222" type="line"/>
      <point x="353" y="1244" type="line"/>
      <point x="421" y="1597" type="line"/>
      <point x="228" y="1624" type="line"/>
    </contour>
    <contour>
      <point x="257.553909607" y="1325.0" type="move" name="_abvm_matra"/>
    </contour>
  </outline>
</glyph>
<glyph name="dNukta" format="1">
  <advance width="0"/>
  <unicode hex="093C"/>
  <outline>
    <contour>
      <point x="-58" y="103"/>
      <point x="-134" y="35"/>
      <point x="-134" y="-42" type="curve" smooth="yes"/>
      <point x="-134" y="-102"/>
      <point x="-91" y="-149"/>
      <point x="-29" y="-149" type="curve" smooth="yes"/>
      <point x="48" y="-149"/>
      <point x="123" y="-81"/>
      <point x="123" y="-3" type="curve" smooth="yes"/>
      <point x="123" y="56"/>
      <point x="81" y="103"/>
      <point x="20" y="103" type="curve" smooth="yes"/>
    </contour>
    <contour>
      <point x="-4.47074711017" y="-23.0" type="move" name="_blwm_nukta"/>
    </contour>
  </outline>
</glyph>
<glyph name="dAvagraha" format="1">
  <advance width="1047"/>
  <unicode hex="093D"/>
  <outline>
    <contour>
      <point x="1118" y="1330" type="line"/>
      <point x="702" y="1330" type="line" smooth="yes"/>
      <point x="502" y="1330"/>
      <point x="361" y="1238"/>
      <point x="361" y="1063" type="curve" smooth="yes"/>
      <point x="361" y="1011"/>
      <point x="375" y="952"/>
      <point x="400" y="903" type="curve" smooth="yes"/>
      <point x="536" y="635"/>
      <point x="862" y="680"/>
      <point x="862" y="496" type="curve" smooth="yes"/>
      <point x="862" y="377"/>
      <point x="750" y="275"/>
      <point x="593" y="275" type="curve" smooth="yes"/>
      <point x="441" y="275"/>
      <point x="321" y="376"/>
      <point x="336" y="636" type="curve"/>
      <point x="244" y="623"/>
      <point x="205" y="568"/>
      <point x="205" y="467" type="curve" smooth="yes"/>
      <point x="205" y="274"/>
      <point x="365" y="39"/>
      <point x="627" y="39" type="curve" smooth="yes"/>
      <point x="875" y="39"/>
      <point x="1044" y="229"/>
      <point x="1044" y="417" type="curve" smooth="yes"/>
      <point x="1044" y="476"/>
      <point x="1030" y="550"/>
      <point x="1000" y="607" type="curve" smooth="yes"/>
      <point x="872" y="852"/>
      <point x="553" y="837"/>
      <point x="553" y="984" type="curve" smooth="yes"/>
      <point x="553" y="1064"/>
      <point x="627" y="1137"/>
      <point x="827" y="1137" type="curve" smooth="yes"/>
      <point x="1116" y="1137" type="line"/>
      <point x="1137" y="1160" type="line"/>
    </contour>
  </outline>
</glyph>
<glyph name="dIsign" format="1">
  <advance width="653"/>
  <unicode hex="093F"/>
  <outline>
    <contour>
      <point x="564" y="1926"/>
      <point x="365" y="1754"/>
      <point x="365" y="1536" type="curve" smooth="yes"/>
      <point x="365" y="1462"/>
      <point x="389" y="1390"/>
      <point x="431" y="1330" type="curve"/>
      <point x="223" y="1330" type="line"/>
      <point x="201" y="1307" type="line"/>
      <point x="221" y="1137" type="line"/>
      <point x="427" y="1137" type="line"/>
      <point x="202" y="-21" type="line"/>
      <point x="413" y="-57" type="line"/>
      <point x="438" y="-39" type="line"/>
      <point x="667" y="1137" type="line"/>
      <point x="910" y="1137" type="line"/>
      <point x="931" y="1160" type="line"/>
      <point x="912" y="1330" type="line"/>
      <point x="608" y="1330" type="line"/>
      <point x="583" y="1366"/>
      <point x="573" y="1411"/>
      <point x="573" y="1449" type="curve" smooth="yes"/>
      <point x="573" y="1587"/>
      <point x="695" y="1696"/>
      <point x="942" y="1696" type="curve" smooth="yes"/>
      <point x="1247" y="1696"/>
      <point x="1538" y="1521"/>
      <point x="1712" y="1232" type="curve"/>
      <point x="1861" y="1290" type="line"/>
      <point x="1635" y="1704"/>
      <point x="1263" y="1926"/>
      <point x="895" y="1926" type="curve" smooth="yes"/>
    </contour>
    <contour>
      <point x="440.306774126" y="-19.0" type="move" name="blwm_matra"/>
    </contour>
    <contour>
      <point x="583.553909607" y="1325.0" type="move" name="abvm_matra"/>
    </contour>
    <contour>
      <point x="637.00849462" y="1600.0" type="move" name="abvm_latin"/>
    </contour>
    <contour>
      <point x="597.160531247" y="1395.0" type="move" name="abvm_nasal"/>
    </contour>
    <contour>
      <point x="327.943803091" y="10.0" type="move" name="blwm_rakar"/>
    </contour>
    <contour>
      <point x="324.056196909" y="-10.0" type="move" name="blwm_mid"/>
    </contour>
    <contour>
      <point x="-4.47074711017" y="-23.0" type="move" name="blwm_nukta"/>
    </contour>
    <contour>
      <point x="585.497712699" y="1335.0" type="move" name="abvm_reph"/>
    </contour>
  </outline>
</glyph>
<glyph name="dIisign" format="1">
  <advance width="653"/>
  <unicode hex="0940"/>
  <outline>
    <contour>
      <point x="910" y="1137" type="line"/>
      <point x="931" y="1160" type="line"/>
      <point x="912" y="1330" type="line"/>
      <point x="651" y="1330" type="line"/>
      <point x="545" y="1762"/>
      <point x="333" y="1926"/>
      <point x="86" y="1926" type="curve" smooth="yes"/>
      <point x="-157" y="1926"/>
      <point x="-317" y="1774"/>
      <point x="-317" y="1589" type="curve" smooth="yes"/>
      <point x="-317" y="1452"/>
      <point x="-232" y="1315"/>
      <point x="-100" y="1252" type="curve"/>
      <point x="56" y="1252" type="line"/>
      <point x="-62" y="1342"/>
      <point x="-102" y="1415"/>
      <point x="-102" y="1485" type="curve" smooth="yes"/>
      <point x="-102" y="1615"/>
      <point x="10" y="1713"/>
      <point x="152" y="1713" type="curve" smooth="yes"/>
      <point x="282" y="1713"/>
      <point x="412" y="1631"/>
      <point x="480" y="1330" type="curve"/>
      <point x="223" y="1330" type="line"/>
      <point x="201" y="1307" type="line"/>
      <point x="221" y="1137" type="line"/>
      <point x="427" y="1137" type="line"/>
      <point x="202" y="-21" type="line"/>
      <point x="413" y="-57" type="line"/>
      <point x="438" y="-39" type="line"/>
      <point x="667" y="1137" type="line"/>
    </contour>
    <contour>
      <point x="440.306774126" y="-19.0" type="move" name="blwm_matra"/>
    </contour>
    <contour>
      <point x="583.553909607" y="1325.0" type="move" name="abvm_matra"/>
    </contour>
    <contour>
      <point x="637.00849462" y="1600.0" type="move" name="abvm_latin"/>
    </contour>
    <contour>
      <point x="597.160531247" y="1395.0" type="move" name="abvm_nasal"/>
    </contour>
    <contour>
      <point x="327.943803091" y="10.0" type="move" name="blwm_rakar"/>
    </contour>
    <contour>
      <point x="324.056196909" y="-10.0" type="move" name="blwm_mid"/>
    </contour>
    <contour>
      <point x="-4.47074711017" y="-23.0" type="move" name="blwm_nukta"/>
    </contour>
    <contour>
      <point x="585.497712699" y="1335.0" type="move" name="abvm_reph"/>
    </contour>
  </outline>
</glyph>
<glyph name="dUsign" format="1">
  <advance width="0"/>
  <unicode hex="0941"/>
  <outline>
    <contour>
      <point x="-294" y="30"/>
      <point x="-402" y="-44"/>
      <point x="-402" y="-125" type="curve" smooth="yes"/>
      <point x="-402" y="-188"/>
      <point x="-354" y="-239"/>
      <point x="-251" y="-248" type="curve"/>
      <point x="-189" y="-183"/>
      <point x="-139" y="-157"/>
      <point x="-93" y="-157" type="curve" smooth="yes"/>
      <point x="-57" y="-157"/>
      <point x="-36" y="-173"/>
      <point x="-36" y="-206" type="curve" smooth="yes"/>
      <point x="-36" y="-282"/>
      <point x="-124" y="-349"/>
      <point x="-252" y="-349" type="curve" smooth="yes"/>
      <point x="-419" y="-349"/>
      <point x="-552" y="-232"/>
      <point x="-612" y="16" type="curve"/>
      <point x="-664" y="2"/>
      <point x="-716" y="-55"/>
      <point x="-716" y="-124" type="curve" smooth="yes"/>
      <point x="-716" y="-276"/>
      <point x="-523" y="-554"/>
      <point x="-217" y="-554" type="curve" smooth="yes"/>
      <point x="-30" y="-554"/>
      <point x="131" y="-460"/>
      <point x="131" y="-279" type="curve" smooth="yes"/>
      <point x="131" y="-124"/>
      <point x="6" y="30"/>
      <point x="-168" y="30" type="curve" smooth="yes"/>
    </contour>
    <contour>
      <point x="-3.69322587362" y="-19.0" type="move" name="_blwm_matra"/>
    </contour>
  </outline>
</glyph>
<glyph name="dUusign" format="1">
  <advance width="0"/>
  <unicode hex="0942"/>
  <outline>
    <contour>
      <point x="-331" y="21"/>
      <point x="-489" y="-83"/>
      <point x="-489" y="-262" type="curve" smooth="yes"/>
      <point x="-489" y="-407"/>
      <point x="-378" y="-547"/>
      <point x="-202" y="-547" type="curve" smooth="yes"/>
      <point x="-60" y="-547"/>
      <point x="25" y="-466"/>
      <point x="25" y="-385" type="curve" smooth="yes"/>
      <point x="25" y="-329"/>
      <point x="-14" y="-274"/>
      <point x="-101" y="-264" type="curve"/>
      <point x="-173" y="-335"/>
      <point x="-229" y="-360"/>
      <point x="-269" y="-360" type="curve" smooth="yes"/>
      <point x="-303" y="-360"/>
      <point x="-318" y="-340"/>
      <point x="-318" y="-312" type="curve" smooth="yes"/>
      <point x="-318" y="-238"/>
      <point x="-235" y="-186"/>
      <point x="-125" y="-186" type="curve" smooth="yes"/>
      <point x="10" y="-186"/>
      <point x="136" y="-267"/>
      <point x="259" y="-459" type="curve"/>
      <point x="308" y="-447"/>
      <point x="339" y="-413"/>
      <point x="339" y="-373" type="curve" smooth="yes"/>
      <point x="339" y="-248"/>
      <point x="92" y="21"/>
      <point x="-165" y="21" type="curve" smooth="yes"/>
    </contour>
    <contour>
      <point x="-3.69322587362" y="-19.0" type="move" name="_blwm_matra"/>
    </contour>
  </outline>
</glyph>
<glyph name="dRvocalicsign" format="1">
  <advance width="0"/>
  <unicode hex="0943"/>
  <outline>
    <contour>
      <point x="-139" y="96" type="line"/>
      <point x="-363" y="40"/>
      <point x="-462" y="-65"/>
      <point x="-462" y="-177" type="curve" smooth="yes"/>
      <point x="-462" y="-312"/>
      <point x="-327" y="-478"/>
      <point x="-118" y="-478" type="curve" smooth="yes"/>
      <point x="19" y="-478"/>
      <point x="157" y="-413"/>
      <point x="157" y="-312" type="curve" smooth="yes"/>
      <point x="157" y="-255"/>
      <point x="114" y="-194"/>
      <point x="52" y="-171" type="curve"/>
      <point x="-9" y="-229"/>
      <point x="-137" y="-300"/>
      <point x="-219" y="-300" type="curve" smooth="yes"/>
      <point x="-261" y="-300"/>
      <point x="-278" y="-280"/>
      <point x="-278" y="-249" type="curve" smooth="yes"/>
      <point x="-278" y="-198"/>
      <point x="-243" y="-122"/>
      <point x="-9" y="-59" type="curve"/>
      <point x="-4" y="-32" type="line"/>
    </contour>
    <contour>
      <point x="-3.69322587362" y="-19.0" type="move" name="_blwm_matra"/>
    </contour>
  </outline>
</glyph>
<glyph name="dRrvocalicsign" format="1">
  <advance width="0"/>
  <unicode hex="0944"/>
  <outline>
    <contour>
      <point x="-166" y="91" type="line"/>
      <point x="-415" y="28"/>
      <point x="-499" y="-91"/>
      <point x="-499" y="-187" type="curve" smooth="yes"/>
      <point x="-499" y="-254"/>
      <point x="-466" y="-323"/>
      <point x="-407" y="-368" type="curve"/>
      <point x="-440" y="-407"/>
      <point x="-453" y="-438"/>
      <point x="-453" y="-478" type="curve" smooth="yes"/>
      <point x="-453" y="-600"/>
      <point x="-327" y="-729"/>
      <point x="-149" y="-729" type="curve" smooth="yes"/>
      <point x="5" y="-729"/>
      <point x="121" y="-640"/>
      <point x="121" y="-562" type="curve" smooth="yes"/>
      <point x="121" y="-504"/>
      <point x="64" y="-458"/>
      <point x="8" y="-437" type="curve"/>
      <point x="-66" y="-523"/>
      <point x="-161" y="-561"/>
      <point x="-218" y="-561" type="curve" smooth="yes"/>
      <point x="-249" y="-561"/>
      <point x="-265" y="-549"/>
      <point x="-265" y="-526" type="curve" smooth="yes"/>
      <point x="-265" y="-482"/>
      <point x="-228" y="-431"/>
      <point x="1" y="-341" type="curve"/>
      <point x="12" y="-312" type="line"/>
      <point x="-98" y="-184" type="line"/>
      <point x="-209" y="-249"/>
      <point x="-261" y="-278"/>
      <point x="-296" y="-278" type="curve" smooth="yes"/>
      <point x="-314" y="-278"/>
      <point x="-324" y="-269"/>
      <point x="-324" y="-252" type="curve" smooth="yes"/>
      <point x="-324" y="-214"/>
      <point x="-302" y="-131"/>
      <point x="-9" y="-59" type="curve"/>
      <point x="-4" y="-32" type="line"/>
    </contour>
    <contour>
      <point x="-3.69322587362" y="-19.0" type="move" name="_blwm_matra"/>
    </contour>
  </outline>
</glyph>
<glyph name="dEcandrasign" format="1">
  <advance width="0"/>
  <unicode hex="0945"/>
  <outline>
    <contour>
      <point x="-11" y="1895"/>
      <point x="-56" y="1878"/>
      <point x="-56" y="1773" type="curve" smooth="yes"/>
      <point x="-56" y="1641"/>
      <point x="38" y="1451"/>
      <point x="267" y="1451" type="curve" smooth="yes"/>
      <point x="508" y="1451"/>
      <point x="686" y="1640"/>
      <point x="686" y="1784" type="curve" smooth="yes"/>
      <point x="686" y="1843"/>
      <point x="647" y="1881"/>
      <point x="569" y="1901" type="curve"/>
      <point x="488" y="1720"/>
      <point x="380" y="1634"/>
      <point x="249" y="1634" type="curve" smooth="yes"/>
      <point x="118" y="1634"/>
      <point x="54" y="1719"/>
      <point x="36" y="1909" type="curve"/>
    </contour>
    <contour>
      <point x="271.160531247" y="1395.0" type="move" name="_abvm_nasal"/>
    </contour>
  </outline>
</glyph>
<glyph name="dEshortsign" format="1">
  <advance width="0"/>
  <unicode hex="0946"/>
  <outline>
    <contour>
      <point x="-576" y="1922"/>
      <point x="-604" y="1896"/>
      <point x="-604" y="1817" type="curve" smooth="yes"/>
      <point x="-604" y="1666"/>
      <point x="-446" y="1519"/>
      <point x="-35" y="1494" type="curve" smooth="yes"/>
      <point x="132" y="1484"/>
      <point x="182" y="1464"/>
      <point x="182" y="1416" type="curve" smooth="yes"/>
      <point x="182" y="1398"/>
      <point x="174" y="1368"/>
      <point x="152" y="1330" type="curve"/>
      <point x="146" y="1301" type="line"/>
      <point x="360" y="1301" type="line"/>
      <point x="366" y="1330" type="line"/>
      <point x="327" y="1559"/>
      <point x="189" y="1696"/>
      <point x="-88" y="1740" type="curve" smooth="yes"/>
      <point x="-396" y="1789"/>
      <point x="-485" y="1834"/>
      <point x="-542" y="1956" type="curve"/>
    </contour>
    <contour>
      <point x="257.553909607" y="1325.0" type="move" name="_abvm_matra"/>
    </contour>
  </outline>
</glyph>
<glyph name="dEsign" format="1">
  <advance width="0"/>
  <unicode hex="0947"/>
  <outline>
    <contour>
      <point x="-407" y="1932"/>
      <point x="-476" y="1847"/>
      <point x="-476" y="1772" type="curve" smooth="yes"/>
      <point x="-476" y="1698"/>
      <point x="-415" y="1620"/>
      <point x="-314" y="1588" type="curve"/>
      <point x="-280" y="1627"/>
      <point x="-227" y="1658"/>
      <point x="-161" y="1658" type="curve" smooth="yes"/>
      <point x="-68" y="1658"/>
      <point x="1" y="1607"/>
      <point x="176" y="1330" type="curve"/>
      <point x="160" y="1249" type="line"/>
      <point x="324" y="1249" type="line"/>
      <point x="340" y="1330" type="line"/>
      <point x="71" y="1796"/>
      <point x="-79" y="1932"/>
      <point x="-260" y="1932" type="curve" smooth="yes"/>
    </contour>
    <contour>
      <point x="257.553909607" y="1325.0" type="move" name="_abvm_matra"/>
    </contour>
  </outline>
</glyph>
<glyph name="dOcandrasign" format="1">
  <advance width="543"/>
  <unicode hex="0949"/>
  <outline>
    <contour>
      <point x="-31" y="1890"/>
      <point x="-76" y="1873"/>
      <point x="-76" y="1768" type="curve" smooth="yes"/>
      <point x="-76" y="1636"/>
      <point x="18" y="1446"/>
      <point x="247" y="1446" type="curve" smooth="yes"/>
      <point x="488" y="1446"/>
      <point x="666" y="1635"/>
      <point x="666" y="1779" type="curve" smooth="yes"/>
      <point x="666" y="1838"/>
      <point x="627" y="1876"/>
      <point x="549" y="1896" type="curve"/>
      <point x="468" y="1715"/>
      <point x="360" y="1629"/>
      <point x="229" y="1629" type="curve" smooth="yes"/>
      <point x="98" y="1629"/>
      <point x="34" y="1714"/>
      <point x="16" y="1904" type="curve"/>
    </contour>
    <contour>
      <point x="800" y="1137" type="line"/>
      <point x="821" y="1160" type="line"/>
      <point x="802" y="1330" type="line"/>
      <point x="113" y="1330" type="line"/>
      <point x="91" y="1307" type="line"/>
      <point x="111" y="1137" type="line"/>
      <point x="317" y="1137" type="line"/>
      <point x="92" y="-21" type="line"/>
      <point x="303" y="-57" type="line"/>
      <point x="328" y="-39" type="line"/>
      <point x="557" y="1137" type="line"/>
    </contour>
  </outline>
</glyph>
<glyph name="dOshortsign" format="1">
  <advance width="653"/>
  <unicode hex="094A"/>
  <outline>
    <contour>
      <point x="912" y="1330" type="line"/>
      <point x="691" y="1330" type="line"/>
      <point x="652" y="1559"/>
      <point x="514" y="1695"/>
      <point x="237" y="1740" type="curve" smooth="yes"/>
      <point x="-71" y="1790"/>
      <point x="-160" y="1834"/>
      <point x="-217" y="1956" type="curve"/>
      <point x="-251" y="1922"/>
      <point x="-279" y="1896"/>
      <point x="-279" y="1817" type="curve" smooth="yes"/>
      <point x="-279" y="1666"/>
      <point x="-121" y="1519"/>
      <point x="290" y="1494" type="curve" smooth="yes"/>
      <point x="457" y="1484"/>
      <point x="507" y="1464"/>
      <point x="507" y="1416" type="curve" smooth="yes"/>
      <point x="507" y="1396"/>
      <point x="497" y="1366"/>
      <point x="477" y="1330" type="curve"/>
      <point x="223" y="1330" type="line"/>
      <point x="201" y="1307" type="line"/>
      <point x="221" y="1137" type="line"/>
      <point x="427" y="1137" type="line"/>
      <point x="202" y="-21" type="line"/>
      <point x="413" y="-57" type="line"/>
      <point x="438" y="-39" type="line"/>
      <point x="667" y="1137" type="line"/>
      <point x="910" y="1137" type="line"/>
      <point x="931" y="1160" type="line"/>
    </contour>
    <contour>
      <point x="440.306774126" y="-19.0" type="move" name="blwm_matra"/>
    </contour>
    <contour>
      <point x="583.553909607" y="1325.0" type="move" name="abvm_matra"/>
    </contour>
    <contour>
      <point x="637.00849462" y="1600.0" type="move" name="abvm_latin"/>
    </contour>
    <contour>
      <point x="597.160531247" y="1395.0" type="move" name="abvm_nasal"/>
    </contour>
    <contour>
      <point x="327.943803091" y="10.0" type="move" name="blwm_rakar"/>
    </contour>
    <contour>
      <point x="324.056196909" y="-10.0" type="move" name="blwm_mid"/>
    </contour>
    <contour>
      <point x="-4.47074711017" y="-23.0" type="move" name="blwm_nukta"/>
    </contour>
    <contour>
      <point x="585.497712699" y="1335.0" type="move" name="abvm_reph"/>
    </contour>
  </outline>
</glyph>
<glyph name="dOsign" format="1">
  <advance width="653"/>
  <unicode hex="094B"/>
  <outline>
    <contour>
      <point x="912" y="1330" type="line"/>
      <point x="648" y="1330" type="line"/>
      <point x="371" y="1796"/>
      <point x="214" y="1932"/>
      <point x="30" y="1932" type="curve" smooth="yes"/>
      <point x="-117" y="1932"/>
      <point x="-186" y="1847"/>
      <point x="-186" y="1772" type="curve" smooth="yes"/>
      <point x="-186" y="1698"/>
      <point x="-125" y="1620"/>
      <point x="-24" y="1588" type="curve"/>
      <point x="10" y="1627"/>
      <point x="63" y="1658"/>
      <point x="129" y="1658" type="curve" smooth="yes"/>
      <point x="225" y="1658"/>
      <point x="297" y="1606"/>
      <point x="477" y="1330" type="curve"/>
      <point x="223" y="1330" type="line"/>
      <point x="201" y="1307" type="line"/>
      <point x="221" y="1137" type="line"/>
      <point x="427" y="1137" type="line"/>
      <point x="202" y="-21" type="line"/>
      <point x="413" y="-57" type="line"/>
      <point x="438" y="-39" type="line"/>
      <point x="667" y="1137" type="line"/>
      <point x="910" y="1137" type="line"/>
      <point x="931" y="1160" type="line"/>
    </contour>
    <contour>
      <point x="440.306774126" y="-19.0" type="move" name="blwm_matra"/>
    </contour>
    <contour>
      <point x="583.553909607" y="1325.0" type="move" name="abvm_matra"/>
    </contour>
    <contour>
      <point x="637.00849462" y="1600.0" type="move" name="abvm_latin"/>
    </contour>
    <contour>
      <point x="597.160531247" y="1395.0" type="move" name="abvm_nasal"/>
    </contour>
    <contour>
      <point x="327.943803091" y="10.0" type="move" name="blwm_rakar"/>
    </contour>
    <contour>
      <point x="324.056196909" y="-10.0" type="move" name="blwm_mid"/>
    </contour>
    <contour>
      <point x="-4.47074711017" y="-23.0" type="move" name="blwm_nukta"/>
    </contour>
    <contour>
      <point x="585.497712699" y="1335.0" type="move" name="abvm_reph"/>
    </contour>
  </outline>
</glyph>
<glyph name="dAusign" format="1">
  <advance width="653"/>
  <unicode hex="094C"/>
  <outline>
    <contour>
      <point x="912" y="1330" type="line"/>
      <point x="678" y="1330" type="line"/>
      <point x="620" y="1854"/>
      <point x="486" y="2032"/>
      <point x="308" y="2032" type="curve" smooth="yes"/>
      <point x="192" y="2032"/>
      <point x="134" y="1960"/>
      <point x="134" y="1892" type="curve" smooth="yes"/>
      <point x="134" y="1836"/>
      <point x="173" y="1775"/>
      <point x="274" y="1731" type="curve"/>
      <point x="300" y="1755"/>
      <point x="334" y="1774"/>
      <point x="370" y="1774" type="curve" smooth="yes"/>
      <point x="429" y="1774"/>
      <point x="470" y="1716"/>
      <point x="526" y="1427" type="curve"/>
      <point x="326" y="1624"/>
      <point x="118" y="1742"/>
      <point x="-13" y="1742" type="curve" smooth="yes"/>
      <point x="-102" y="1742"/>
      <point x="-198" y="1692"/>
      <point x="-198" y="1589" type="curve" smooth="yes"/>
      <point x="-198" y="1521"/>
      <point x="-148" y="1458"/>
      <point x="-36" y="1424" type="curve"/>
      <point x="-2" y="1470"/>
      <point x="47" y="1497"/>
      <point x="112" y="1497" type="curve" smooth="yes"/>
      <point x="189" y="1497"/>
      <point x="315" y="1437"/>
      <point x="437" y="1330" type="curve"/>
      <point x="223" y="1330" type="line"/>
      <point x="201" y="1307" type="line"/>
      <point x="221" y="1137" type="line"/>
      <point x="427" y="1137" type="line"/>
      <point x="202" y="-21" type="line"/>
      <point x="413" y="-57" type="line"/>
      <point x="438" y="-39" type="line"/>
      <point x="667" y="1137" type="line"/>
      <point x="910" y="1137" type="line"/>
      <point x="931" y="1160" type="line"/>
    </contour>
    <contour>
      <point x="440.306774126" y="-19.0" type="move" name="blwm_matra"/>
    </contour>
    <contour>
      <point x="583.553909607" y="1325.0" type="move" name="abvm_matra"/>
    </contour>
    <contour>
      <point x="637.00849462" y="1600.0" type="move" name="abvm_latin"/>
    </contour>
    <contour>
      <point x="597.160531247" y="1395.0" type="move" name="abvm_nasal"/>
    </contour>
    <contour>
      <point x="327.943803091" y="10.0" type="move" name="blwm_rakar"/>
    </contour>
    <contour>
      <point x="324.056196909" y="-10.0" type="move" name="blwm_mid"/>
    </contour>
    <contour>
      <point x="-4.47074711017" y="-23.0" type="move" name="blwm_nukta"/>
    </contour>
    <contour>
      <point x="585.497712699" y="1335.0" type="move" name="abvm_reph"/>
    </contour>
  </outline>
</glyph>
<glyph name="dVirama" format="1">
  <advance width="0"/>
  <unicode hex="094D"/>
  <outline>
    <contour>
      <point x="-298" y="-92"/>
      <point x="-356" y="-134"/>
      <point x="-356" y="-200" type="curve" smooth="yes"/>
      <point x="-356" y="-247"/>
      <point x="-327" y="-290"/>
      <point x="-267" y="-338" type="curve"/>
      <point x="-232" y="-333"/>
      <point x="-179" y="-327"/>
      <point x="-133" y="-327" type="curve" smooth="yes"/>
      <point x="-14" y="-327"/>
      <point x="103" y="-367"/>
      <point x="256" y="-569" type="curve"/>
      <point x="309" y="-554"/>
      <point x="330" y="-520"/>
      <point x="330" y="-501" type="curve" smooth="yes"/>
      <point x="330" y="-440"/>
      <point x="211" y="-263"/>
      <point x="41" y="-160" type="curve" smooth="yes"/>
      <point x="-65" y="-96"/>
      <point x="-137" y="-92"/>
      <point x="-178" y="-92" type="curve" smooth="yes"/>
    </contour>
    <contour>
      <point x="-3.69322587362" y="-19.0" type="move" name="_blwm_matra"/>
    </contour>
  </outline>
</glyph>
<glyph name="dAwsign" format="1">
  <advance width="653"/>
  <unicode hex="094F"/>
  <outline>
    <contour>
      <point x="912" y="1330" type="line"/>
      <point x="690" y="1330" type="line"/>
      <point x="721" y="1654"/>
      <point x="618" y="1808"/>
      <point x="313" y="1871" type="curve" smooth="yes"/>
      <point x="76" y="1920"/>
      <point x="17" y="1952"/>
      <point x="-3" y="2043" type="curve"/>
      <point x="-38" y="2009"/>
      <point x="-57" y="1965"/>
      <point x="-57" y="1925" type="curve" smooth="yes"/>
      <point x="-57" y="1834"/>
      <point x="38" y="1730"/>
      <point x="331" y="1687" type="curve" smooth="yes"/>
      <point x="540" y="1656"/>
      <point x="567" y="1590"/>
      <point x="553" y="1488" type="curve"/>
      <point x="490" y="1572"/>
      <point x="357" y="1621"/>
      <point x="127" y="1621" type="curve" smooth="yes"/>
      <point x="-147" y="1621"/>
      <point x="-229" y="1708"/>
      <point x="-280" y="1846" type="curve"/>
      <point x="-312" y="1806"/>
      <point x="-331" y="1772"/>
      <point x="-331" y="1717" type="curve" smooth="yes"/>
      <point x="-331" y="1582"/>
      <point x="-195" y="1437"/>
      <point x="207" y="1437" type="curve" smooth="yes"/>
      <point x="451" y="1437"/>
      <point x="498" y="1406"/>
      <point x="486" y="1343" type="curve"/>
      <point x="483" y="1330" type="line"/>
      <point x="223" y="1330" type="line"/>
      <point x="201" y="1307" type="line"/>
      <point x="221" y="1137" type="line"/>
      <point x="427" y="1137" type="line"/>
      <point x="202" y="-21" type="line"/>
      <point x="413" y="-57" type="line"/>
      <point x="438" y="-39" type="line"/>
      <point x="667" y="1137" type="line"/>
      <point x="910" y="1137" type="line"/>
      <point x="931" y="1160" type="line"/>
    </contour>
    <contour>
      <point x="440.306774126" y="-19.0" type="move" name="blwm_matra"/>
    </contour>
    <contour>
      <point x="583.553909607" y="1325.0" type="move" name="abvm_matra"/>
    </contour>
    <contour>
      <point x="637.00849462" y="1600.0" type="move" name="abvm_latin"/>
    </contour>
    <contour>
      <point x="597.160531247" y="1395.0" type="move" name="abvm_nasal"/>
    </contour>
    <contour>
      <point x="327.943803091" y="10.0" type="move" name="blwm_rakar"/>
    </contour>
    <contour>
      <point x="324.056196909" y="-10.0" type="move" name="blwm_mid"/>
    </contour>
    <contour>
      <point x="-4.47074711017" y="-23.0" type="move" name="blwm_nukta"/>
    </contour>
    <contour>
      <point x="585.497712699" y="1335.0" type="move" name="abvm_reph"/>
    </contour>
  </outline>
</glyph>
<glyph name="dOm" format="1">
  <advance width="1858"/>
  <unicode hex="0950"/>
  <outline>
    <contour>
      <point x="1522" y="1354"/>
      <point x="1594" y="1419"/>
      <point x="1594" y="1494" type="curve" smooth="yes"/>
      <point x="1594" y="1550"/>
      <point x="1553" y="1595"/>
      <point x="1495" y="1595" type="curve" smooth="yes"/>
      <point x="1420" y="1595"/>
      <point x="1347" y="1531"/>
      <point x="1347" y="1457" type="curve" smooth="yes"/>
      <point x="1347" y="1400"/>
      <point x="1389" y="1354"/>
      <point x="1448" y="1354" type="curve" smooth="yes"/>
    </contour>
    <contour>
      <point x="1680" y="1075"/>
      <point x="1864" y="1240"/>
      <point x="1864" y="1396" type="curve" smooth="yes"/>
      <point x="1864" y="1465"/>
      <point x="1823" y="1510"/>
      <point x="1741" y="1535" type="curve"/>
      <point x="1673" y="1351"/>
      <point x="1549" y="1258"/>
      <point x="1427" y="1258" type="curve" smooth="yes"/>
      <point x="1286" y="1258"/>
      <point x="1203" y="1381"/>
      <point x="1199" y="1543" type="curve"/>
      <point x="1166" y="1529"/>
      <point x="1114" y="1483"/>
      <point x="1114" y="1395" type="curve" smooth="yes"/>
      <point x="1114" y="1269"/>
      <point x="1213" y="1075"/>
      <point x="1445" y="1075" type="curve" smooth="yes"/>
    </contour>
    <contour>
      <point x="1347" y="1033"/>
      <point x="1255" y="681"/>
      <point x="1057" y="681" type="curve" smooth="yes"/>
      <point x="1037" y="681"/>
      <point x="1017" y="685"/>
      <point x="996" y="691" type="curve"/>
      <point x="1092" y="771"/>
      <point x="1129" y="870"/>
      <point x="1129" y="983" type="curve" smooth="yes"/>
      <point x="1129" y="1188"/>
      <point x="986" y="1335"/>
      <point x="748" y="1335" type="curve" smooth="yes"/>
      <point x="509" y="1335"/>
      <point x="370" y="1202"/>
      <point x="370" y="1084" type="curve" smooth="yes"/>
      <point x="370" y="1002"/>
      <point x="443" y="947"/>
      <point x="568" y="947" type="curve"/>
      <point x="594" y="1082"/>
      <point x="695" y="1184"/>
      <point x="808" y="1184" type="curve" smooth="yes"/>
      <point x="885" y="1184"/>
      <point x="931" y="1133"/>
      <point x="931" y="1059" type="curve" smooth="yes"/>
      <point x="931" y="925"/>
      <point x="807" y="808"/>
      <point x="518" y="790" type="curve"/>
      <point x="498" y="765" type="line"/>
      <point x="561" y="552" type="line"/>
      <point x="664" y="561"/>
      <point x="750" y="577"/>
      <point x="822" y="600" type="curve"/>
      <point x="849" y="568"/>
      <point x="864" y="518"/>
      <point x="864" y="471" type="curve" smooth="yes"/>
      <point x="864" y="344"/>
      <point x="752" y="252"/>
      <point x="604" y="252" type="curve" smooth="yes"/>
      <point x="403" y="252"/>
      <point x="306" y="431"/>
      <point x="312" y="806" type="curve"/>
      <point x="217" y="769"/>
      <point x="171" y="725"/>
      <point x="171" y="593" type="curve" smooth="yes"/>
      <point x="171" y="392"/>
      <point x="287" y="2"/>
      <point x="634" y="2" type="curve" smooth="yes"/>
      <point x="878" y="2"/>
      <point x="1060" y="171"/>
      <point x="1060" y="413" type="curve" smooth="yes"/>
      <point x="1060" y="443"/>
      <point x="1057" y="486"/>
      <point x="1052" y="513" type="curve"/>
      <point x="1093" y="492"/>
      <point x="1139" y="480"/>
      <point x="1177" y="480" type="curve" smooth="yes"/>
      <point x="1385" y="480"/>
      <point x="1519" y="823"/>
      <point x="1679" y="823" type="curve" smooth="yes"/>
      <point x="1723" y="823"/>
      <point x="1746" y="793"/>
      <point x="1746" y="742" type="curve" smooth="yes"/>
      <point x="1746" y="618"/>
      <point x="1632" y="492"/>
      <point x="1502" y="492" type="curve" smooth="yes"/>
      <point x="1454" y="492"/>
      <point x="1404" y="510"/>
      <point x="1381" y="537" type="curve"/>
      <point x="1341" y="434"/>
      <point x="1385" y="278"/>
      <point x="1565" y="278" type="curve" smooth="yes"/>
      <point x="1754" y="278"/>
      <point x="1933" y="441"/>
      <point x="1933" y="665" type="curve" smooth="yes"/>
      <point x="1933" y="877"/>
      <point x="1768" y="1033"/>
      <point x="1603" y="1033" type="curve" smooth="yes"/>
    </contour>
  </outline>
</glyph>
<glyph name="dUdatta" format="1">
  <advance width="0"/>
  <unicode hex="0951"/>
  <outline>
    <contour>
      <point x="262" y="1922" type="line"/>
      <point x="174" y="1469" type="line"/>
      <point x="367" y="1442" type="line"/>
      <point x="396" y="1464" type="line"/>
      <point x="484" y="1917" type="line"/>
      <point x="290" y="1944" type="line"/>
    </contour>
    <contour>
      <point x="257.553909607" y="1325.0" type="move" name="_abvm_matra"/>
    </contour>
  </outline>
</glyph>
<glyph name="dAcute" format="1">
  <advance width="0"/>
  <unicode hex="0954"/>
  <outline>
    <contour>
      <point x="444" y="1930" type="line"/>
      <point x="54" y="1517" type="line"/>
      <point x="217" y="1457" type="line"/>
      <point x="607" y="1870" type="line"/>
    </contour>
    <contour>
      <point x="311.00849462" y="1600.0" type="move" name="_abvm_latin"/>
    </contour>
  </outline>
</glyph>
<glyph name="dUesign" format="1">
  <advance width="0"/>
  <unicode hex="0956"/>
  <outline>
    <contour>
      <point x="-501" y="-113"/>
      <point x="-524" y="-151"/>
      <point x="-524" y="-204" type="curve" smooth="yes"/>
      <point x="-524" y="-334"/>
      <point x="-345" y="-501"/>
      <point x="-66" y="-501" type="curve" smooth="yes"/>
      <point x="181" y="-501"/>
      <point x="380" y="-378"/>
      <point x="380" y="-258" type="curve" smooth="yes"/>
      <point x="380" y="-195"/>
      <point x="342" y="-147"/>
      <point x="276" y="-120" type="curve"/>
      <point x="178" y="-237"/>
      <point x="22" y="-300"/>
      <point x="-118" y="-300" type="curve" smooth="yes"/>
      <point x="-280" y="-300"/>
      <point x="-399" y="-216"/>
      <point x="-466" y="-84" type="curve"/>
    </contour>
    <contour>
      <point x="-1.94380309138" y="-10.0" type="move" name="_blwm_mid"/>
    </contour>
  </outline>
</glyph>
<glyph name="dUuesign" format="1">
  <advance width="0"/>
  <unicode hex="0957"/>
  <outline>
    <contour>
      <point x="-501" y="-113"/>
      <point x="-524" y="-151"/>
      <point x="-524" y="-204" type="curve" smooth="yes"/>
      <point x="-524" y="-334"/>
      <point x="-345" y="-501"/>
      <point x="-66" y="-501" type="curve" smooth="yes"/>
      <point x="181" y="-501"/>
      <point x="380" y="-378"/>
      <point x="380" y="-258" type="curve" smooth="yes"/>
      <point x="380" y="-195"/>
      <point x="342" y="-147"/>
      <point x="276" y="-120" type="curve"/>
      <point x="178" y="-237"/>
      <point x="22" y="-300"/>
      <point x="-118" y="-300" type="curve" smooth="yes"/>
      <point x="-280" y="-300"/>
      <point x="-399" y="-216"/>
      <point x="-466" y="-84" type="curve"/>
    </contour>
    <contour>
      <point x="170" y="-807"/>
      <point x="319" y="-728"/>
      <point x="319" y="-624" type="curve" smooth="yes"/>
      <point x="319" y="-586"/>
      <point x="299" y="-537"/>
      <point x="258" y="-509" type="curve"/>
      <point x="180" y="-569"/>
      <point x="56" y="-610"/>
      <point x="-98" y="-610" type="curve" smooth="yes"/>
      <point x="-297" y="-610"/>
      <point x="-445" y="-523"/>
      <point x="-525" y="-384" type="curve"/>
      <point x="-558" y="-410"/>
      <point x="-580" y="-442"/>
      <point x="-580" y="-489" type="curve" smooth="yes"/>
      <point x="-580" y="-614"/>
      <point x="-379" y="-807"/>
      <point x="-58" y="-807" type="curve" smooth="yes"/>
    </contour>
    <contour>
      <point x="-1.94380309138" y="-10.0" type="move" name="_blwm_mid"/>
    </contour>
  </outline>
</glyph>
<glyph name="dKhha" format="1">
  <advance width="1696"/>
  <unicode hex="0959"/>
  <outline>
    <contour>
      <point x="1955" y="1330" type="line"/>
      <point x="223" y="1330" type="line"/>
      <point x="201" y="1307" type="line"/>
      <point x="221" y="1137" type="line"/>
      <point x="560" y="1137" type="line"/>
      <point x="567" y="1098"/>
      <point x="571" y="1041"/>
      <point x="571" y="1002" type="curve" smooth="yes"/>
      <point x="571" y="914"/>
      <point x="555" y="822"/>
      <point x="486" y="751" type="curve"/>
      <point x="442" y="770"/>
      <point x="398" y="779"/>
      <point x="360" y="779" type="curve" smooth="yes"/>
      <point x="260" y="779"/>
      <point x="200" y="724"/>
      <point x="200" y="610" type="curve" smooth="yes"/>
      <point x="200" y="339"/>
      <point x="573" y="-54"/>
      <point x="867" y="-54" type="curve" smooth="yes"/>
      <point x="983" y="-54"/>
      <point x="1047" y="5"/>
      <point x="1082" y="96" type="curve"/>
      <point x="774" y="135"/>
      <point x="561" y="251"/>
      <point x="434" y="433" type="curve"/>
      <point x="687" y="506"/>
      <point x="759" y="693"/>
      <point x="759" y="871" type="curve" smooth="yes"/>
      <point x="759" y="953"/>
      <point x="745" y="1054"/>
      <point x="723" y="1137" type="curve"/>
      <point x="1469" y="1137" type="line"/>
      <point x="1418" y="877" type="line"/>
      <point x="1354" y="948"/>
      <point x="1268" y="986"/>
      <point x="1169" y="986" type="curve" smooth="yes"/>
      <point x="971" y="986"/>
      <point x="818" y="846"/>
      <point x="818" y="643" type="curve" smooth="yes"/>
      <point x="818" y="437"/>
      <point x="983" y="256"/>
      <point x="1177" y="256" type="curve" smooth="yes"/>
      <point x="1213" y="256"/>
      <point x="1252" y="262"/>
      <point x="1302" y="278" type="curve"/>
      <point x="1244" y="-21" type="line"/>
      <point x="1455" y="-57" type="line"/>
      <point x="1480" y="-39" type="line"/>
      <point x="1709" y="1137" type="line"/>
      <point x="1953" y="1137" type="line"/>
      <point x="1974" y="1160" type="line"/>
    </contour>
    <contour>
      <point x="1329" y="784"/>
      <point x="1389" y="698"/>
      <point x="1367" y="611" type="curve" smooth="yes"/>
      <point x="1365" y="604" type="line" smooth="yes"/>
      <point x="1340" y="506"/>
      <point x="1261" y="438"/>
      <point x="1160" y="438" type="curve" smooth="yes"/>
      <point x="1058" y="438"/>
      <point x="1002" y="510"/>
      <point x="1002" y="590" type="curve" smooth="yes"/>
      <point x="1002" y="694"/>
      <point x="1094" y="784"/>
      <point x="1215" y="784" type="curve" smooth="yes"/>
    </contour>
    <contour>
      <point x="209" y="76"/>
      <point x="133" y="8"/>
      <point x="133" y="-69" type="curve" smooth="yes"/>
      <point x="133" y="-129"/>
      <point x="176" y="-176"/>
      <point x="238" y="-176" type="curve" smooth="yes"/>
      <point x="315" y="-176"/>
      <point x="390" y="-108"/>
      <point x="390" y="-30" type="curve" smooth="yes"/>
      <point x="390" y="29"/>
      <point x="348" y="76"/>
      <point x="287" y="76" type="curve" smooth="yes"/>
    </contour>
    <contour>
      <point x="1482.30677413" y="-19.0" type="move" name="blwm_matra"/>
    </contour>
    <contour>
      <point x="1625.55390961" y="1325.0" type="move" name="abvm_matra"/>
    </contour>
    <contour>
      <point x="1159.00849462" y="1600.0" type="move" name="abvm_latin"/>
    </contour>
    <contour>
      <point x="1639.16053125" y="1395.0" type="move" name="abvm_nasal"/>
    </contour>
    <contour>
      <point x="916.056196909" y="-10.0" type="move" name="blwm_mid"/>
    </contour>
    <contour>
      <point x="1314.94380309" y="10.0" type="move" name="blwm_rakar"/>
    </contour>
    <contour>
      <point x="1627.4977127" y="1335.0" type="move" name="abvm_reph"/>
    </contour>
  </outline>
</glyph>
<glyph name="dGhha" format="1">
  <advance width="1301"/>
  <unicode hex="095A"/>
  <outline>
    <contour>
      <point x="1560" y="1330" type="line"/>
      <point x="223" y="1330" type="line"/>
      <point x="201" y="1307" type="line"/>
      <point x="221" y="1137" type="line"/>
      <point x="505" y="1137" type="line"/>
      <point x="415" y="676" type="line"/>
      <point x="300" y="676" type="line" smooth="yes"/>
      <point x="221" y="676"/>
      <point x="187" y="640"/>
      <point x="187" y="595" type="curve" smooth="yes"/>
      <point x="187" y="499"/>
      <point x="323" y="303"/>
      <point x="464" y="303" type="curve" smooth="yes"/>
      <point x="545" y="303"/>
      <point x="590" y="366"/>
      <point x="619" y="514" type="curve" smooth="yes"/>
      <point x="740" y="1137" type="line"/>
      <point x="1095" y="1137" type="line"/>
      <point x="870" y="-21" type="line"/>
      <point x="1081" y="-57" type="line"/>
      <point x="1106" y="-39" type="line"/>
      <point x="1335" y="1137" type="line"/>
      <point x="1558" y="1137" type="line"/>
      <point x="1579" y="1160" type="line"/>
    </contour>
    <contour>
      <point x="498" y="176"/>
      <point x="422" y="108"/>
      <point x="422" y="31" type="curve" smooth="yes"/>
      <point x="422" y="-29"/>
      <point x="465" y="-76"/>
      <point x="527" y="-76" type="curve" smooth="yes"/>
      <point x="604" y="-76"/>
      <point x="679" y="-8"/>
      <point x="679" y="70" type="curve" smooth="yes"/>
      <point x="679" y="129"/>
      <point x="637" y="176"/>
      <point x="576" y="176" type="curve" smooth="yes"/>
    </contour>
    <contour>
      <point x="1108.30677413" y="-19.0" type="move" name="blwm_matra"/>
    </contour>
    <contour>
      <point x="1251.55390961" y="1325.0" type="move" name="abvm_matra"/>
    </contour>
    <contour>
      <point x="961.00849462" y="1600.0" type="move" name="abvm_latin"/>
    </contour>
    <contour>
      <point x="1265.16053125" y="1395.0" type="move" name="abvm_nasal"/>
    </contour>
    <contour>
      <point x="528.056196909" y="-10.0" type="move" name="blwm_mid"/>
    </contour>
    <contour>
      <point x="942.943803091" y="10.0" type="move" name="blwm_rakar"/>
    </contour>
    <contour>
      <point x="1253.4977127" y="1335.0" type="move" name="abvm_reph"/>
    </contour>
  </outline>
</glyph>
<glyph name="dZa" format="1">
  <advance width="1481"/>
  <unicode hex="095B"/>
  <outline>
    <contour>
      <point x="1740" y="1330" type="line"/>
      <point x="223" y="1330" type="line"/>
      <point x="201" y="1307" type="line"/>
      <point x="221" y="1137" type="line"/>
      <point x="1275" y="1137" type="line"/>
      <point x="1233" y="923" type="line"/>
      <point x="637" y="923" type="line"/>
      <point x="616" y="900" type="line"/>
      <point x="636" y="730" type="line"/>
      <point x="747" y="730"/>
      <point x="800" y="664"/>
      <point x="800" y="585" type="curve" smooth="yes"/>
      <point x="800" y="467"/>
      <point x="700" y="399"/>
      <point x="601" y="399" type="curve" smooth="yes"/>
      <point x="452" y="399"/>
      <point x="375" y="557"/>
      <point x="394" y="943" type="curve"/>
      <point x="304" y="935"/>
      <point x="239" y="899"/>
      <point x="239" y="727" type="curve" smooth="yes"/>
      <point x="239" y="528"/>
      <point x="328" y="149"/>
      <point x="625" y="149" type="curve" smooth="yes"/>
      <point x="819" y="149"/>
      <point x="995" y="288"/>
      <point x="995" y="499" type="curve" smooth="yes"/>
      <point x="995" y="576"/>
      <point x="971" y="659"/>
      <point x="923" y="730" type="curve"/>
      <point x="1196" y="730" type="line"/>
      <point x="1050" y="-21" type="line"/>
      <point x="1261" y="-57" type="line"/>
      <point x="1286" y="-39" type="line"/>
      <point x="1515" y="1137" type="line"/>
      <point x="1738" y="1137" type="line"/>
      <point x="1759" y="1160" type="line"/>
    </contour>
    <contour>
      <point x="483" y="46"/>
      <point x="407" y="-22"/>
      <point x="407" y="-99" type="curve" smooth="yes"/>
      <point x="407" y="-159"/>
      <point x="450" y="-206"/>
      <point x="512" y="-206" type="curve" smooth="yes"/>
      <point x="589" y="-206"/>
      <point x="664" y="-138"/>
      <point x="664" y="-60" type="curve" smooth="yes"/>
      <point x="664" y="-1"/>
      <point x="622" y="46"/>
      <point x="561" y="46" type="curve" smooth="yes"/>
    </contour>
    <contour>
      <point x="1288.30677413" y="-19.0" type="move" name="blwm_matra"/>
    </contour>
    <contour>
      <point x="1431.55390961" y="1325.0" type="move" name="abvm_matra"/>
    </contour>
    <contour>
      <point x="1051.00849462" y="1600.0" type="move" name="abvm_latin"/>
    </contour>
    <contour>
      <point x="1445.16053125" y="1395.0" type="move" name="abvm_nasal"/>
    </contour>
    <contour>
      <point x="718.056196909" y="-10.0" type="move" name="blwm_mid"/>
    </contour>
    <contour>
      <point x="1113.94380309" y="10.0" type="move" name="blwm_rakar"/>
    </contour>
    <contour>
      <point x="1433.4977127" y="1335.0" type="move" name="abvm_reph"/>
    </contour>
  </outline>
</glyph>
<glyph name="dDddha" format="1">
  <advance width="1112"/>
  <unicode hex="095C"/>
  <outline>
    <contour>
      <point x="1371" y="1330" type="line"/>
      <point x="223" y="1330" type="line"/>
      <point x="201" y="1307" type="line"/>
      <point x="221" y="1137" type="line"/>
      <point x="929" y="1137" type="line"/>
      <point x="911" y="1046" type="line" smooth="yes"/>
      <point x="909" y="1033"/>
      <point x="900" y="1026"/>
      <point x="887" y="1026" type="curve" smooth="yes"/>
      <point x="556" y="1026" type="line" smooth="yes"/>
      <point x="397" y="1026"/>
      <point x="321" y="954"/>
      <point x="321" y="846" type="curve" smooth="yes"/>
      <point x="321" y="687"/>
      <point x="486" y="482"/>
      <point x="674" y="482" type="curve" smooth="yes"/>
      <point x="729" y="482"/>
      <point x="836" y="499"/>
      <point x="870" y="499" type="curve" smooth="yes"/>
      <point x="909" y="499"/>
      <point x="922" y="474"/>
      <point x="922" y="447" type="curve" smooth="yes"/>
      <point x="922" y="348"/>
      <point x="807" y="270"/>
      <point x="667" y="270" type="curve" smooth="yes"/>
      <point x="496" y="270"/>
      <point x="344" y="393"/>
      <point x="267" y="636" type="curve"/>
      <point x="215" y="617"/>
      <point x="174" y="584"/>
      <point x="174" y="519" type="curve" smooth="yes"/>
      <point x="174" y="375"/>
      <point x="348" y="39"/>
      <point x="702" y="39" type="curve" smooth="yes"/>
      <point x="921" y="39"/>
      <point x="1089" y="159"/>
      <point x="1089" y="381" type="curve" smooth="yes"/>
      <point x="1089" y="553"/>
      <point x="980" y="716"/>
      <point x="830" y="716" type="curve" smooth="yes"/>
      <point x="786" y="716"/>
      <point x="666" y="703"/>
      <point x="615" y="703" type="curve" smooth="yes"/>
      <point x="548" y="703"/>
      <point x="524" y="726"/>
      <point x="524" y="757" type="curve" smooth="yes"/>
      <point x="524" y="822"/>
      <point x="599" y="855"/>
      <point x="685" y="855" type="curve" smooth="yes"/>
      <point x="1088" y="855" type="line"/>
      <point x="1112" y="875" type="line"/>
      <point x="1163" y="1137" type="line"/>
      <point x="1369" y="1137" type="line"/>
      <point x="1390" y="1160" type="line"/>
    </contour>
    <contour>
      <point x="520" y="-64"/>
      <point x="445" y="-132"/>
      <point x="445" y="-209" type="curve" smooth="yes"/>
      <point x="445" y="-269"/>
      <point x="488" y="-316"/>
      <point x="550" y="-316" type="curve" smooth="yes"/>
      <point x="627" y="-316"/>
      <point x="701" y="-248"/>
      <point x="701" y="-170" type="curve" smooth="yes"/>
      <point x="701" y="-111"/>
      <point x="659" y="-64"/>
      <point x="599" y="-64" type="curve" smooth="yes"/>
    </contour>
    <contour>
      <point x="858.554650471" y="-419.0" type="move" name="blwm_matra"/>
    </contour>
    <contour>
      <point x="1079.55390961" y="1325.0" type="move" name="abvm_matra"/>
    </contour>
    <contour>
      <point x="867.00849462" y="1600.0" type="move" name="abvm_latin"/>
    </contour>
    <contour>
      <point x="1093.16053125" y="1395.0" type="move" name="abvm_nasal"/>
    </contour>
    <contour>
      <point x="585.180135081" y="-210.0" type="move" name="blwm_mid"/>
    </contour>
    <contour>
      <point x="580.191679436" y="-390.0" type="move" name="blwm_rakar"/>
    </contour>
    <contour>
      <point x="1081.4977127" y="1335.0" type="move" name="abvm_reph"/>
    </contour>
  </outline>
</glyph>
<glyph name="dYya" format="1">
  <advance width="1308"/>
  <unicode hex="095F"/>
  <outline>
    <contour>
      <point x="1567" y="1330" type="line"/>
      <point x="223" y="1330" type="line"/>
      <point x="201" y="1307" type="line"/>
      <point x="221" y="1137" type="line"/>
      <point x="579" y="1137" type="line"/>
      <point x="583" y="1118"/>
      <point x="585" y="1088"/>
      <point x="585" y="1064" type="curve" smooth="yes"/>
      <point x="585" y="922"/>
      <point x="525" y="830"/>
      <point x="246" y="754" type="curve"/>
      <point x="229" y="728" type="line"/>
      <point x="327" y="350"/>
      <point x="551" y="201"/>
      <point x="770" y="201" type="curve" smooth="yes"/>
      <point x="828" y="201"/>
      <point x="867" y="209"/>
      <point x="926" y="229" type="curve"/>
      <point x="877" y="-21" type="line"/>
      <point x="1087" y="-57" type="line"/>
      <point x="1112" y="-39" type="line"/>
      <point x="1342" y="1137" type="line"/>
      <point x="1565" y="1137" type="line"/>
      <point x="1586" y="1160" type="line"/>
    </contour>
    <contour>
      <point x="1102" y="1137" type="line"/>
      <point x="1015" y="690" type="line" smooth="yes"/>
      <point x="984" y="528"/>
      <point x="819" y="421"/>
      <point x="681" y="421" type="curve" smooth="yes"/>
      <point x="588" y="421"/>
      <point x="503" y="469"/>
      <point x="457" y="568" type="curve"/>
      <point x="664" y="639"/>
      <point x="775" y="750"/>
      <point x="775" y="916" type="curve" smooth="yes"/>
      <point x="775" y="983"/>
      <point x="760" y="1066"/>
      <point x="731" y="1137" type="curve"/>
    </contour>
    <contour>
      <point x="308" y="176"/>
      <point x="232" y="108"/>
      <point x="232" y="31" type="curve" smooth="yes"/>
      <point x="232" y="-29"/>
      <point x="275" y="-76"/>
      <point x="337" y="-76" type="curve" smooth="yes"/>
      <point x="414" y="-76"/>
      <point x="489" y="-8"/>
      <point x="489" y="70" type="curve" smooth="yes"/>
      <point x="489" y="129"/>
      <point x="447" y="176"/>
      <point x="386" y="176" type="curve" smooth="yes"/>
    </contour>
    <contour>
      <point x="1114.30677413" y="-19.0" type="move" name="blwm_matra"/>
    </contour>
    <contour>
      <point x="1257.55390961" y="1325.0" type="move" name="abvm_matra"/>
    </contour>
    <contour>
      <point x="965.00849462" y="1600.0" type="move" name="abvm_latin"/>
    </contour>
    <contour>
      <point x="1271.16053125" y="1395.0" type="move" name="abvm_nasal"/>
    </contour>
    <contour>
      <point x="552.056196909" y="-10.0" type="move" name="blwm_mid"/>
    </contour>
    <contour>
      <point x="946.943803091" y="10.0" type="move" name="blwm_rakar"/>
    </contour>
    <contour>
      <point x="1259.4977127" y="1335.0" type="move" name="abvm_reph"/>
    </contour>
  </outline>
</glyph>
<glyph name="dRrvocalic" format="1">
  <advance width="1773.85481556"/>
  <unicode hex="0960"/>
  <outline>
    <contour>
      <point x="1650" y="178"/>
      <point x="1538" y="128"/>
      <point x="1480" y="128" type="curve" smooth="yes"/>
      <point x="1454" y="128"/>
      <point x="1428" y="139"/>
      <point x="1428" y="168" type="curve" smooth="yes"/>
      <point x="1428" y="213"/>
      <point x="1483" y="275"/>
      <point x="1683" y="381" type="curve"/>
      <point x="1653" y="464"/>
      <point x="1623" y="555"/>
      <point x="1593" y="661" type="curve"/>
      <point x="1674" y="723"/>
      <point x="1723" y="792"/>
      <point x="1723" y="867" type="curve" smooth="yes"/>
      <point x="1723" y="962"/>
      <point x="1649" y="1055"/>
      <point x="1536" y="1055" type="curve" smooth="yes"/>
      <point x="1426" y="1055"/>
      <point x="1370" y="976"/>
      <point x="1370" y="903" type="curve" smooth="yes"/>
      <point x="1370" y="879"/>
      <point x="1376" y="843"/>
      <point x="1392" y="808" type="curve"/>
      <point x="1324" y="767"/>
      <point x="1254" y="739"/>
      <point x="1175" y="724" type="curve"/>
      <point x="1255" y="1137" type="line"/>
      <point x="2030" y="1137" type="line"/>
      <point x="2051" y="1160" type="line"/>
      <point x="2032" y="1330" type="line"/>
      <point x="223" y="1330" type="line"/>
      <point x="201" y="1307" type="line"/>
      <point x="221" y="1137" type="line"/>
      <point x="1015" y="1137" type="line"/>
      <point x="944" y="770" type="line"/>
      <point x="714" y="971"/>
      <point x="634" y="1019"/>
      <point x="522" y="1019" type="curve" smooth="yes"/>
      <point x="360" y="1019"/>
      <point x="258" y="922"/>
      <point x="258" y="836" type="curve" smooth="yes"/>
      <point x="258" y="777"/>
      <point x="305" y="723"/>
      <point x="391" y="674" type="curve"/>
      <point x="457" y="743"/>
      <point x="542" y="788"/>
      <point x="619" y="788" type="curve" smooth="yes"/>
      <point x="664" y="788"/>
      <point x="713" y="773"/>
      <point x="842" y="668" type="curve"/>
      <point x="642" y="551"/>
      <point x="460" y="425"/>
      <point x="289" y="296" type="curve"/>
      <point x="283" y="268" type="line"/>
      <point x="447" y="98" type="line"/>
      <point x="593" y="212"/>
      <point x="701" y="292"/>
      <point x="872" y="403" type="curve"/>
      <point x="790" y="-21" type="line"/>
      <point x="1001" y="-57" type="line"/>
      <point x="1026" y="-39" type="line"/>
      <point x="1133" y="507" type="line"/>
      <point x="1253" y="512"/>
      <point x="1369" y="541"/>
      <point x="1467" y="586" type="curve"/>
      <point x="1486" y="528" type="line"/>
      <point x="1318" y="438"/>
      <point x="1239" y="362"/>
      <point x="1239" y="261" type="curve" smooth="yes"/>
      <point x="1239" y="118"/>
      <point x="1384" y="-70"/>
      <point x="1577" y="-70" type="curve" smooth="yes"/>
      <point x="1718" y="-70"/>
      <point x="1847" y="23"/>
      <point x="1847" y="113" type="curve" smooth="yes"/>
      <point x="1847" y="188"/>
      <point x="1769" y="251"/>
      <point x="1713" y="267" type="curve"/>
    </contour>
  </outline>
</glyph>
<glyph name="dLlvocalic" format="1">
  <advance width="1513"/>
  <unicode hex="0961"/>
  <outline>
    <contour>
      <point x="1772" y="1330" type="line"/>
      <point x="223" y="1330" type="line"/>
      <point x="201" y="1307" type="line"/>
      <point x="221" y="1137" type="line"/>
      <point x="1145" y="1137" type="line"/>
      <point x="1099" y="900" type="line"/>
      <point x="1023" y="883"/>
      <point x="941" y="840"/>
      <point x="863" y="770" type="curve"/>
      <point x="766" y="881"/>
      <point x="671" y="924"/>
      <point x="567" y="924" type="curve" smooth="yes"/>
      <point x="357" y="924"/>
      <point x="215" y="763"/>
      <point x="215" y="550" type="curve" smooth="yes"/>
      <point x="215" y="286"/>
      <point x="401" y="-48"/>
      <point x="556" y="-48" type="curve" smooth="yes"/>
      <point x="596" y="-48"/>
      <point x="636" y="-27"/>
      <point x="658" y="34" type="curve"/>
      <point x="507" y="158"/>
      <point x="432" y="331"/>
      <point x="432" y="463" type="curve" smooth="yes"/>
      <point x="432" y="602"/>
      <point x="525" y="708"/>
      <point x="643" y="708" type="curve" smooth="yes"/>
      <point x="683" y="708"/>
      <point x="726" y="695"/>
      <point x="765" y="666" type="curve"/>
      <point x="732" y="624"/>
      <point x="700" y="576"/>
      <point x="669" y="522" type="curve"/>
      <point x="845" y="385" type="line"/>
      <point x="874" y="394" type="line"/>
      <point x="1010" y="611"/>
      <point x="1152" y="691"/>
      <point x="1251" y="691" type="curve" smooth="yes"/>
      <point x="1294" y="691"/>
      <point x="1320" y="674"/>
      <point x="1320" y="634" type="curve" smooth="yes"/>
      <point x="1320" y="547"/>
      <point x="1243" y="500"/>
      <point x="1092" y="384" type="curve" smooth="yes"/>
      <point x="916" y="249"/>
      <point x="856" y="195"/>
      <point x="856" y="94" type="curve" smooth="yes"/>
      <point x="856" y="19"/>
      <point x="901" y="-46"/>
      <point x="975" y="-91" type="curve"/>
      <point x="953" y="-115"/>
      <point x="934" y="-138"/>
      <point x="934" y="-192" type="curve" smooth="yes"/>
      <point x="934" y="-319"/>
      <point x="1065" y="-447"/>
      <point x="1246" y="-447" type="curve" smooth="yes"/>
      <point x="1397" y="-447"/>
      <point x="1517" y="-364"/>
      <point x="1517" y="-283" type="curve" smooth="yes"/>
      <point x="1517" y="-225"/>
      <point x="1460" y="-177"/>
      <point x="1403" y="-157" type="curve"/>
      <point x="1332" y="-245"/>
      <point x="1209" y="-290"/>
      <point x="1147" y="-290" type="curve" smooth="yes"/>
      <point x="1117" y="-290"/>
      <point x="1102" y="-279"/>
      <point x="1102" y="-258" type="curve" smooth="yes"/>
      <point x="1102" y="-220"/>
      <point x="1141" y="-162"/>
      <point x="1396" y="-61" type="curve"/>
      <point x="1409" y="-32" type="line"/>
      <point x="1290" y="106" type="line"/>
      <point x="1193" y="52"/>
      <point x="1132" y="26"/>
      <point x="1097" y="26" type="curve" smooth="yes"/>
      <point x="1074" y="26"/>
      <point x="1066" y="39"/>
      <point x="1066" y="53" type="curve" smooth="yes"/>
      <point x="1066" y="113"/>
      <point x="1204" y="198"/>
      <point x="1314" y="279" type="curve" smooth="yes"/>
      <point x="1480" y="401"/>
      <point x="1506" y="442"/>
      <point x="1506" y="565" type="curve" smooth="yes"/>
      <point x="1506" y="698"/>
      <point x="1430" y="818"/>
      <point x="1324" y="873" type="curve"/>
      <point x="1375" y="1137" type="line"/>
      <point x="1770" y="1137" type="line"/>
      <point x="1791" y="1160" type="line"/>
    </contour>
  </outline>
</glyph>
<glyph name="dLvocalicsign" format="1">
  <advance width="0"/>
  <unicode hex="0962"/>
  <outline>
    <contour>
      <point x="-67" y="-651"/>
      <point x="22" y="-612"/>
      <point x="107" y="-538" type="curve" smooth="yes"/>
      <point x="170" y="-483"/>
      <point x="219" y="-428"/>
      <point x="219" y="-332" type="curve" smooth="yes"/>
      <point x="219" y="-203"/>
      <point x="117" y="-110"/>
      <point x="-4" y="-110" type="curve" smooth="yes"/>
      <point x="-59" y="-110"/>
      <point x="-126" y="-128"/>
      <point x="-189" y="-183" type="curve"/>
      <point x="-252" y="-124"/>
      <point x="-315" y="-100"/>
      <point x="-381" y="-100" type="curve" smooth="yes"/>
      <point x="-519" y="-100"/>
      <point x="-610" y="-199"/>
      <point x="-610" y="-333" type="curve" smooth="yes"/>
      <point x="-610" y="-521"/>
      <point x="-435" y="-707"/>
      <point x="-356" y="-707" type="curve" smooth="yes"/>
      <point x="-326" y="-707"/>
      <point x="-285" y="-682"/>
      <point x="-268" y="-641" type="curve"/>
      <point x="-386" y="-569"/>
      <point x="-454" y="-463"/>
      <point x="-454" y="-380" type="curve" smooth="yes"/>
      <point x="-454" y="-304"/>
      <point x="-390" y="-245"/>
      <point x="-316" y="-245" type="curve" smooth="yes"/>
      <point x="-295" y="-245"/>
      <point x="-275" y="-250"/>
      <point x="-256" y="-259" type="curve"/>
      <point x="-282" y="-299"/>
      <point x="-307" y="-349"/>
      <point x="-328" y="-410" type="curve"/>
      <point x="-206" y="-483" type="line"/>
      <point x="-179" y="-470" type="line"/>
      <point x="-112" y="-286"/>
      <point x="-16" y="-245"/>
      <point x="35" y="-245" type="curve" smooth="yes"/>
      <point x="67" y="-245"/>
      <point x="83" y="-262"/>
      <point x="83" y="-289" type="curve" smooth="yes"/>
      <point x="83" y="-348"/>
      <point x="9" y="-407"/>
      <point x="-52" y="-461" type="curve" smooth="yes"/>
      <point x="-137" y="-536"/>
      <point x="-187" y="-592"/>
      <point x="-187" y="-648" type="curve" smooth="yes"/>
      <point x="-187" y="-725"/>
      <point x="-100" y="-823"/>
      <point x="25" y="-823" type="curve" smooth="yes"/>
      <point x="121" y="-823"/>
      <point x="197" y="-768"/>
      <point x="197" y="-717" type="curve" smooth="yes"/>
      <point x="197" y="-683"/>
      <point x="167" y="-649"/>
      <point x="115" y="-629" type="curve"/>
      <point x="73" y="-683"/>
      <point x="2" y="-709"/>
      <point x="-36" y="-709" type="curve" smooth="yes"/>
      <point x="-56" y="-709"/>
      <point x="-67" y="-702"/>
      <point x="-67" y="-686" type="curve" smooth="yes"/>
    </contour>
    <contour>
      <point x="-3.69322587362" y="-19.0" type="move" name="_blwm_matra"/>
    </contour>
  </outline>
</glyph>
<glyph name="dLlvocalicsign" format="1">
  <advance width="0"/>
  <unicode hex="0963"/>
  <outline>
    <contour>
      <point x="-518" y="-100"/>
      <point x="-611" y="-199"/>
      <point x="-611" y="-330" type="curve" smooth="yes"/>
      <point x="-611" y="-516"/>
      <point x="-434" y="-697"/>
      <point x="-355" y="-697" type="curve" smooth="yes"/>
      <point x="-325" y="-697"/>
      <point x="-284" y="-672"/>
      <point x="-267" y="-631" type="curve"/>
      <point x="-388" y="-560"/>
      <point x="-455" y="-458"/>
      <point x="-455" y="-378" type="curve" smooth="yes"/>
      <point x="-455" y="-304"/>
      <point x="-391" y="-245"/>
      <point x="-317" y="-245" type="curve" smooth="yes"/>
      <point x="-296" y="-245"/>
      <point x="-276" y="-250"/>
      <point x="-257" y="-259" type="curve"/>
      <point x="-283" y="-299"/>
      <point x="-308" y="-349"/>
      <point x="-329" y="-410" type="curve"/>
      <point x="-207" y="-483" type="line"/>
      <point x="-179" y="-469" type="line"/>
      <point x="-110" y="-285"/>
      <point x="-8" y="-246"/>
      <point x="40" y="-246" type="curve" smooth="yes"/>
      <point x="66" y="-246"/>
      <point x="80" y="-258"/>
      <point x="80" y="-283" type="curve" smooth="yes"/>
      <point x="80" y="-341"/>
      <point x="23" y="-379"/>
      <point x="-60" y="-440" type="curve" smooth="yes"/>
      <point x="-162" y="-515"/>
      <point x="-192" y="-557"/>
      <point x="-192" y="-613" type="curve" smooth="yes"/>
      <point x="-192" y="-658"/>
      <point x="-159" y="-705"/>
      <point x="-112" y="-735" type="curve"/>
      <point x="-144" y="-761"/>
      <point x="-155" y="-784"/>
      <point x="-155" y="-811" type="curve" smooth="yes"/>
      <point x="-155" y="-888"/>
      <point x="-68" y="-986"/>
      <point x="57" y="-986" type="curve" smooth="yes"/>
      <point x="154" y="-986"/>
      <point x="229" y="-931"/>
      <point x="229" y="-880" type="curve" smooth="yes"/>
      <point x="229" y="-846"/>
      <point x="199" y="-812"/>
      <point x="147" y="-792" type="curve"/>
      <point x="105" y="-846"/>
      <point x="34" y="-872"/>
      <point x="-4" y="-872" type="curve" smooth="yes"/>
      <point x="-24" y="-872"/>
      <point x="-35" y="-865"/>
      <point x="-35" y="-849" type="curve" smooth="yes"/>
      <point x="-35" y="-826"/>
      <point x="-18" y="-788"/>
      <point x="130" y="-727" type="curve"/>
      <point x="145" y="-700" type="line"/>
      <point x="98" y="-602" type="line"/>
      <point x="37" y="-638"/>
      <point x="-9" y="-660"/>
      <point x="-35" y="-660" type="curve" smooth="yes"/>
      <point x="-48" y="-660"/>
      <point x="-54" y="-654"/>
      <point x="-54" y="-645" type="curve" smooth="yes"/>
      <point x="-54" y="-606"/>
      <point x="10" y="-586"/>
      <point x="98" y="-524" type="curve" smooth="yes"/>
      <point x="164" y="-478"/>
      <point x="219" y="-429"/>
      <point x="219" y="-330" type="curve" smooth="yes"/>
      <point x="219" y="-205"/>
      <point x="114" y="-110"/>
      <point x="-6" y="-110" type="curve" smooth="yes"/>
      <point x="-59" y="-110"/>
      <point x="-126" y="-128"/>
      <point x="-190" y="-183" type="curve"/>
      <point x="-253" y="-124"/>
      <point x="-315" y="-100"/>
      <point x="-385" y="-100" type="curve" smooth="yes"/>
    </contour>
    <contour>
      <point x="-3.69322587362" y="-19.0" type="move" name="_blwm_matra"/>
    </contour>
  </outline>
</glyph>
<glyph name="dDanda" format="1">
  <advance width="941"/>
  <unicode hex="0964"/>
  <outline>
    <contour>
      <point x="760" y="1330" type="line"/>
      <point x="489" y="-61" type="line"/>
      <point x="700" y="-97" type="line"/>
      <point x="726" y="-79" type="line"/>
      <point x="996" y="1312" type="line"/>
      <point x="785" y="1348" type="line"/>
    </contour>
  </outline>
</glyph>
<glyph name="dDbldanda" format="1">
  <advance width="1341"/>
  <unicode hex="0965"/>
  <outline>
    <contour>
      <point x="760" y="1330" type="line"/>
      <point x="489" y="-61" type="line"/>
      <point x="700" y="-97" type="line"/>
      <point x="726" y="-79" type="line"/>
      <point x="996" y="1312" type="line"/>
      <point x="785" y="1348" type="line"/>
    </contour>
    <contour>
      <point x="1160" y="1330" type="line"/>
      <point x="889" y="-61" type="line"/>
      <point x="1100" y="-97" type="line"/>
      <point x="1126" y="-79" type="line"/>
      <point x="1396" y="1312" type="line"/>
      <point x="1185" y="1348" type="line"/>
    </contour>
  </outline>
</glyph>
